M48
; DRILL file {KiCad (5.1.5-0-10_14)} date Freitag, 26. Februar 2021 um 11:00:37
; FORMAT={-:-/ absolute / inch / decimal}
; #@! TF.CreationDate,2021-02-26T11:00:37+01:00
; #@! TF.GenerationSoftware,Kicad,Pcbnew,(5.1.5-0-10_14)
; #@! TF.FileFunction,Plated,1,2,PTH
FMAT,2
INCH
T1C0.0118
T2C0.0236
T3C0.0394
T4C0.0591
%
G90
G05
T1
X1.2094Y-1.0464
X1.2094Y-1.0699
X1.2094Y-1.0934
X1.2154Y-1.0074
X1.2174Y-0.9634
X1.2214Y-1.2154
X1.2214Y-1.2389
X1.2214Y-1.2624
X1.2334Y-1.0699
X1.2334Y-1.0934
X1.2344Y-1.0464
X1.2449Y-1.2154
X1.2449Y-1.2389
X1.2449Y-1.2624
X1.2754Y-0.8934
X1.7064Y-1.1174
X1.7064Y-1.1494
X1.7384Y-1.1174
X1.7384Y-1.1494
X1.7754Y-1.1174
X1.8124Y-1.1174
X1.8124Y-1.1494
X1.8214Y-1.2354
X1.8214Y-1.2694
X1.8444Y-1.1174
X1.8444Y-1.1494
X1.8554Y-1.2354
X1.8554Y-1.2694
X1.867Y-1.0422
X1.9734Y-0.8414
X1.9776Y-1.019
X2.2226Y-1.0948
X2.2433Y-1.0091
X2.2594Y-1.0954
X2.2934Y-1.0954
X2.3274Y-1.0954
X2.3294Y-1.0068
X2.3614Y-0.9694
X2.3614Y-1.0954
X2.3794Y-0.9994
X2.3974Y-0.9694
X2.4174Y-0.9994
X2.4534Y-0.9614
X2.4643Y-1.0609
X2.4834Y-1.2014
X2.5174Y-1.2014
X2.525Y-1.0042
X2.5415Y-0.8612
X2.5514Y-1.2014
X2.637Y-1.1592
X2.6746Y-0.8902
X2.7126Y-1.1562
X2.7438Y-0.8888
X2.7464Y-1.1774
X2.7466Y-1.152
X2.7468Y-1.203
X2.809Y-1.1522
X2.8092Y-1.1776
X2.8092Y-1.2028
X2.9072Y-1.1244
X2.9565Y-1.1215
X3.0782Y-0.8394
X3.1064Y-0.8234
X3.1148Y-1.2052
X3.1284Y-0.8894
X3.1482Y-1.2056
X3.1564Y-0.9604
X3.1619Y-0.8894
X3.3694Y-1.0419
X3.3938Y-1.0424
X3.4034Y-0.8122
X3.4034Y-0.8459
X3.4184Y-1.0422
X3.4369Y-0.8464
X3.437Y-0.812
X3.5614Y-0.9654
X3.5774Y-0.9954
X3.5954Y-0.9654
X3.6134Y-0.9954
X3.6294Y-0.9654
X3.6474Y-0.9954
X3.6626Y-0.965
X3.681Y-0.9944
X1.5024Y-0.8651
X1.5024Y-0.9124
X1.5024Y-0.9636
X1.5024Y-1.0069
X1.5496Y-0.8651
X1.5496Y-0.9124
X1.5496Y-0.9636
X1.5496Y-1.0069
T2
X3.2155Y-1.0832
X3.2155Y-1.162
X3.2942Y-1.0832
X3.2942Y-1.162
X3.3729Y-1.162
T3
X2.0331Y-0.8918
X2.0331Y-0.9918
X2.0331Y-1.0918
X2.0331Y-1.1918
T4
X3.9242Y-0.9416
X3.9242Y-1.1416
T2
G00X0.964Y-1.0282
M15
G01X0.964Y-1.0558
M16
G05
G00X1.1471Y-0.8451
M15
G01X1.1746Y-0.8451
M16
G05
G00X1.1471Y-1.2389
M15
G01X1.1746Y-1.2389
M16
G05
T0
M30
