G04 #@! TF.GenerationSoftware,KiCad,Pcbnew,(5.1.5-0-10_14)*
G04 #@! TF.CreationDate,2021-02-26T10:59:33+01:00*
G04 #@! TF.ProjectId,L_tfix,4cf67466-6978-42e6-9b69-6361645f7063,rev?*
G04 #@! TF.SameCoordinates,Original*
G04 #@! TF.FileFunction,Copper,L1,Top*
G04 #@! TF.FilePolarity,Positive*
%FSLAX46Y46*%
G04 Gerber Fmt 4.6, Leading zero omitted, Abs format (unit mm)*
G04 Created by KiCad (PCBNEW (5.1.5-0-10_14)) date 2021-02-26 10:59:33*
%MOMM*%
%LPD*%
G04 APERTURE LIST*
%ADD10C,0.050000*%
%ADD11C,0.150000*%
%ADD12C,1.600000*%
%ADD13R,1.600000X1.600000*%
%ADD14C,1.200000*%
%ADD15C,1.250000*%
%ADD16R,2.000000X1.200000*%
%ADD17R,1.200000X2.000000*%
%ADD18R,1.550000X1.300000*%
%ADD19C,0.600000*%
%ADD20R,2.950000X4.500000*%
%ADD21C,3.500120*%
%ADD22R,3.500120X3.500120*%
%ADD23C,0.500000*%
%ADD24C,0.250000*%
%ADD25C,0.254000*%
G04 APERTURE END LIST*
D10*
X21000000Y-30000000D02*
X21000000Y-33000000D01*
X21000000Y-23000000D02*
X21000000Y-30000000D01*
X21000000Y-20000000D02*
X21000000Y-23000000D01*
X102000000Y-20000000D02*
X21000000Y-20000000D01*
X102000000Y-20000000D02*
X102000000Y-33000000D01*
X21000000Y-33000000D02*
X102000000Y-33000000D01*
G04 #@! TA.AperFunction,SMDPad,CuDef*
D11*
G36*
X36624433Y-30570827D02*
G01*
X36669329Y-30577487D01*
X36713357Y-30588515D01*
X36756091Y-30603806D01*
X36797121Y-30623211D01*
X36836051Y-30646545D01*
X36872507Y-30673583D01*
X36906137Y-30704063D01*
X36936617Y-30737693D01*
X36963655Y-30774149D01*
X36986989Y-30813079D01*
X37006394Y-30854109D01*
X37021685Y-30896843D01*
X37032713Y-30940871D01*
X37039373Y-30985767D01*
X37041600Y-31031100D01*
X37041600Y-31956100D01*
X37039373Y-32001433D01*
X37032713Y-32046329D01*
X37021685Y-32090357D01*
X37006394Y-32133091D01*
X36986989Y-32174121D01*
X36963655Y-32213051D01*
X36936617Y-32249507D01*
X36906137Y-32283137D01*
X36872507Y-32313617D01*
X36836051Y-32340655D01*
X36797121Y-32363989D01*
X36756091Y-32383394D01*
X36713357Y-32398685D01*
X36669329Y-32409713D01*
X36624433Y-32416373D01*
X36579100Y-32418600D01*
X34104100Y-32418600D01*
X34058767Y-32416373D01*
X34013871Y-32409713D01*
X33969843Y-32398685D01*
X33927109Y-32383394D01*
X33886079Y-32363989D01*
X33847149Y-32340655D01*
X33810693Y-32313617D01*
X33777063Y-32283137D01*
X33746583Y-32249507D01*
X33719545Y-32213051D01*
X33696211Y-32174121D01*
X33676806Y-32133091D01*
X33661515Y-32090357D01*
X33650487Y-32046329D01*
X33643827Y-32001433D01*
X33641600Y-31956100D01*
X33641600Y-31031100D01*
X33643827Y-30985767D01*
X33650487Y-30940871D01*
X33661515Y-30896843D01*
X33676806Y-30854109D01*
X33696211Y-30813079D01*
X33719545Y-30774149D01*
X33746583Y-30737693D01*
X33777063Y-30704063D01*
X33810693Y-30673583D01*
X33847149Y-30646545D01*
X33886079Y-30623211D01*
X33927109Y-30603806D01*
X33969843Y-30588515D01*
X34013871Y-30577487D01*
X34058767Y-30570827D01*
X34104100Y-30568600D01*
X36579100Y-30568600D01*
X36624433Y-30570827D01*
G37*
G04 #@! TD.AperFunction*
G04 #@! TA.AperFunction,SMDPad,CuDef*
G36*
X36624433Y-25020827D02*
G01*
X36669329Y-25027487D01*
X36713357Y-25038515D01*
X36756091Y-25053806D01*
X36797121Y-25073211D01*
X36836051Y-25096545D01*
X36872507Y-25123583D01*
X36906137Y-25154063D01*
X36936617Y-25187693D01*
X36963655Y-25224149D01*
X36986989Y-25263079D01*
X37006394Y-25304109D01*
X37021685Y-25346843D01*
X37032713Y-25390871D01*
X37039373Y-25435767D01*
X37041600Y-25481100D01*
X37041600Y-26406100D01*
X37039373Y-26451433D01*
X37032713Y-26496329D01*
X37021685Y-26540357D01*
X37006394Y-26583091D01*
X36986989Y-26624121D01*
X36963655Y-26663051D01*
X36936617Y-26699507D01*
X36906137Y-26733137D01*
X36872507Y-26763617D01*
X36836051Y-26790655D01*
X36797121Y-26813989D01*
X36756091Y-26833394D01*
X36713357Y-26848685D01*
X36669329Y-26859713D01*
X36624433Y-26866373D01*
X36579100Y-26868600D01*
X34104100Y-26868600D01*
X34058767Y-26866373D01*
X34013871Y-26859713D01*
X33969843Y-26848685D01*
X33927109Y-26833394D01*
X33886079Y-26813989D01*
X33847149Y-26790655D01*
X33810693Y-26763617D01*
X33777063Y-26733137D01*
X33746583Y-26699507D01*
X33719545Y-26663051D01*
X33696211Y-26624121D01*
X33676806Y-26583091D01*
X33661515Y-26540357D01*
X33650487Y-26496329D01*
X33643827Y-26451433D01*
X33641600Y-26406100D01*
X33641600Y-25481100D01*
X33643827Y-25435767D01*
X33650487Y-25390871D01*
X33661515Y-25346843D01*
X33676806Y-25304109D01*
X33696211Y-25263079D01*
X33719545Y-25224149D01*
X33746583Y-25187693D01*
X33777063Y-25154063D01*
X33810693Y-25123583D01*
X33847149Y-25096545D01*
X33886079Y-25073211D01*
X33927109Y-25053806D01*
X33969843Y-25038515D01*
X34013871Y-25027487D01*
X34058767Y-25020827D01*
X34104100Y-25018600D01*
X36579100Y-25018600D01*
X36624433Y-25020827D01*
G37*
G04 #@! TD.AperFunction*
D12*
X51640000Y-22651760D03*
X51640000Y-25191760D03*
X51640000Y-27731760D03*
D13*
X51640000Y-30271760D03*
D14*
X85672720Y-29514080D03*
X83672720Y-27514080D03*
X83672720Y-29514080D03*
X81672720Y-27514080D03*
X81672720Y-29514080D03*
D15*
X21985600Y-21466800D03*
X21985600Y-31466800D03*
X24485600Y-21466800D03*
X24485600Y-31466800D03*
D16*
X29485600Y-31466800D03*
X29485600Y-21466800D03*
D17*
X24485600Y-26466800D03*
D18*
X88325000Y-24250000D03*
X88325000Y-28750000D03*
X96275000Y-28750000D03*
X96275000Y-24250000D03*
X49260800Y-28863720D03*
X49260800Y-24363720D03*
X41310800Y-24363720D03*
X41310800Y-28863720D03*
D19*
X38160400Y-25574400D03*
X38160400Y-24474400D03*
X39360400Y-24474400D03*
X39360400Y-25574400D03*
X38160400Y-21974400D03*
X38160400Y-23174400D03*
X39360400Y-23174400D03*
X39360400Y-21974400D03*
D20*
X38760400Y-23774400D03*
D21*
X99674720Y-23916680D03*
D22*
X99674720Y-28996680D03*
D19*
X31620500Y-30871200D03*
X31023600Y-30871200D03*
X31023600Y-32065000D03*
X31023600Y-31468100D03*
X31620500Y-31468100D03*
X31620500Y-32065000D03*
X46035000Y-28382000D03*
X44155400Y-29194800D03*
X43342600Y-28382000D03*
X43342600Y-29194800D03*
X44155400Y-28382000D03*
X79964320Y-30622280D03*
X79115960Y-30612120D03*
X69692560Y-22575560D03*
X69758600Y-29906000D03*
X69763680Y-29260840D03*
X69768760Y-30556240D03*
X64805600Y-30515600D03*
X63942000Y-30515600D03*
X63078400Y-30515600D03*
X57388800Y-27823200D03*
X58252400Y-27823200D03*
X59116000Y-27823200D03*
X59979600Y-27823200D03*
X71353720Y-29911080D03*
X56454080Y-27807960D03*
X67934880Y-22611120D03*
X59979600Y-24622800D03*
X46263600Y-31379200D03*
X47127200Y-31379200D03*
X46263600Y-32242800D03*
X47127200Y-32242800D03*
X93030080Y-24511040D03*
X90459600Y-24521200D03*
X91323200Y-24521200D03*
X92186800Y-24521200D03*
X93497440Y-25257800D03*
X90866000Y-25283200D03*
X91780400Y-25283200D03*
X92644000Y-25283200D03*
X87299840Y-20624840D03*
X86446400Y-20629920D03*
X79461400Y-22590800D03*
X80312300Y-22590800D03*
X60894000Y-24622800D03*
X60436800Y-25384800D03*
X61402000Y-25384800D03*
X71353720Y-30551160D03*
X71348640Y-29265920D03*
X30922000Y-24470400D03*
X32395200Y-22692400D03*
X87297300Y-21498600D03*
X86446400Y-21485900D03*
X46847800Y-28382000D03*
X46035000Y-29194800D03*
X46847800Y-29194800D03*
X50124400Y-21371600D03*
X86202560Y-26477000D03*
X86827400Y-26471920D03*
X85582800Y-26464300D03*
X56980799Y-25629989D03*
X62593260Y-26946900D03*
X50231080Y-25882640D03*
X47421840Y-26471920D03*
X64554220Y-21875048D03*
X80172600Y-24394200D03*
X75095651Y-28486167D03*
X73842920Y-28559800D03*
X31353800Y-26578600D03*
X30718800Y-26578600D03*
X30718800Y-27772400D03*
X31328400Y-27772400D03*
X30718800Y-27175500D03*
X31328400Y-27175500D03*
X30871200Y-25588000D03*
X62316400Y-24419600D03*
X45095204Y-28382000D03*
X78186320Y-21320800D03*
X78902600Y-20914400D03*
X59166800Y-25571485D03*
X64135040Y-25506720D03*
X66979840Y-29443720D03*
X68901297Y-29368692D03*
D23*
X38491200Y-23505200D02*
X38760400Y-23774400D01*
D24*
X29961800Y-20990600D02*
X29485600Y-21466800D01*
X50124400Y-21371600D02*
X49743400Y-20990600D01*
X49743400Y-20990600D02*
X29961800Y-20990600D01*
D23*
X85182801Y-26064301D02*
X85582800Y-26464300D01*
X83122499Y-26064301D02*
X85182801Y-26064301D01*
X81672720Y-27514080D02*
X83122499Y-26064301D01*
X63670980Y-27514080D02*
X81672720Y-27514080D01*
X63103800Y-26946900D02*
X63670980Y-27514080D01*
X56980799Y-26932599D02*
X56980799Y-25629989D01*
X56995100Y-26946900D02*
X56980799Y-26932599D01*
X54686740Y-26946900D02*
X56954500Y-26946900D01*
X51549840Y-27731760D02*
X53901880Y-27731760D01*
X53901880Y-27731760D02*
X54686740Y-26946900D01*
X86819780Y-26464300D02*
X86827400Y-26471920D01*
X85582800Y-26464300D02*
X86819780Y-26464300D01*
X56995100Y-26946900D02*
X62593260Y-26946900D01*
X62593260Y-26946900D02*
X63103800Y-26946900D01*
D24*
X47426920Y-26477000D02*
X47421840Y-26471920D01*
X49641800Y-26477000D02*
X47426920Y-26477000D01*
X50231080Y-25882640D02*
X50231080Y-25887720D01*
X50231080Y-25887720D02*
X49641800Y-26477000D01*
X49260800Y-24363720D02*
X41310800Y-24363720D01*
X54462192Y-21875048D02*
X64554220Y-21875048D01*
X52379920Y-23957320D02*
X54462192Y-21875048D01*
X50285800Y-24363720D02*
X50692200Y-23957320D01*
X50692200Y-23957320D02*
X52379920Y-23957320D01*
X49260800Y-24363720D02*
X50285800Y-24363720D01*
X88325000Y-24063000D02*
X88325000Y-23760200D01*
X95809600Y-23784600D02*
X96275000Y-24250000D01*
X88325000Y-24250000D02*
X88790400Y-23784600D01*
X88790400Y-23784600D02*
X95809600Y-23784600D01*
X81455300Y-23111500D02*
X80227900Y-24338900D01*
X88325000Y-24250000D02*
X87186500Y-23111500D01*
X87186500Y-23111500D02*
X81455300Y-23111500D01*
X82700633Y-28486167D02*
X75095651Y-28486167D01*
X83672720Y-27514080D02*
X82700633Y-28486167D01*
X81302640Y-29144000D02*
X81672720Y-29514080D01*
X73842920Y-28559800D02*
X74427120Y-29144000D01*
X74427120Y-29144000D02*
X81302640Y-29144000D01*
X49900000Y-27400000D02*
X43300000Y-27400000D01*
X61706800Y-23810000D02*
X55763200Y-23810000D01*
X62316400Y-24419600D02*
X61706800Y-23810000D01*
X53116520Y-26456680D02*
X50843320Y-26456680D01*
X55763200Y-23810000D02*
X53116520Y-26456680D01*
X50843320Y-26456680D02*
X49900000Y-27400000D01*
X30805200Y-25654000D02*
X30871200Y-25588000D01*
X38796000Y-28529320D02*
X39270680Y-28529320D01*
X39270680Y-28529320D02*
X40400000Y-27400000D01*
X40400000Y-27400000D02*
X45002200Y-27400000D01*
X30368280Y-28524240D02*
X38790920Y-28524240D01*
X29926320Y-28082280D02*
X30368280Y-28524240D01*
X30480080Y-25654000D02*
X30805200Y-25654000D01*
X30480080Y-25654000D02*
X29926320Y-26207760D01*
X29926320Y-26207760D02*
X29926320Y-28082280D01*
X45095204Y-27957736D02*
X45095204Y-28382000D01*
X45044400Y-27442200D02*
X45095204Y-27493004D01*
X45095204Y-27493004D02*
X45095204Y-27957736D01*
X51640000Y-22651760D02*
X53534840Y-20756920D01*
X77622440Y-20756920D02*
X78186320Y-21320800D01*
X53534840Y-20756920D02*
X77622440Y-20756920D01*
X77886319Y-21945801D02*
X78486321Y-21945801D01*
X77561319Y-21620801D02*
X77886319Y-21945801D01*
X51993840Y-25191760D02*
X54681160Y-22504440D01*
X78486321Y-21945801D02*
X78902600Y-21529522D01*
X54681160Y-22504440D02*
X65847000Y-22504440D01*
X78902600Y-21529522D02*
X78902600Y-20914400D01*
X51640000Y-25191760D02*
X51993840Y-25191760D01*
X65847000Y-22504440D02*
X66730639Y-21620801D01*
X66730639Y-21620801D02*
X77561319Y-21620801D01*
X63093640Y-25506720D02*
X64135040Y-25506720D01*
X62453560Y-26146800D02*
X63093640Y-25506720D01*
X59166800Y-25571485D02*
X59742115Y-26146800D01*
X59742115Y-26146800D02*
X62453560Y-26146800D01*
X67054868Y-29368692D02*
X68901297Y-29368692D01*
X66979840Y-29443720D02*
X67054868Y-29368692D01*
D25*
G36*
X39075400Y-30485043D02*
G01*
X39075400Y-32648000D01*
X28067000Y-32648000D01*
X28067000Y-30480058D01*
X39075400Y-30485043D01*
G37*
X39075400Y-30485043D02*
X39075400Y-32648000D01*
X28067000Y-32648000D01*
X28067000Y-30480058D01*
X39075400Y-30485043D01*
G36*
X36941800Y-24995280D02*
G01*
X36941800Y-28008764D01*
X30518791Y-28016055D01*
X30527613Y-26388232D01*
X32803968Y-26390600D01*
X32806823Y-26390571D01*
X33515523Y-26375371D01*
X33540242Y-26372400D01*
X33563906Y-26364664D01*
X33585605Y-26352459D01*
X33604508Y-26336256D01*
X33619885Y-26316677D01*
X33631148Y-26294474D01*
X33637862Y-26270500D01*
X33639796Y-26247368D01*
X33629433Y-24971714D01*
X36941800Y-24995280D01*
G37*
X36941800Y-24995280D02*
X36941800Y-28008764D01*
X30518791Y-28016055D01*
X30527613Y-26388232D01*
X32803968Y-26390600D01*
X32806823Y-26390571D01*
X33515523Y-26375371D01*
X33540242Y-26372400D01*
X33563906Y-26364664D01*
X33585605Y-26352459D01*
X33604508Y-26336256D01*
X33619885Y-26316677D01*
X33631148Y-26294474D01*
X33637862Y-26270500D01*
X33639796Y-26247368D01*
X33629433Y-24971714D01*
X36941800Y-24995280D01*
G36*
X53282507Y-20379277D02*
G01*
X53213681Y-20435761D01*
X53199526Y-20453010D01*
X52050569Y-21601967D01*
X51968734Y-21568070D01*
X51751000Y-21524760D01*
X51529000Y-21524760D01*
X51311266Y-21568070D01*
X51106165Y-21653026D01*
X50921579Y-21776362D01*
X50764602Y-21933339D01*
X50641266Y-22117925D01*
X50556310Y-22323026D01*
X50513000Y-22540760D01*
X50513000Y-22762760D01*
X50556310Y-22980494D01*
X50641266Y-23185595D01*
X50764602Y-23370181D01*
X50899741Y-23505320D01*
X50714404Y-23505320D01*
X50692199Y-23503133D01*
X50603592Y-23511860D01*
X50583762Y-23517876D01*
X50518390Y-23537706D01*
X50439867Y-23579677D01*
X50371041Y-23636161D01*
X50358275Y-23651717D01*
X50358068Y-23649617D01*
X50339370Y-23587977D01*
X50309006Y-23531170D01*
X50268143Y-23481377D01*
X50218350Y-23440514D01*
X50161543Y-23410150D01*
X50099903Y-23391452D01*
X50035800Y-23385138D01*
X48485800Y-23385138D01*
X48421697Y-23391452D01*
X48360057Y-23410150D01*
X48303250Y-23440514D01*
X48253457Y-23481377D01*
X48212594Y-23531170D01*
X48182230Y-23587977D01*
X48163532Y-23649617D01*
X48157218Y-23713720D01*
X48157218Y-23911720D01*
X42414382Y-23911720D01*
X42414382Y-23713720D01*
X42408068Y-23649617D01*
X42389370Y-23587977D01*
X42359006Y-23531170D01*
X42318143Y-23481377D01*
X42268350Y-23440514D01*
X42211543Y-23410150D01*
X42149903Y-23391452D01*
X42085800Y-23385138D01*
X40535800Y-23385138D01*
X40471697Y-23391452D01*
X40410057Y-23410150D01*
X40353250Y-23440514D01*
X40303457Y-23481377D01*
X40262594Y-23531170D01*
X40232230Y-23587977D01*
X40213532Y-23649617D01*
X40207218Y-23713720D01*
X40207218Y-25013720D01*
X40213532Y-25077823D01*
X40232230Y-25139463D01*
X40262594Y-25196270D01*
X40303457Y-25246063D01*
X40353250Y-25286926D01*
X40410057Y-25317290D01*
X40471697Y-25335988D01*
X40535800Y-25342302D01*
X42085800Y-25342302D01*
X42149903Y-25335988D01*
X42211543Y-25317290D01*
X42268350Y-25286926D01*
X42318143Y-25246063D01*
X42359006Y-25196270D01*
X42389370Y-25139463D01*
X42408068Y-25077823D01*
X42414382Y-25013720D01*
X42414382Y-24815720D01*
X48157218Y-24815720D01*
X48157218Y-25013720D01*
X48163532Y-25077823D01*
X48182230Y-25139463D01*
X48212594Y-25196270D01*
X48253457Y-25246063D01*
X48303250Y-25286926D01*
X48360057Y-25317290D01*
X48421697Y-25335988D01*
X48485800Y-25342302D01*
X49911183Y-25342302D01*
X49831391Y-25395617D01*
X49744057Y-25482951D01*
X49675440Y-25585644D01*
X49628175Y-25699751D01*
X49604080Y-25820886D01*
X49604080Y-25875497D01*
X49454577Y-26025000D01*
X47861632Y-26025000D01*
X47821529Y-25984897D01*
X47718836Y-25916280D01*
X47604729Y-25869015D01*
X47483594Y-25844920D01*
X47360086Y-25844920D01*
X47238951Y-25869015D01*
X47124844Y-25916280D01*
X47022151Y-25984897D01*
X46934817Y-26072231D01*
X46866200Y-26174924D01*
X46818935Y-26289031D01*
X46794840Y-26410166D01*
X46794840Y-26533674D01*
X46818935Y-26654809D01*
X46866200Y-26768916D01*
X46934817Y-26871609D01*
X47011208Y-26948000D01*
X40422205Y-26948000D01*
X40400000Y-26945813D01*
X40311392Y-26954540D01*
X40233103Y-26978289D01*
X40226190Y-26980386D01*
X40147667Y-27022357D01*
X40078841Y-27078841D01*
X40064681Y-27096095D01*
X39083457Y-28077320D01*
X38864703Y-28077320D01*
X38813125Y-28072240D01*
X37395800Y-28072240D01*
X37395800Y-24869180D01*
X37389963Y-24807669D01*
X37371791Y-24746195D01*
X37341976Y-24689447D01*
X37301663Y-24639607D01*
X37252401Y-24598589D01*
X37196084Y-24567969D01*
X37134875Y-24548925D01*
X37071126Y-24542188D01*
X33503716Y-24516808D01*
X33434992Y-24523612D01*
X33373803Y-24542718D01*
X33317516Y-24573394D01*
X33268295Y-24614462D01*
X33228033Y-24664343D01*
X33198275Y-24721121D01*
X33180166Y-24782613D01*
X33174401Y-24846456D01*
X33183190Y-25928394D01*
X32800763Y-25936596D01*
X31393340Y-25935132D01*
X31426840Y-25884996D01*
X31474105Y-25770889D01*
X31498200Y-25649754D01*
X31498200Y-25526246D01*
X31474105Y-25405111D01*
X31426840Y-25291004D01*
X31358223Y-25188311D01*
X31270889Y-25100977D01*
X31168196Y-25032360D01*
X31054089Y-24985095D01*
X30932954Y-24961000D01*
X30809446Y-24961000D01*
X30688311Y-24985095D01*
X30574204Y-25032360D01*
X30471511Y-25100977D01*
X30384177Y-25188311D01*
X30365370Y-25216458D01*
X30325403Y-25228582D01*
X30306270Y-25234386D01*
X30227747Y-25276357D01*
X30158921Y-25332841D01*
X30144761Y-25350095D01*
X29622420Y-25872437D01*
X29605161Y-25886601D01*
X29548677Y-25955428D01*
X29522352Y-26004680D01*
X29506706Y-26033951D01*
X29480860Y-26119153D01*
X29472133Y-26207760D01*
X29474320Y-26229965D01*
X29474321Y-28060065D01*
X29472133Y-28082280D01*
X29480860Y-28170887D01*
X29506706Y-28256089D01*
X29539419Y-28317291D01*
X29548678Y-28334613D01*
X29605162Y-28403439D01*
X29622416Y-28417599D01*
X30032961Y-28828145D01*
X30047121Y-28845399D01*
X30115947Y-28901883D01*
X30155739Y-28923152D01*
X30194470Y-28943854D01*
X30279672Y-28969700D01*
X30368280Y-28978427D01*
X30390485Y-28976240D01*
X38722217Y-28976240D01*
X38773795Y-28981320D01*
X39248475Y-28981320D01*
X39270680Y-28983507D01*
X39292885Y-28981320D01*
X39359287Y-28974780D01*
X39444490Y-28948934D01*
X39523013Y-28906963D01*
X39591839Y-28850479D01*
X39606003Y-28833220D01*
X40587224Y-27852000D01*
X44643205Y-27852000D01*
X44643205Y-27935523D01*
X44643204Y-27935532D01*
X44643204Y-27947288D01*
X44608181Y-27982311D01*
X44539564Y-28085004D01*
X44492299Y-28199111D01*
X44468204Y-28320246D01*
X44468204Y-28443754D01*
X44492299Y-28564889D01*
X44539564Y-28678996D01*
X44608181Y-28781689D01*
X44695515Y-28869023D01*
X44798208Y-28937640D01*
X44912315Y-28984905D01*
X45033450Y-29009000D01*
X45156958Y-29009000D01*
X45278093Y-28984905D01*
X45392200Y-28937640D01*
X45494893Y-28869023D01*
X45582227Y-28781689D01*
X45650844Y-28678996D01*
X45698109Y-28564889D01*
X45722204Y-28443754D01*
X45722204Y-28320246D01*
X45698109Y-28199111D01*
X45650844Y-28085004D01*
X45582227Y-27982311D01*
X45547204Y-27947288D01*
X45547204Y-27852000D01*
X49877795Y-27852000D01*
X49900000Y-27854187D01*
X49922205Y-27852000D01*
X49988607Y-27845460D01*
X50073810Y-27819614D01*
X50152333Y-27777643D01*
X50221159Y-27721159D01*
X50235323Y-27703900D01*
X50570532Y-27368691D01*
X50556310Y-27403026D01*
X50513000Y-27620760D01*
X50513000Y-27842760D01*
X50556310Y-28060494D01*
X50641266Y-28265595D01*
X50764602Y-28450181D01*
X50921579Y-28607158D01*
X51106165Y-28730494D01*
X51311266Y-28815450D01*
X51529000Y-28858760D01*
X51751000Y-28858760D01*
X51968734Y-28815450D01*
X52173835Y-28730494D01*
X52358421Y-28607158D01*
X52515398Y-28450181D01*
X52609892Y-28308760D01*
X53873549Y-28308760D01*
X53901880Y-28311550D01*
X53930211Y-28308760D01*
X53930216Y-28308760D01*
X53959925Y-28305834D01*
X54014991Y-28300411D01*
X54059650Y-28286863D01*
X54123756Y-28267417D01*
X54223995Y-28213839D01*
X54311854Y-28141734D01*
X54329919Y-28119722D01*
X54925741Y-27523900D01*
X56966761Y-27523900D01*
X56995100Y-27526691D01*
X57023439Y-27523900D01*
X62347831Y-27523900D01*
X62410371Y-27549805D01*
X62531506Y-27573900D01*
X62655014Y-27573900D01*
X62776149Y-27549805D01*
X62838689Y-27523900D01*
X62864799Y-27523900D01*
X63242941Y-27902042D01*
X63261006Y-27924054D01*
X63348865Y-27996159D01*
X63449104Y-28049737D01*
X63493762Y-28063284D01*
X63557868Y-28082731D01*
X63670980Y-28093871D01*
X63699319Y-28091080D01*
X73424928Y-28091080D01*
X73355897Y-28160111D01*
X73287280Y-28262804D01*
X73240015Y-28376911D01*
X73215920Y-28498046D01*
X73215920Y-28621554D01*
X73240015Y-28742689D01*
X73287280Y-28856796D01*
X73355897Y-28959489D01*
X73443231Y-29046823D01*
X73545924Y-29115440D01*
X73660031Y-29162705D01*
X73781166Y-29186800D01*
X73830696Y-29186800D01*
X74091801Y-29447905D01*
X74105961Y-29465159D01*
X74174787Y-29521643D01*
X74230798Y-29551581D01*
X74253310Y-29563614D01*
X74338512Y-29589460D01*
X74427120Y-29598187D01*
X74449325Y-29596000D01*
X80745720Y-29596000D01*
X80745720Y-29605381D01*
X80781344Y-29784476D01*
X80851224Y-29953179D01*
X80952672Y-30105008D01*
X81081792Y-30234128D01*
X81233621Y-30335576D01*
X81402324Y-30405456D01*
X81581419Y-30441080D01*
X81764021Y-30441080D01*
X81943116Y-30405456D01*
X82111819Y-30335576D01*
X82263648Y-30234128D01*
X82392768Y-30105008D01*
X82494216Y-29953179D01*
X82564096Y-29784476D01*
X82599720Y-29605381D01*
X82599720Y-29422779D01*
X84745720Y-29422779D01*
X84745720Y-29605381D01*
X84781344Y-29784476D01*
X84851224Y-29953179D01*
X84952672Y-30105008D01*
X85081792Y-30234128D01*
X85233621Y-30335576D01*
X85402324Y-30405456D01*
X85581419Y-30441080D01*
X85764021Y-30441080D01*
X85943116Y-30405456D01*
X86111819Y-30335576D01*
X86263648Y-30234128D01*
X86392768Y-30105008D01*
X86494216Y-29953179D01*
X86564096Y-29784476D01*
X86599720Y-29605381D01*
X86599720Y-29422779D01*
X86564096Y-29243684D01*
X86494216Y-29074981D01*
X86392768Y-28923152D01*
X86263648Y-28794032D01*
X86111819Y-28692584D01*
X85943116Y-28622704D01*
X85764021Y-28587080D01*
X85581419Y-28587080D01*
X85402324Y-28622704D01*
X85233621Y-28692584D01*
X85081792Y-28794032D01*
X84952672Y-28923152D01*
X84851224Y-29074981D01*
X84781344Y-29243684D01*
X84745720Y-29422779D01*
X82599720Y-29422779D01*
X82564096Y-29243684D01*
X82494216Y-29074981D01*
X82402801Y-28938167D01*
X82678428Y-28938167D01*
X82700633Y-28940354D01*
X82722838Y-28938167D01*
X82789240Y-28931627D01*
X82874443Y-28905781D01*
X82952966Y-28863810D01*
X83021792Y-28807326D01*
X83035956Y-28790067D01*
X83417541Y-28408483D01*
X83581419Y-28441080D01*
X83764021Y-28441080D01*
X83943116Y-28405456D01*
X84111819Y-28335576D01*
X84263648Y-28234128D01*
X84392768Y-28105008D01*
X84494216Y-27953179D01*
X84564096Y-27784476D01*
X84599720Y-27605381D01*
X84599720Y-27422779D01*
X84564096Y-27243684D01*
X84494216Y-27074981D01*
X84392768Y-26923152D01*
X84263648Y-26794032D01*
X84111819Y-26692584D01*
X83988013Y-26641301D01*
X84943800Y-26641301D01*
X85001255Y-26698757D01*
X85027160Y-26761296D01*
X85095777Y-26863989D01*
X85183111Y-26951323D01*
X85285804Y-27019940D01*
X85399911Y-27067205D01*
X85521046Y-27091300D01*
X85644554Y-27091300D01*
X85765689Y-27067205D01*
X85828229Y-27041300D01*
X85926471Y-27041300D01*
X86019671Y-27079905D01*
X86140806Y-27104000D01*
X86264314Y-27104000D01*
X86385449Y-27079905D01*
X86478649Y-27041300D01*
X86563575Y-27041300D01*
X86644511Y-27074825D01*
X86765646Y-27098920D01*
X86889154Y-27098920D01*
X87010289Y-27074825D01*
X87124396Y-27027560D01*
X87227089Y-26958943D01*
X87314423Y-26871609D01*
X87383040Y-26768916D01*
X87430305Y-26654809D01*
X87454400Y-26533674D01*
X87454400Y-26410166D01*
X87430305Y-26289031D01*
X87383040Y-26174924D01*
X87314423Y-26072231D01*
X87227089Y-25984897D01*
X87124396Y-25916280D01*
X87010289Y-25869015D01*
X86889154Y-25844920D01*
X86765646Y-25844920D01*
X86644511Y-25869015D01*
X86600367Y-25887300D01*
X86417328Y-25887300D01*
X86385449Y-25874095D01*
X86264314Y-25850000D01*
X86140806Y-25850000D01*
X86019671Y-25874095D01*
X85987792Y-25887300D01*
X85828229Y-25887300D01*
X85817257Y-25882755D01*
X85610840Y-25676339D01*
X85592775Y-25654327D01*
X85504916Y-25582222D01*
X85404677Y-25528644D01*
X85332403Y-25506720D01*
X85295912Y-25495650D01*
X85240846Y-25490227D01*
X85211137Y-25487301D01*
X85211132Y-25487301D01*
X85182801Y-25484511D01*
X85154470Y-25487301D01*
X83150827Y-25487301D01*
X83122498Y-25484511D01*
X83094169Y-25487301D01*
X83094163Y-25487301D01*
X83009387Y-25495651D01*
X82900623Y-25528644D01*
X82800384Y-25582222D01*
X82784415Y-25595328D01*
X82734534Y-25636264D01*
X82734532Y-25636266D01*
X82712525Y-25654327D01*
X82694464Y-25676334D01*
X81780451Y-26590348D01*
X81764021Y-26587080D01*
X81581419Y-26587080D01*
X81402324Y-26622704D01*
X81233621Y-26692584D01*
X81081792Y-26794032D01*
X80952672Y-26923152D01*
X80943366Y-26937080D01*
X63909981Y-26937080D01*
X63531838Y-26558937D01*
X63513774Y-26536926D01*
X63425915Y-26464821D01*
X63325676Y-26411243D01*
X63261570Y-26391797D01*
X63216911Y-26378249D01*
X63161845Y-26372826D01*
X63132136Y-26369900D01*
X63132131Y-26369900D01*
X63103800Y-26367110D01*
X63075469Y-26369900D01*
X62869683Y-26369900D01*
X63280864Y-25958720D01*
X63700328Y-25958720D01*
X63735351Y-25993743D01*
X63838044Y-26062360D01*
X63952151Y-26109625D01*
X64073286Y-26133720D01*
X64196794Y-26133720D01*
X64317929Y-26109625D01*
X64432036Y-26062360D01*
X64534729Y-25993743D01*
X64622063Y-25906409D01*
X64690680Y-25803716D01*
X64737945Y-25689609D01*
X64762040Y-25568474D01*
X64762040Y-25444966D01*
X64737945Y-25323831D01*
X64690680Y-25209724D01*
X64622063Y-25107031D01*
X64534729Y-25019697D01*
X64432036Y-24951080D01*
X64317929Y-24903815D01*
X64196794Y-24879720D01*
X64073286Y-24879720D01*
X63952151Y-24903815D01*
X63838044Y-24951080D01*
X63735351Y-25019697D01*
X63700328Y-25054720D01*
X63115845Y-25054720D01*
X63093640Y-25052533D01*
X63005032Y-25061260D01*
X62961884Y-25074349D01*
X62919830Y-25087106D01*
X62841307Y-25129077D01*
X62772481Y-25185561D01*
X62758321Y-25202815D01*
X62266337Y-25694800D01*
X59929340Y-25694800D01*
X59793800Y-25559261D01*
X59793800Y-25509731D01*
X59769705Y-25388596D01*
X59722440Y-25274489D01*
X59653823Y-25171796D01*
X59566489Y-25084462D01*
X59463796Y-25015845D01*
X59349689Y-24968580D01*
X59228554Y-24944485D01*
X59105046Y-24944485D01*
X58983911Y-24968580D01*
X58869804Y-25015845D01*
X58767111Y-25084462D01*
X58679777Y-25171796D01*
X58611160Y-25274489D01*
X58563895Y-25388596D01*
X58539800Y-25509731D01*
X58539800Y-25633239D01*
X58563895Y-25754374D01*
X58611160Y-25868481D01*
X58679777Y-25971174D01*
X58767111Y-26058508D01*
X58869804Y-26127125D01*
X58983911Y-26174390D01*
X59105046Y-26198485D01*
X59154576Y-26198485D01*
X59325990Y-26369900D01*
X57557799Y-26369900D01*
X57557799Y-25875418D01*
X57583704Y-25812878D01*
X57607799Y-25691743D01*
X57607799Y-25568235D01*
X57583704Y-25447100D01*
X57536439Y-25332993D01*
X57467822Y-25230300D01*
X57380488Y-25142966D01*
X57277795Y-25074349D01*
X57163688Y-25027084D01*
X57042553Y-25002989D01*
X56919045Y-25002989D01*
X56797910Y-25027084D01*
X56683803Y-25074349D01*
X56581110Y-25142966D01*
X56493776Y-25230300D01*
X56425159Y-25332993D01*
X56377894Y-25447100D01*
X56353799Y-25568235D01*
X56353799Y-25691743D01*
X56377894Y-25812878D01*
X56403800Y-25875420D01*
X56403799Y-26369900D01*
X54715079Y-26369900D01*
X54686740Y-26367109D01*
X54573628Y-26378249D01*
X54516066Y-26395711D01*
X54464864Y-26411243D01*
X54364625Y-26464821D01*
X54276766Y-26536926D01*
X54258702Y-26558937D01*
X53662879Y-27154760D01*
X52609892Y-27154760D01*
X52515398Y-27013339D01*
X52410739Y-26908680D01*
X53094315Y-26908680D01*
X53116520Y-26910867D01*
X53138725Y-26908680D01*
X53205127Y-26902140D01*
X53290330Y-26876294D01*
X53368853Y-26834323D01*
X53437679Y-26777839D01*
X53451843Y-26760580D01*
X55950424Y-24262000D01*
X61519577Y-24262000D01*
X61689400Y-24431823D01*
X61689400Y-24481354D01*
X61713495Y-24602489D01*
X61760760Y-24716596D01*
X61829377Y-24819289D01*
X61916711Y-24906623D01*
X62019404Y-24975240D01*
X62133511Y-25022505D01*
X62254646Y-25046600D01*
X62378154Y-25046600D01*
X62499289Y-25022505D01*
X62613396Y-24975240D01*
X62716089Y-24906623D01*
X62803423Y-24819289D01*
X62872040Y-24716596D01*
X62919305Y-24602489D01*
X62943400Y-24481354D01*
X62943400Y-24357846D01*
X62938348Y-24332446D01*
X79545600Y-24332446D01*
X79545600Y-24455954D01*
X79569695Y-24577089D01*
X79616960Y-24691196D01*
X79685577Y-24793889D01*
X79772911Y-24881223D01*
X79875604Y-24949840D01*
X79989711Y-24997105D01*
X80110846Y-25021200D01*
X80234354Y-25021200D01*
X80355489Y-24997105D01*
X80469596Y-24949840D01*
X80572289Y-24881223D01*
X80659623Y-24793889D01*
X80728240Y-24691196D01*
X80775505Y-24577089D01*
X80799600Y-24455954D01*
X80799600Y-24406423D01*
X81642524Y-23563500D01*
X86999277Y-23563500D01*
X87221418Y-23785642D01*
X87221418Y-24900000D01*
X87227732Y-24964103D01*
X87246430Y-25025743D01*
X87276794Y-25082550D01*
X87317657Y-25132343D01*
X87367450Y-25173206D01*
X87424257Y-25203570D01*
X87485897Y-25222268D01*
X87550000Y-25228582D01*
X89100000Y-25228582D01*
X89164103Y-25222268D01*
X89225743Y-25203570D01*
X89282550Y-25173206D01*
X89332343Y-25132343D01*
X89373206Y-25082550D01*
X89403570Y-25025743D01*
X89422268Y-24964103D01*
X89428582Y-24900000D01*
X89428582Y-24236600D01*
X95171418Y-24236600D01*
X95171418Y-24900000D01*
X95177732Y-24964103D01*
X95196430Y-25025743D01*
X95226794Y-25082550D01*
X95267657Y-25132343D01*
X95317450Y-25173206D01*
X95374257Y-25203570D01*
X95435897Y-25222268D01*
X95500000Y-25228582D01*
X97050000Y-25228582D01*
X97114103Y-25222268D01*
X97175743Y-25203570D01*
X97232550Y-25173206D01*
X97282343Y-25132343D01*
X97323206Y-25082550D01*
X97353570Y-25025743D01*
X97372268Y-24964103D01*
X97378582Y-24900000D01*
X97378582Y-23600000D01*
X97372268Y-23535897D01*
X97353570Y-23474257D01*
X97323206Y-23417450D01*
X97282343Y-23367657D01*
X97232550Y-23326794D01*
X97175743Y-23296430D01*
X97114103Y-23277732D01*
X97050000Y-23271418D01*
X95500000Y-23271418D01*
X95435897Y-23277732D01*
X95374257Y-23296430D01*
X95317450Y-23326794D01*
X95310375Y-23332600D01*
X89289625Y-23332600D01*
X89282550Y-23326794D01*
X89225743Y-23296430D01*
X89164103Y-23277732D01*
X89100000Y-23271418D01*
X87985642Y-23271418D01*
X87521823Y-22807600D01*
X87507659Y-22790341D01*
X87438833Y-22733857D01*
X87360310Y-22691886D01*
X87275107Y-22666040D01*
X87208705Y-22659500D01*
X87186500Y-22657313D01*
X87164295Y-22659500D01*
X81477505Y-22659500D01*
X81455300Y-22657313D01*
X81366692Y-22666040D01*
X81281490Y-22691886D01*
X81202967Y-22733857D01*
X81134141Y-22790341D01*
X81119981Y-22807595D01*
X80160377Y-23767200D01*
X80110846Y-23767200D01*
X79989711Y-23791295D01*
X79875604Y-23838560D01*
X79772911Y-23907177D01*
X79685577Y-23994511D01*
X79616960Y-24097204D01*
X79569695Y-24211311D01*
X79545600Y-24332446D01*
X62938348Y-24332446D01*
X62919305Y-24236711D01*
X62872040Y-24122604D01*
X62803423Y-24019911D01*
X62716089Y-23932577D01*
X62613396Y-23863960D01*
X62499289Y-23816695D01*
X62378154Y-23792600D01*
X62328623Y-23792600D01*
X62042123Y-23506100D01*
X62027959Y-23488841D01*
X61959133Y-23432357D01*
X61880610Y-23390386D01*
X61795407Y-23364540D01*
X61729005Y-23358000D01*
X61706800Y-23355813D01*
X61684595Y-23358000D01*
X55785405Y-23358000D01*
X55763200Y-23355813D01*
X55674592Y-23364540D01*
X55606690Y-23385138D01*
X55589390Y-23390386D01*
X55510867Y-23432357D01*
X55442041Y-23488841D01*
X55427881Y-23506095D01*
X52929297Y-26004680D01*
X52420899Y-26004680D01*
X52515398Y-25910181D01*
X52638734Y-25725595D01*
X52723690Y-25520494D01*
X52767000Y-25302760D01*
X52767000Y-25080760D01*
X52763195Y-25061629D01*
X54868385Y-22956440D01*
X65824795Y-22956440D01*
X65847000Y-22958627D01*
X65869205Y-22956440D01*
X65935607Y-22949900D01*
X66020810Y-22924054D01*
X66099333Y-22882083D01*
X66168159Y-22825599D01*
X66182323Y-22808340D01*
X66917864Y-22072801D01*
X77374095Y-22072801D01*
X77551004Y-22249711D01*
X77565160Y-22266960D01*
X77633986Y-22323444D01*
X77712509Y-22365415D01*
X77777881Y-22385245D01*
X77797711Y-22391261D01*
X77886318Y-22399988D01*
X77908523Y-22397801D01*
X78464116Y-22397801D01*
X78486321Y-22399988D01*
X78508526Y-22397801D01*
X78574928Y-22391261D01*
X78660131Y-22365415D01*
X78738654Y-22323444D01*
X78807480Y-22266960D01*
X78821644Y-22249701D01*
X79206511Y-21864836D01*
X79223759Y-21850681D01*
X79280243Y-21781855D01*
X79322214Y-21703332D01*
X79342044Y-21637960D01*
X79348060Y-21618130D01*
X79356787Y-21529523D01*
X79354600Y-21507318D01*
X79354600Y-21349112D01*
X79389623Y-21314089D01*
X79458240Y-21211396D01*
X79505505Y-21097289D01*
X79529600Y-20976154D01*
X79529600Y-20852646D01*
X79505505Y-20731511D01*
X79458240Y-20617404D01*
X79389623Y-20514711D01*
X79302289Y-20427377D01*
X79199596Y-20358760D01*
X79183276Y-20352000D01*
X101648000Y-20352000D01*
X101648001Y-27006791D01*
X101607330Y-26973414D01*
X101550523Y-26943050D01*
X101488883Y-26924352D01*
X101424780Y-26918038D01*
X97924660Y-26918038D01*
X97860557Y-26924352D01*
X97798917Y-26943050D01*
X97742110Y-26973414D01*
X97692317Y-27014277D01*
X97651454Y-27064070D01*
X97621090Y-27120877D01*
X97602392Y-27182517D01*
X97596078Y-27246620D01*
X97596078Y-30746740D01*
X97602392Y-30810843D01*
X97621090Y-30872483D01*
X97651454Y-30929290D01*
X97692317Y-30979083D01*
X97742110Y-31019946D01*
X97798917Y-31050310D01*
X97860557Y-31069008D01*
X97924660Y-31075322D01*
X101424780Y-31075322D01*
X101488883Y-31069008D01*
X101550523Y-31050310D01*
X101607330Y-31019946D01*
X101648001Y-30986569D01*
X101648001Y-32648000D01*
X39529400Y-32648000D01*
X39529400Y-30358100D01*
X39523146Y-30294451D01*
X39504565Y-30233099D01*
X39474373Y-30176552D01*
X39433729Y-30126981D01*
X39384195Y-30086292D01*
X39327674Y-30056048D01*
X39266340Y-30037412D01*
X39202548Y-30031100D01*
X27940148Y-30026000D01*
X27876205Y-30032283D01*
X27814863Y-30050891D01*
X27758329Y-30081109D01*
X27708776Y-30121776D01*
X27668109Y-30171329D01*
X27637891Y-30227863D01*
X27619283Y-30289205D01*
X27613000Y-30353000D01*
X27613000Y-32648000D01*
X21352000Y-32648000D01*
X21352000Y-32179530D01*
X21378736Y-32206266D01*
X21534659Y-32310451D01*
X21707912Y-32382215D01*
X21891836Y-32418800D01*
X22079364Y-32418800D01*
X22263288Y-32382215D01*
X22436541Y-32310451D01*
X22592464Y-32206266D01*
X22725066Y-32073664D01*
X22829251Y-31917741D01*
X22901015Y-31744488D01*
X22937600Y-31560564D01*
X22937600Y-31373036D01*
X23533600Y-31373036D01*
X23533600Y-31560564D01*
X23570185Y-31744488D01*
X23641949Y-31917741D01*
X23746134Y-32073664D01*
X23878736Y-32206266D01*
X24034659Y-32310451D01*
X24207912Y-32382215D01*
X24391836Y-32418800D01*
X24579364Y-32418800D01*
X24763288Y-32382215D01*
X24936541Y-32310451D01*
X25092464Y-32206266D01*
X25225066Y-32073664D01*
X25329251Y-31917741D01*
X25401015Y-31744488D01*
X25437600Y-31560564D01*
X25437600Y-31373036D01*
X25401015Y-31189112D01*
X25329251Y-31015859D01*
X25225066Y-30859936D01*
X25092464Y-30727334D01*
X24936541Y-30623149D01*
X24763288Y-30551385D01*
X24579364Y-30514800D01*
X24391836Y-30514800D01*
X24207912Y-30551385D01*
X24034659Y-30623149D01*
X23878736Y-30727334D01*
X23746134Y-30859936D01*
X23641949Y-31015859D01*
X23570185Y-31189112D01*
X23533600Y-31373036D01*
X22937600Y-31373036D01*
X22901015Y-31189112D01*
X22829251Y-31015859D01*
X22725066Y-30859936D01*
X22592464Y-30727334D01*
X22436541Y-30623149D01*
X22263288Y-30551385D01*
X22079364Y-30514800D01*
X21891836Y-30514800D01*
X21707912Y-30551385D01*
X21534659Y-30623149D01*
X21378736Y-30727334D01*
X21352000Y-30754070D01*
X21352000Y-29381966D01*
X66352840Y-29381966D01*
X66352840Y-29505474D01*
X66376935Y-29626609D01*
X66424200Y-29740716D01*
X66492817Y-29843409D01*
X66580151Y-29930743D01*
X66682844Y-29999360D01*
X66796951Y-30046625D01*
X66918086Y-30070720D01*
X67041594Y-30070720D01*
X67162729Y-30046625D01*
X67276836Y-29999360D01*
X67379529Y-29930743D01*
X67466863Y-29843409D01*
X67482042Y-29820692D01*
X68466585Y-29820692D01*
X68501608Y-29855715D01*
X68604301Y-29924332D01*
X68718408Y-29971597D01*
X68839543Y-29995692D01*
X68963051Y-29995692D01*
X69084186Y-29971597D01*
X69198293Y-29924332D01*
X69300986Y-29855715D01*
X69388320Y-29768381D01*
X69456937Y-29665688D01*
X69504202Y-29551581D01*
X69528297Y-29430446D01*
X69528297Y-29306938D01*
X69504202Y-29185803D01*
X69456937Y-29071696D01*
X69388320Y-28969003D01*
X69300986Y-28881669D01*
X69198293Y-28813052D01*
X69084186Y-28765787D01*
X68963051Y-28741692D01*
X68839543Y-28741692D01*
X68718408Y-28765787D01*
X68604301Y-28813052D01*
X68501608Y-28881669D01*
X68466585Y-28916692D01*
X67319657Y-28916692D01*
X67276836Y-28888080D01*
X67162729Y-28840815D01*
X67041594Y-28816720D01*
X66918086Y-28816720D01*
X66796951Y-28840815D01*
X66682844Y-28888080D01*
X66580151Y-28956697D01*
X66492817Y-29044031D01*
X66424200Y-29146724D01*
X66376935Y-29260831D01*
X66352840Y-29381966D01*
X21352000Y-29381966D01*
X21352000Y-22179530D01*
X21378736Y-22206266D01*
X21534659Y-22310451D01*
X21707912Y-22382215D01*
X21891836Y-22418800D01*
X22079364Y-22418800D01*
X22263288Y-22382215D01*
X22436541Y-22310451D01*
X22592464Y-22206266D01*
X22725066Y-22073664D01*
X22829251Y-21917741D01*
X22901015Y-21744488D01*
X22937600Y-21560564D01*
X22937600Y-21373036D01*
X23533600Y-21373036D01*
X23533600Y-21560564D01*
X23570185Y-21744488D01*
X23641949Y-21917741D01*
X23746134Y-22073664D01*
X23878736Y-22206266D01*
X24034659Y-22310451D01*
X24207912Y-22382215D01*
X24391836Y-22418800D01*
X24579364Y-22418800D01*
X24763288Y-22382215D01*
X24936541Y-22310451D01*
X25092464Y-22206266D01*
X25225066Y-22073664D01*
X25329251Y-21917741D01*
X25401015Y-21744488D01*
X25437600Y-21560564D01*
X25437600Y-21373036D01*
X25401015Y-21189112D01*
X25329251Y-21015859D01*
X25229653Y-20866800D01*
X28157018Y-20866800D01*
X28157018Y-22066800D01*
X28163332Y-22130903D01*
X28182030Y-22192543D01*
X28212394Y-22249350D01*
X28253257Y-22299143D01*
X28303050Y-22340006D01*
X28359857Y-22370370D01*
X28421497Y-22389068D01*
X28485600Y-22395382D01*
X30485600Y-22395382D01*
X30549703Y-22389068D01*
X30611343Y-22370370D01*
X30668150Y-22340006D01*
X30717943Y-22299143D01*
X30758806Y-22249350D01*
X30789170Y-22192543D01*
X30807868Y-22130903D01*
X30814182Y-22066800D01*
X30814182Y-21442600D01*
X49499239Y-21442600D01*
X49521495Y-21554489D01*
X49568760Y-21668596D01*
X49637377Y-21771289D01*
X49724711Y-21858623D01*
X49827404Y-21927240D01*
X49941511Y-21974505D01*
X50062646Y-21998600D01*
X50186154Y-21998600D01*
X50307289Y-21974505D01*
X50421396Y-21927240D01*
X50524089Y-21858623D01*
X50611423Y-21771289D01*
X50680040Y-21668596D01*
X50727305Y-21554489D01*
X50751400Y-21433354D01*
X50751400Y-21309846D01*
X50727305Y-21188711D01*
X50680040Y-21074604D01*
X50611423Y-20971911D01*
X50524089Y-20884577D01*
X50421396Y-20815960D01*
X50307289Y-20768695D01*
X50186154Y-20744600D01*
X50136623Y-20744600D01*
X50078723Y-20686700D01*
X50064559Y-20669441D01*
X49995733Y-20612957D01*
X49917210Y-20570986D01*
X49832007Y-20545140D01*
X49765605Y-20538600D01*
X49743400Y-20536413D01*
X49721195Y-20538600D01*
X30489478Y-20538600D01*
X30485600Y-20538218D01*
X29980124Y-20538218D01*
X29961799Y-20536413D01*
X29943475Y-20538218D01*
X28485600Y-20538218D01*
X28421497Y-20544532D01*
X28359857Y-20563230D01*
X28303050Y-20593594D01*
X28253257Y-20634457D01*
X28212394Y-20684250D01*
X28182030Y-20741057D01*
X28163332Y-20802697D01*
X28157018Y-20866800D01*
X25229653Y-20866800D01*
X25225066Y-20859936D01*
X25092464Y-20727334D01*
X24936541Y-20623149D01*
X24763288Y-20551385D01*
X24579364Y-20514800D01*
X24391836Y-20514800D01*
X24207912Y-20551385D01*
X24034659Y-20623149D01*
X23878736Y-20727334D01*
X23746134Y-20859936D01*
X23641949Y-21015859D01*
X23570185Y-21189112D01*
X23533600Y-21373036D01*
X22937600Y-21373036D01*
X22901015Y-21189112D01*
X22829251Y-21015859D01*
X22725066Y-20859936D01*
X22592464Y-20727334D01*
X22436541Y-20623149D01*
X22263288Y-20551385D01*
X22079364Y-20514800D01*
X21891836Y-20514800D01*
X21707912Y-20551385D01*
X21534659Y-20623149D01*
X21378736Y-20727334D01*
X21352000Y-20754070D01*
X21352000Y-20352000D01*
X53333539Y-20352000D01*
X53282507Y-20379277D01*
G37*
X53282507Y-20379277D02*
X53213681Y-20435761D01*
X53199526Y-20453010D01*
X52050569Y-21601967D01*
X51968734Y-21568070D01*
X51751000Y-21524760D01*
X51529000Y-21524760D01*
X51311266Y-21568070D01*
X51106165Y-21653026D01*
X50921579Y-21776362D01*
X50764602Y-21933339D01*
X50641266Y-22117925D01*
X50556310Y-22323026D01*
X50513000Y-22540760D01*
X50513000Y-22762760D01*
X50556310Y-22980494D01*
X50641266Y-23185595D01*
X50764602Y-23370181D01*
X50899741Y-23505320D01*
X50714404Y-23505320D01*
X50692199Y-23503133D01*
X50603592Y-23511860D01*
X50583762Y-23517876D01*
X50518390Y-23537706D01*
X50439867Y-23579677D01*
X50371041Y-23636161D01*
X50358275Y-23651717D01*
X50358068Y-23649617D01*
X50339370Y-23587977D01*
X50309006Y-23531170D01*
X50268143Y-23481377D01*
X50218350Y-23440514D01*
X50161543Y-23410150D01*
X50099903Y-23391452D01*
X50035800Y-23385138D01*
X48485800Y-23385138D01*
X48421697Y-23391452D01*
X48360057Y-23410150D01*
X48303250Y-23440514D01*
X48253457Y-23481377D01*
X48212594Y-23531170D01*
X48182230Y-23587977D01*
X48163532Y-23649617D01*
X48157218Y-23713720D01*
X48157218Y-23911720D01*
X42414382Y-23911720D01*
X42414382Y-23713720D01*
X42408068Y-23649617D01*
X42389370Y-23587977D01*
X42359006Y-23531170D01*
X42318143Y-23481377D01*
X42268350Y-23440514D01*
X42211543Y-23410150D01*
X42149903Y-23391452D01*
X42085800Y-23385138D01*
X40535800Y-23385138D01*
X40471697Y-23391452D01*
X40410057Y-23410150D01*
X40353250Y-23440514D01*
X40303457Y-23481377D01*
X40262594Y-23531170D01*
X40232230Y-23587977D01*
X40213532Y-23649617D01*
X40207218Y-23713720D01*
X40207218Y-25013720D01*
X40213532Y-25077823D01*
X40232230Y-25139463D01*
X40262594Y-25196270D01*
X40303457Y-25246063D01*
X40353250Y-25286926D01*
X40410057Y-25317290D01*
X40471697Y-25335988D01*
X40535800Y-25342302D01*
X42085800Y-25342302D01*
X42149903Y-25335988D01*
X42211543Y-25317290D01*
X42268350Y-25286926D01*
X42318143Y-25246063D01*
X42359006Y-25196270D01*
X42389370Y-25139463D01*
X42408068Y-25077823D01*
X42414382Y-25013720D01*
X42414382Y-24815720D01*
X48157218Y-24815720D01*
X48157218Y-25013720D01*
X48163532Y-25077823D01*
X48182230Y-25139463D01*
X48212594Y-25196270D01*
X48253457Y-25246063D01*
X48303250Y-25286926D01*
X48360057Y-25317290D01*
X48421697Y-25335988D01*
X48485800Y-25342302D01*
X49911183Y-25342302D01*
X49831391Y-25395617D01*
X49744057Y-25482951D01*
X49675440Y-25585644D01*
X49628175Y-25699751D01*
X49604080Y-25820886D01*
X49604080Y-25875497D01*
X49454577Y-26025000D01*
X47861632Y-26025000D01*
X47821529Y-25984897D01*
X47718836Y-25916280D01*
X47604729Y-25869015D01*
X47483594Y-25844920D01*
X47360086Y-25844920D01*
X47238951Y-25869015D01*
X47124844Y-25916280D01*
X47022151Y-25984897D01*
X46934817Y-26072231D01*
X46866200Y-26174924D01*
X46818935Y-26289031D01*
X46794840Y-26410166D01*
X46794840Y-26533674D01*
X46818935Y-26654809D01*
X46866200Y-26768916D01*
X46934817Y-26871609D01*
X47011208Y-26948000D01*
X40422205Y-26948000D01*
X40400000Y-26945813D01*
X40311392Y-26954540D01*
X40233103Y-26978289D01*
X40226190Y-26980386D01*
X40147667Y-27022357D01*
X40078841Y-27078841D01*
X40064681Y-27096095D01*
X39083457Y-28077320D01*
X38864703Y-28077320D01*
X38813125Y-28072240D01*
X37395800Y-28072240D01*
X37395800Y-24869180D01*
X37389963Y-24807669D01*
X37371791Y-24746195D01*
X37341976Y-24689447D01*
X37301663Y-24639607D01*
X37252401Y-24598589D01*
X37196084Y-24567969D01*
X37134875Y-24548925D01*
X37071126Y-24542188D01*
X33503716Y-24516808D01*
X33434992Y-24523612D01*
X33373803Y-24542718D01*
X33317516Y-24573394D01*
X33268295Y-24614462D01*
X33228033Y-24664343D01*
X33198275Y-24721121D01*
X33180166Y-24782613D01*
X33174401Y-24846456D01*
X33183190Y-25928394D01*
X32800763Y-25936596D01*
X31393340Y-25935132D01*
X31426840Y-25884996D01*
X31474105Y-25770889D01*
X31498200Y-25649754D01*
X31498200Y-25526246D01*
X31474105Y-25405111D01*
X31426840Y-25291004D01*
X31358223Y-25188311D01*
X31270889Y-25100977D01*
X31168196Y-25032360D01*
X31054089Y-24985095D01*
X30932954Y-24961000D01*
X30809446Y-24961000D01*
X30688311Y-24985095D01*
X30574204Y-25032360D01*
X30471511Y-25100977D01*
X30384177Y-25188311D01*
X30365370Y-25216458D01*
X30325403Y-25228582D01*
X30306270Y-25234386D01*
X30227747Y-25276357D01*
X30158921Y-25332841D01*
X30144761Y-25350095D01*
X29622420Y-25872437D01*
X29605161Y-25886601D01*
X29548677Y-25955428D01*
X29522352Y-26004680D01*
X29506706Y-26033951D01*
X29480860Y-26119153D01*
X29472133Y-26207760D01*
X29474320Y-26229965D01*
X29474321Y-28060065D01*
X29472133Y-28082280D01*
X29480860Y-28170887D01*
X29506706Y-28256089D01*
X29539419Y-28317291D01*
X29548678Y-28334613D01*
X29605162Y-28403439D01*
X29622416Y-28417599D01*
X30032961Y-28828145D01*
X30047121Y-28845399D01*
X30115947Y-28901883D01*
X30155739Y-28923152D01*
X30194470Y-28943854D01*
X30279672Y-28969700D01*
X30368280Y-28978427D01*
X30390485Y-28976240D01*
X38722217Y-28976240D01*
X38773795Y-28981320D01*
X39248475Y-28981320D01*
X39270680Y-28983507D01*
X39292885Y-28981320D01*
X39359287Y-28974780D01*
X39444490Y-28948934D01*
X39523013Y-28906963D01*
X39591839Y-28850479D01*
X39606003Y-28833220D01*
X40587224Y-27852000D01*
X44643205Y-27852000D01*
X44643205Y-27935523D01*
X44643204Y-27935532D01*
X44643204Y-27947288D01*
X44608181Y-27982311D01*
X44539564Y-28085004D01*
X44492299Y-28199111D01*
X44468204Y-28320246D01*
X44468204Y-28443754D01*
X44492299Y-28564889D01*
X44539564Y-28678996D01*
X44608181Y-28781689D01*
X44695515Y-28869023D01*
X44798208Y-28937640D01*
X44912315Y-28984905D01*
X45033450Y-29009000D01*
X45156958Y-29009000D01*
X45278093Y-28984905D01*
X45392200Y-28937640D01*
X45494893Y-28869023D01*
X45582227Y-28781689D01*
X45650844Y-28678996D01*
X45698109Y-28564889D01*
X45722204Y-28443754D01*
X45722204Y-28320246D01*
X45698109Y-28199111D01*
X45650844Y-28085004D01*
X45582227Y-27982311D01*
X45547204Y-27947288D01*
X45547204Y-27852000D01*
X49877795Y-27852000D01*
X49900000Y-27854187D01*
X49922205Y-27852000D01*
X49988607Y-27845460D01*
X50073810Y-27819614D01*
X50152333Y-27777643D01*
X50221159Y-27721159D01*
X50235323Y-27703900D01*
X50570532Y-27368691D01*
X50556310Y-27403026D01*
X50513000Y-27620760D01*
X50513000Y-27842760D01*
X50556310Y-28060494D01*
X50641266Y-28265595D01*
X50764602Y-28450181D01*
X50921579Y-28607158D01*
X51106165Y-28730494D01*
X51311266Y-28815450D01*
X51529000Y-28858760D01*
X51751000Y-28858760D01*
X51968734Y-28815450D01*
X52173835Y-28730494D01*
X52358421Y-28607158D01*
X52515398Y-28450181D01*
X52609892Y-28308760D01*
X53873549Y-28308760D01*
X53901880Y-28311550D01*
X53930211Y-28308760D01*
X53930216Y-28308760D01*
X53959925Y-28305834D01*
X54014991Y-28300411D01*
X54059650Y-28286863D01*
X54123756Y-28267417D01*
X54223995Y-28213839D01*
X54311854Y-28141734D01*
X54329919Y-28119722D01*
X54925741Y-27523900D01*
X56966761Y-27523900D01*
X56995100Y-27526691D01*
X57023439Y-27523900D01*
X62347831Y-27523900D01*
X62410371Y-27549805D01*
X62531506Y-27573900D01*
X62655014Y-27573900D01*
X62776149Y-27549805D01*
X62838689Y-27523900D01*
X62864799Y-27523900D01*
X63242941Y-27902042D01*
X63261006Y-27924054D01*
X63348865Y-27996159D01*
X63449104Y-28049737D01*
X63493762Y-28063284D01*
X63557868Y-28082731D01*
X63670980Y-28093871D01*
X63699319Y-28091080D01*
X73424928Y-28091080D01*
X73355897Y-28160111D01*
X73287280Y-28262804D01*
X73240015Y-28376911D01*
X73215920Y-28498046D01*
X73215920Y-28621554D01*
X73240015Y-28742689D01*
X73287280Y-28856796D01*
X73355897Y-28959489D01*
X73443231Y-29046823D01*
X73545924Y-29115440D01*
X73660031Y-29162705D01*
X73781166Y-29186800D01*
X73830696Y-29186800D01*
X74091801Y-29447905D01*
X74105961Y-29465159D01*
X74174787Y-29521643D01*
X74230798Y-29551581D01*
X74253310Y-29563614D01*
X74338512Y-29589460D01*
X74427120Y-29598187D01*
X74449325Y-29596000D01*
X80745720Y-29596000D01*
X80745720Y-29605381D01*
X80781344Y-29784476D01*
X80851224Y-29953179D01*
X80952672Y-30105008D01*
X81081792Y-30234128D01*
X81233621Y-30335576D01*
X81402324Y-30405456D01*
X81581419Y-30441080D01*
X81764021Y-30441080D01*
X81943116Y-30405456D01*
X82111819Y-30335576D01*
X82263648Y-30234128D01*
X82392768Y-30105008D01*
X82494216Y-29953179D01*
X82564096Y-29784476D01*
X82599720Y-29605381D01*
X82599720Y-29422779D01*
X84745720Y-29422779D01*
X84745720Y-29605381D01*
X84781344Y-29784476D01*
X84851224Y-29953179D01*
X84952672Y-30105008D01*
X85081792Y-30234128D01*
X85233621Y-30335576D01*
X85402324Y-30405456D01*
X85581419Y-30441080D01*
X85764021Y-30441080D01*
X85943116Y-30405456D01*
X86111819Y-30335576D01*
X86263648Y-30234128D01*
X86392768Y-30105008D01*
X86494216Y-29953179D01*
X86564096Y-29784476D01*
X86599720Y-29605381D01*
X86599720Y-29422779D01*
X86564096Y-29243684D01*
X86494216Y-29074981D01*
X86392768Y-28923152D01*
X86263648Y-28794032D01*
X86111819Y-28692584D01*
X85943116Y-28622704D01*
X85764021Y-28587080D01*
X85581419Y-28587080D01*
X85402324Y-28622704D01*
X85233621Y-28692584D01*
X85081792Y-28794032D01*
X84952672Y-28923152D01*
X84851224Y-29074981D01*
X84781344Y-29243684D01*
X84745720Y-29422779D01*
X82599720Y-29422779D01*
X82564096Y-29243684D01*
X82494216Y-29074981D01*
X82402801Y-28938167D01*
X82678428Y-28938167D01*
X82700633Y-28940354D01*
X82722838Y-28938167D01*
X82789240Y-28931627D01*
X82874443Y-28905781D01*
X82952966Y-28863810D01*
X83021792Y-28807326D01*
X83035956Y-28790067D01*
X83417541Y-28408483D01*
X83581419Y-28441080D01*
X83764021Y-28441080D01*
X83943116Y-28405456D01*
X84111819Y-28335576D01*
X84263648Y-28234128D01*
X84392768Y-28105008D01*
X84494216Y-27953179D01*
X84564096Y-27784476D01*
X84599720Y-27605381D01*
X84599720Y-27422779D01*
X84564096Y-27243684D01*
X84494216Y-27074981D01*
X84392768Y-26923152D01*
X84263648Y-26794032D01*
X84111819Y-26692584D01*
X83988013Y-26641301D01*
X84943800Y-26641301D01*
X85001255Y-26698757D01*
X85027160Y-26761296D01*
X85095777Y-26863989D01*
X85183111Y-26951323D01*
X85285804Y-27019940D01*
X85399911Y-27067205D01*
X85521046Y-27091300D01*
X85644554Y-27091300D01*
X85765689Y-27067205D01*
X85828229Y-27041300D01*
X85926471Y-27041300D01*
X86019671Y-27079905D01*
X86140806Y-27104000D01*
X86264314Y-27104000D01*
X86385449Y-27079905D01*
X86478649Y-27041300D01*
X86563575Y-27041300D01*
X86644511Y-27074825D01*
X86765646Y-27098920D01*
X86889154Y-27098920D01*
X87010289Y-27074825D01*
X87124396Y-27027560D01*
X87227089Y-26958943D01*
X87314423Y-26871609D01*
X87383040Y-26768916D01*
X87430305Y-26654809D01*
X87454400Y-26533674D01*
X87454400Y-26410166D01*
X87430305Y-26289031D01*
X87383040Y-26174924D01*
X87314423Y-26072231D01*
X87227089Y-25984897D01*
X87124396Y-25916280D01*
X87010289Y-25869015D01*
X86889154Y-25844920D01*
X86765646Y-25844920D01*
X86644511Y-25869015D01*
X86600367Y-25887300D01*
X86417328Y-25887300D01*
X86385449Y-25874095D01*
X86264314Y-25850000D01*
X86140806Y-25850000D01*
X86019671Y-25874095D01*
X85987792Y-25887300D01*
X85828229Y-25887300D01*
X85817257Y-25882755D01*
X85610840Y-25676339D01*
X85592775Y-25654327D01*
X85504916Y-25582222D01*
X85404677Y-25528644D01*
X85332403Y-25506720D01*
X85295912Y-25495650D01*
X85240846Y-25490227D01*
X85211137Y-25487301D01*
X85211132Y-25487301D01*
X85182801Y-25484511D01*
X85154470Y-25487301D01*
X83150827Y-25487301D01*
X83122498Y-25484511D01*
X83094169Y-25487301D01*
X83094163Y-25487301D01*
X83009387Y-25495651D01*
X82900623Y-25528644D01*
X82800384Y-25582222D01*
X82784415Y-25595328D01*
X82734534Y-25636264D01*
X82734532Y-25636266D01*
X82712525Y-25654327D01*
X82694464Y-25676334D01*
X81780451Y-26590348D01*
X81764021Y-26587080D01*
X81581419Y-26587080D01*
X81402324Y-26622704D01*
X81233621Y-26692584D01*
X81081792Y-26794032D01*
X80952672Y-26923152D01*
X80943366Y-26937080D01*
X63909981Y-26937080D01*
X63531838Y-26558937D01*
X63513774Y-26536926D01*
X63425915Y-26464821D01*
X63325676Y-26411243D01*
X63261570Y-26391797D01*
X63216911Y-26378249D01*
X63161845Y-26372826D01*
X63132136Y-26369900D01*
X63132131Y-26369900D01*
X63103800Y-26367110D01*
X63075469Y-26369900D01*
X62869683Y-26369900D01*
X63280864Y-25958720D01*
X63700328Y-25958720D01*
X63735351Y-25993743D01*
X63838044Y-26062360D01*
X63952151Y-26109625D01*
X64073286Y-26133720D01*
X64196794Y-26133720D01*
X64317929Y-26109625D01*
X64432036Y-26062360D01*
X64534729Y-25993743D01*
X64622063Y-25906409D01*
X64690680Y-25803716D01*
X64737945Y-25689609D01*
X64762040Y-25568474D01*
X64762040Y-25444966D01*
X64737945Y-25323831D01*
X64690680Y-25209724D01*
X64622063Y-25107031D01*
X64534729Y-25019697D01*
X64432036Y-24951080D01*
X64317929Y-24903815D01*
X64196794Y-24879720D01*
X64073286Y-24879720D01*
X63952151Y-24903815D01*
X63838044Y-24951080D01*
X63735351Y-25019697D01*
X63700328Y-25054720D01*
X63115845Y-25054720D01*
X63093640Y-25052533D01*
X63005032Y-25061260D01*
X62961884Y-25074349D01*
X62919830Y-25087106D01*
X62841307Y-25129077D01*
X62772481Y-25185561D01*
X62758321Y-25202815D01*
X62266337Y-25694800D01*
X59929340Y-25694800D01*
X59793800Y-25559261D01*
X59793800Y-25509731D01*
X59769705Y-25388596D01*
X59722440Y-25274489D01*
X59653823Y-25171796D01*
X59566489Y-25084462D01*
X59463796Y-25015845D01*
X59349689Y-24968580D01*
X59228554Y-24944485D01*
X59105046Y-24944485D01*
X58983911Y-24968580D01*
X58869804Y-25015845D01*
X58767111Y-25084462D01*
X58679777Y-25171796D01*
X58611160Y-25274489D01*
X58563895Y-25388596D01*
X58539800Y-25509731D01*
X58539800Y-25633239D01*
X58563895Y-25754374D01*
X58611160Y-25868481D01*
X58679777Y-25971174D01*
X58767111Y-26058508D01*
X58869804Y-26127125D01*
X58983911Y-26174390D01*
X59105046Y-26198485D01*
X59154576Y-26198485D01*
X59325990Y-26369900D01*
X57557799Y-26369900D01*
X57557799Y-25875418D01*
X57583704Y-25812878D01*
X57607799Y-25691743D01*
X57607799Y-25568235D01*
X57583704Y-25447100D01*
X57536439Y-25332993D01*
X57467822Y-25230300D01*
X57380488Y-25142966D01*
X57277795Y-25074349D01*
X57163688Y-25027084D01*
X57042553Y-25002989D01*
X56919045Y-25002989D01*
X56797910Y-25027084D01*
X56683803Y-25074349D01*
X56581110Y-25142966D01*
X56493776Y-25230300D01*
X56425159Y-25332993D01*
X56377894Y-25447100D01*
X56353799Y-25568235D01*
X56353799Y-25691743D01*
X56377894Y-25812878D01*
X56403800Y-25875420D01*
X56403799Y-26369900D01*
X54715079Y-26369900D01*
X54686740Y-26367109D01*
X54573628Y-26378249D01*
X54516066Y-26395711D01*
X54464864Y-26411243D01*
X54364625Y-26464821D01*
X54276766Y-26536926D01*
X54258702Y-26558937D01*
X53662879Y-27154760D01*
X52609892Y-27154760D01*
X52515398Y-27013339D01*
X52410739Y-26908680D01*
X53094315Y-26908680D01*
X53116520Y-26910867D01*
X53138725Y-26908680D01*
X53205127Y-26902140D01*
X53290330Y-26876294D01*
X53368853Y-26834323D01*
X53437679Y-26777839D01*
X53451843Y-26760580D01*
X55950424Y-24262000D01*
X61519577Y-24262000D01*
X61689400Y-24431823D01*
X61689400Y-24481354D01*
X61713495Y-24602489D01*
X61760760Y-24716596D01*
X61829377Y-24819289D01*
X61916711Y-24906623D01*
X62019404Y-24975240D01*
X62133511Y-25022505D01*
X62254646Y-25046600D01*
X62378154Y-25046600D01*
X62499289Y-25022505D01*
X62613396Y-24975240D01*
X62716089Y-24906623D01*
X62803423Y-24819289D01*
X62872040Y-24716596D01*
X62919305Y-24602489D01*
X62943400Y-24481354D01*
X62943400Y-24357846D01*
X62938348Y-24332446D01*
X79545600Y-24332446D01*
X79545600Y-24455954D01*
X79569695Y-24577089D01*
X79616960Y-24691196D01*
X79685577Y-24793889D01*
X79772911Y-24881223D01*
X79875604Y-24949840D01*
X79989711Y-24997105D01*
X80110846Y-25021200D01*
X80234354Y-25021200D01*
X80355489Y-24997105D01*
X80469596Y-24949840D01*
X80572289Y-24881223D01*
X80659623Y-24793889D01*
X80728240Y-24691196D01*
X80775505Y-24577089D01*
X80799600Y-24455954D01*
X80799600Y-24406423D01*
X81642524Y-23563500D01*
X86999277Y-23563500D01*
X87221418Y-23785642D01*
X87221418Y-24900000D01*
X87227732Y-24964103D01*
X87246430Y-25025743D01*
X87276794Y-25082550D01*
X87317657Y-25132343D01*
X87367450Y-25173206D01*
X87424257Y-25203570D01*
X87485897Y-25222268D01*
X87550000Y-25228582D01*
X89100000Y-25228582D01*
X89164103Y-25222268D01*
X89225743Y-25203570D01*
X89282550Y-25173206D01*
X89332343Y-25132343D01*
X89373206Y-25082550D01*
X89403570Y-25025743D01*
X89422268Y-24964103D01*
X89428582Y-24900000D01*
X89428582Y-24236600D01*
X95171418Y-24236600D01*
X95171418Y-24900000D01*
X95177732Y-24964103D01*
X95196430Y-25025743D01*
X95226794Y-25082550D01*
X95267657Y-25132343D01*
X95317450Y-25173206D01*
X95374257Y-25203570D01*
X95435897Y-25222268D01*
X95500000Y-25228582D01*
X97050000Y-25228582D01*
X97114103Y-25222268D01*
X97175743Y-25203570D01*
X97232550Y-25173206D01*
X97282343Y-25132343D01*
X97323206Y-25082550D01*
X97353570Y-25025743D01*
X97372268Y-24964103D01*
X97378582Y-24900000D01*
X97378582Y-23600000D01*
X97372268Y-23535897D01*
X97353570Y-23474257D01*
X97323206Y-23417450D01*
X97282343Y-23367657D01*
X97232550Y-23326794D01*
X97175743Y-23296430D01*
X97114103Y-23277732D01*
X97050000Y-23271418D01*
X95500000Y-23271418D01*
X95435897Y-23277732D01*
X95374257Y-23296430D01*
X95317450Y-23326794D01*
X95310375Y-23332600D01*
X89289625Y-23332600D01*
X89282550Y-23326794D01*
X89225743Y-23296430D01*
X89164103Y-23277732D01*
X89100000Y-23271418D01*
X87985642Y-23271418D01*
X87521823Y-22807600D01*
X87507659Y-22790341D01*
X87438833Y-22733857D01*
X87360310Y-22691886D01*
X87275107Y-22666040D01*
X87208705Y-22659500D01*
X87186500Y-22657313D01*
X87164295Y-22659500D01*
X81477505Y-22659500D01*
X81455300Y-22657313D01*
X81366692Y-22666040D01*
X81281490Y-22691886D01*
X81202967Y-22733857D01*
X81134141Y-22790341D01*
X81119981Y-22807595D01*
X80160377Y-23767200D01*
X80110846Y-23767200D01*
X79989711Y-23791295D01*
X79875604Y-23838560D01*
X79772911Y-23907177D01*
X79685577Y-23994511D01*
X79616960Y-24097204D01*
X79569695Y-24211311D01*
X79545600Y-24332446D01*
X62938348Y-24332446D01*
X62919305Y-24236711D01*
X62872040Y-24122604D01*
X62803423Y-24019911D01*
X62716089Y-23932577D01*
X62613396Y-23863960D01*
X62499289Y-23816695D01*
X62378154Y-23792600D01*
X62328623Y-23792600D01*
X62042123Y-23506100D01*
X62027959Y-23488841D01*
X61959133Y-23432357D01*
X61880610Y-23390386D01*
X61795407Y-23364540D01*
X61729005Y-23358000D01*
X61706800Y-23355813D01*
X61684595Y-23358000D01*
X55785405Y-23358000D01*
X55763200Y-23355813D01*
X55674592Y-23364540D01*
X55606690Y-23385138D01*
X55589390Y-23390386D01*
X55510867Y-23432357D01*
X55442041Y-23488841D01*
X55427881Y-23506095D01*
X52929297Y-26004680D01*
X52420899Y-26004680D01*
X52515398Y-25910181D01*
X52638734Y-25725595D01*
X52723690Y-25520494D01*
X52767000Y-25302760D01*
X52767000Y-25080760D01*
X52763195Y-25061629D01*
X54868385Y-22956440D01*
X65824795Y-22956440D01*
X65847000Y-22958627D01*
X65869205Y-22956440D01*
X65935607Y-22949900D01*
X66020810Y-22924054D01*
X66099333Y-22882083D01*
X66168159Y-22825599D01*
X66182323Y-22808340D01*
X66917864Y-22072801D01*
X77374095Y-22072801D01*
X77551004Y-22249711D01*
X77565160Y-22266960D01*
X77633986Y-22323444D01*
X77712509Y-22365415D01*
X77777881Y-22385245D01*
X77797711Y-22391261D01*
X77886318Y-22399988D01*
X77908523Y-22397801D01*
X78464116Y-22397801D01*
X78486321Y-22399988D01*
X78508526Y-22397801D01*
X78574928Y-22391261D01*
X78660131Y-22365415D01*
X78738654Y-22323444D01*
X78807480Y-22266960D01*
X78821644Y-22249701D01*
X79206511Y-21864836D01*
X79223759Y-21850681D01*
X79280243Y-21781855D01*
X79322214Y-21703332D01*
X79342044Y-21637960D01*
X79348060Y-21618130D01*
X79356787Y-21529523D01*
X79354600Y-21507318D01*
X79354600Y-21349112D01*
X79389623Y-21314089D01*
X79458240Y-21211396D01*
X79505505Y-21097289D01*
X79529600Y-20976154D01*
X79529600Y-20852646D01*
X79505505Y-20731511D01*
X79458240Y-20617404D01*
X79389623Y-20514711D01*
X79302289Y-20427377D01*
X79199596Y-20358760D01*
X79183276Y-20352000D01*
X101648000Y-20352000D01*
X101648001Y-27006791D01*
X101607330Y-26973414D01*
X101550523Y-26943050D01*
X101488883Y-26924352D01*
X101424780Y-26918038D01*
X97924660Y-26918038D01*
X97860557Y-26924352D01*
X97798917Y-26943050D01*
X97742110Y-26973414D01*
X97692317Y-27014277D01*
X97651454Y-27064070D01*
X97621090Y-27120877D01*
X97602392Y-27182517D01*
X97596078Y-27246620D01*
X97596078Y-30746740D01*
X97602392Y-30810843D01*
X97621090Y-30872483D01*
X97651454Y-30929290D01*
X97692317Y-30979083D01*
X97742110Y-31019946D01*
X97798917Y-31050310D01*
X97860557Y-31069008D01*
X97924660Y-31075322D01*
X101424780Y-31075322D01*
X101488883Y-31069008D01*
X101550523Y-31050310D01*
X101607330Y-31019946D01*
X101648001Y-30986569D01*
X101648001Y-32648000D01*
X39529400Y-32648000D01*
X39529400Y-30358100D01*
X39523146Y-30294451D01*
X39504565Y-30233099D01*
X39474373Y-30176552D01*
X39433729Y-30126981D01*
X39384195Y-30086292D01*
X39327674Y-30056048D01*
X39266340Y-30037412D01*
X39202548Y-30031100D01*
X27940148Y-30026000D01*
X27876205Y-30032283D01*
X27814863Y-30050891D01*
X27758329Y-30081109D01*
X27708776Y-30121776D01*
X27668109Y-30171329D01*
X27637891Y-30227863D01*
X27619283Y-30289205D01*
X27613000Y-30353000D01*
X27613000Y-32648000D01*
X21352000Y-32648000D01*
X21352000Y-32179530D01*
X21378736Y-32206266D01*
X21534659Y-32310451D01*
X21707912Y-32382215D01*
X21891836Y-32418800D01*
X22079364Y-32418800D01*
X22263288Y-32382215D01*
X22436541Y-32310451D01*
X22592464Y-32206266D01*
X22725066Y-32073664D01*
X22829251Y-31917741D01*
X22901015Y-31744488D01*
X22937600Y-31560564D01*
X22937600Y-31373036D01*
X23533600Y-31373036D01*
X23533600Y-31560564D01*
X23570185Y-31744488D01*
X23641949Y-31917741D01*
X23746134Y-32073664D01*
X23878736Y-32206266D01*
X24034659Y-32310451D01*
X24207912Y-32382215D01*
X24391836Y-32418800D01*
X24579364Y-32418800D01*
X24763288Y-32382215D01*
X24936541Y-32310451D01*
X25092464Y-32206266D01*
X25225066Y-32073664D01*
X25329251Y-31917741D01*
X25401015Y-31744488D01*
X25437600Y-31560564D01*
X25437600Y-31373036D01*
X25401015Y-31189112D01*
X25329251Y-31015859D01*
X25225066Y-30859936D01*
X25092464Y-30727334D01*
X24936541Y-30623149D01*
X24763288Y-30551385D01*
X24579364Y-30514800D01*
X24391836Y-30514800D01*
X24207912Y-30551385D01*
X24034659Y-30623149D01*
X23878736Y-30727334D01*
X23746134Y-30859936D01*
X23641949Y-31015859D01*
X23570185Y-31189112D01*
X23533600Y-31373036D01*
X22937600Y-31373036D01*
X22901015Y-31189112D01*
X22829251Y-31015859D01*
X22725066Y-30859936D01*
X22592464Y-30727334D01*
X22436541Y-30623149D01*
X22263288Y-30551385D01*
X22079364Y-30514800D01*
X21891836Y-30514800D01*
X21707912Y-30551385D01*
X21534659Y-30623149D01*
X21378736Y-30727334D01*
X21352000Y-30754070D01*
X21352000Y-29381966D01*
X66352840Y-29381966D01*
X66352840Y-29505474D01*
X66376935Y-29626609D01*
X66424200Y-29740716D01*
X66492817Y-29843409D01*
X66580151Y-29930743D01*
X66682844Y-29999360D01*
X66796951Y-30046625D01*
X66918086Y-30070720D01*
X67041594Y-30070720D01*
X67162729Y-30046625D01*
X67276836Y-29999360D01*
X67379529Y-29930743D01*
X67466863Y-29843409D01*
X67482042Y-29820692D01*
X68466585Y-29820692D01*
X68501608Y-29855715D01*
X68604301Y-29924332D01*
X68718408Y-29971597D01*
X68839543Y-29995692D01*
X68963051Y-29995692D01*
X69084186Y-29971597D01*
X69198293Y-29924332D01*
X69300986Y-29855715D01*
X69388320Y-29768381D01*
X69456937Y-29665688D01*
X69504202Y-29551581D01*
X69528297Y-29430446D01*
X69528297Y-29306938D01*
X69504202Y-29185803D01*
X69456937Y-29071696D01*
X69388320Y-28969003D01*
X69300986Y-28881669D01*
X69198293Y-28813052D01*
X69084186Y-28765787D01*
X68963051Y-28741692D01*
X68839543Y-28741692D01*
X68718408Y-28765787D01*
X68604301Y-28813052D01*
X68501608Y-28881669D01*
X68466585Y-28916692D01*
X67319657Y-28916692D01*
X67276836Y-28888080D01*
X67162729Y-28840815D01*
X67041594Y-28816720D01*
X66918086Y-28816720D01*
X66796951Y-28840815D01*
X66682844Y-28888080D01*
X66580151Y-28956697D01*
X66492817Y-29044031D01*
X66424200Y-29146724D01*
X66376935Y-29260831D01*
X66352840Y-29381966D01*
X21352000Y-29381966D01*
X21352000Y-22179530D01*
X21378736Y-22206266D01*
X21534659Y-22310451D01*
X21707912Y-22382215D01*
X21891836Y-22418800D01*
X22079364Y-22418800D01*
X22263288Y-22382215D01*
X22436541Y-22310451D01*
X22592464Y-22206266D01*
X22725066Y-22073664D01*
X22829251Y-21917741D01*
X22901015Y-21744488D01*
X22937600Y-21560564D01*
X22937600Y-21373036D01*
X23533600Y-21373036D01*
X23533600Y-21560564D01*
X23570185Y-21744488D01*
X23641949Y-21917741D01*
X23746134Y-22073664D01*
X23878736Y-22206266D01*
X24034659Y-22310451D01*
X24207912Y-22382215D01*
X24391836Y-22418800D01*
X24579364Y-22418800D01*
X24763288Y-22382215D01*
X24936541Y-22310451D01*
X25092464Y-22206266D01*
X25225066Y-22073664D01*
X25329251Y-21917741D01*
X25401015Y-21744488D01*
X25437600Y-21560564D01*
X25437600Y-21373036D01*
X25401015Y-21189112D01*
X25329251Y-21015859D01*
X25229653Y-20866800D01*
X28157018Y-20866800D01*
X28157018Y-22066800D01*
X28163332Y-22130903D01*
X28182030Y-22192543D01*
X28212394Y-22249350D01*
X28253257Y-22299143D01*
X28303050Y-22340006D01*
X28359857Y-22370370D01*
X28421497Y-22389068D01*
X28485600Y-22395382D01*
X30485600Y-22395382D01*
X30549703Y-22389068D01*
X30611343Y-22370370D01*
X30668150Y-22340006D01*
X30717943Y-22299143D01*
X30758806Y-22249350D01*
X30789170Y-22192543D01*
X30807868Y-22130903D01*
X30814182Y-22066800D01*
X30814182Y-21442600D01*
X49499239Y-21442600D01*
X49521495Y-21554489D01*
X49568760Y-21668596D01*
X49637377Y-21771289D01*
X49724711Y-21858623D01*
X49827404Y-21927240D01*
X49941511Y-21974505D01*
X50062646Y-21998600D01*
X50186154Y-21998600D01*
X50307289Y-21974505D01*
X50421396Y-21927240D01*
X50524089Y-21858623D01*
X50611423Y-21771289D01*
X50680040Y-21668596D01*
X50727305Y-21554489D01*
X50751400Y-21433354D01*
X50751400Y-21309846D01*
X50727305Y-21188711D01*
X50680040Y-21074604D01*
X50611423Y-20971911D01*
X50524089Y-20884577D01*
X50421396Y-20815960D01*
X50307289Y-20768695D01*
X50186154Y-20744600D01*
X50136623Y-20744600D01*
X50078723Y-20686700D01*
X50064559Y-20669441D01*
X49995733Y-20612957D01*
X49917210Y-20570986D01*
X49832007Y-20545140D01*
X49765605Y-20538600D01*
X49743400Y-20536413D01*
X49721195Y-20538600D01*
X30489478Y-20538600D01*
X30485600Y-20538218D01*
X29980124Y-20538218D01*
X29961799Y-20536413D01*
X29943475Y-20538218D01*
X28485600Y-20538218D01*
X28421497Y-20544532D01*
X28359857Y-20563230D01*
X28303050Y-20593594D01*
X28253257Y-20634457D01*
X28212394Y-20684250D01*
X28182030Y-20741057D01*
X28163332Y-20802697D01*
X28157018Y-20866800D01*
X25229653Y-20866800D01*
X25225066Y-20859936D01*
X25092464Y-20727334D01*
X24936541Y-20623149D01*
X24763288Y-20551385D01*
X24579364Y-20514800D01*
X24391836Y-20514800D01*
X24207912Y-20551385D01*
X24034659Y-20623149D01*
X23878736Y-20727334D01*
X23746134Y-20859936D01*
X23641949Y-21015859D01*
X23570185Y-21189112D01*
X23533600Y-21373036D01*
X22937600Y-21373036D01*
X22901015Y-21189112D01*
X22829251Y-21015859D01*
X22725066Y-20859936D01*
X22592464Y-20727334D01*
X22436541Y-20623149D01*
X22263288Y-20551385D01*
X22079364Y-20514800D01*
X21891836Y-20514800D01*
X21707912Y-20551385D01*
X21534659Y-20623149D01*
X21378736Y-20727334D01*
X21352000Y-20754070D01*
X21352000Y-20352000D01*
X53333539Y-20352000D01*
X53282507Y-20379277D01*
M02*
