G04 #@! TF.GenerationSoftware,KiCad,Pcbnew,(5.1.5-0-10_14)*
G04 #@! TF.CreationDate,2021-02-26T10:59:33+01:00*
G04 #@! TF.ProjectId,L_tfix,4cf67466-6978-42e6-9b69-6361645f7063,rev?*
G04 #@! TF.SameCoordinates,Original*
G04 #@! TF.FileFunction,Soldermask,Bot*
G04 #@! TF.FilePolarity,Negative*
%FSLAX46Y46*%
G04 Gerber Fmt 4.6, Leading zero omitted, Abs format (unit mm)*
G04 Created by KiCad (PCBNEW (5.1.5-0-10_14)) date 2021-02-26 10:59:33*
%MOMM*%
%LPD*%
G04 APERTURE LIST*
%ADD10C,0.200000*%
%ADD11C,0.050000*%
%ADD12C,0.150000*%
G04 APERTURE END LIST*
D10*
X91025971Y-32441180D02*
X91502161Y-32441180D01*
X91502161Y-31441180D01*
X90549780Y-32441180D02*
X90645019Y-32393561D01*
X90692638Y-32345942D01*
X90740257Y-32250704D01*
X90740257Y-31964990D01*
X90692638Y-31869752D01*
X90645019Y-31822133D01*
X90549780Y-31774514D01*
X90406923Y-31774514D01*
X90311685Y-31822133D01*
X90264066Y-31869752D01*
X90216447Y-31964990D01*
X90216447Y-32250704D01*
X90264066Y-32345942D01*
X90311685Y-32393561D01*
X90406923Y-32441180D01*
X90549780Y-32441180D01*
X90645019Y-31441180D02*
X90597400Y-31488800D01*
X90645019Y-31536419D01*
X90692638Y-31488800D01*
X90645019Y-31441180D01*
X90645019Y-31536419D01*
X90264066Y-31441180D02*
X90216447Y-31488800D01*
X90264066Y-31536419D01*
X90311685Y-31488800D01*
X90264066Y-31441180D01*
X90264066Y-31536419D01*
X89930733Y-31774514D02*
X89549780Y-31774514D01*
X89787876Y-31441180D02*
X89787876Y-32298323D01*
X89740257Y-32393561D01*
X89645019Y-32441180D01*
X89549780Y-32441180D01*
X89359304Y-31774514D02*
X88978352Y-31774514D01*
X89216447Y-32441180D02*
X89216447Y-31584038D01*
X89168828Y-31488800D01*
X89073590Y-31441180D01*
X88978352Y-31441180D01*
X88645019Y-32441180D02*
X88645019Y-31774514D01*
X88645019Y-31441180D02*
X88692638Y-31488800D01*
X88645019Y-31536419D01*
X88597400Y-31488800D01*
X88645019Y-31441180D01*
X88645019Y-31536419D01*
X88264066Y-32441180D02*
X87740257Y-31774514D01*
X88264066Y-31774514D02*
X87740257Y-32441180D01*
X86073590Y-32441180D02*
X86645019Y-32441180D01*
X86359304Y-32441180D02*
X86359304Y-31441180D01*
X86454542Y-31584038D01*
X86549780Y-31679276D01*
X86645019Y-31726895D01*
X85645019Y-32345942D02*
X85597400Y-32393561D01*
X85645019Y-32441180D01*
X85692638Y-32393561D01*
X85645019Y-32345942D01*
X85645019Y-32441180D01*
X84645019Y-32441180D02*
X85216447Y-32441180D01*
X84930733Y-32441180D02*
X84930733Y-31441180D01*
X85025971Y-31584038D01*
X85121209Y-31679276D01*
X85216447Y-31726895D01*
D11*
X21000000Y-30000000D02*
X21000000Y-33000000D01*
X21000000Y-23000000D02*
X21000000Y-30000000D01*
X21000000Y-20000000D02*
X21000000Y-23000000D01*
X102000000Y-20000000D02*
X21000000Y-20000000D01*
X102000000Y-20000000D02*
X102000000Y-33000000D01*
X21000000Y-33000000D02*
X102000000Y-33000000D01*
D12*
G36*
X60893404Y-31323147D02*
G01*
X60929944Y-31334232D01*
X60963621Y-31352233D01*
X60993141Y-31376459D01*
X61017367Y-31405979D01*
X61035368Y-31439656D01*
X61046453Y-31476196D01*
X61050800Y-31520338D01*
X61050800Y-32469262D01*
X61046453Y-32513404D01*
X61035368Y-32549944D01*
X61017367Y-32583621D01*
X60993141Y-32613141D01*
X60963621Y-32637367D01*
X60929944Y-32655368D01*
X60893404Y-32666453D01*
X60849262Y-32670800D01*
X58500338Y-32670800D01*
X58456196Y-32666453D01*
X58419656Y-32655368D01*
X58385979Y-32637367D01*
X58356459Y-32613141D01*
X58332233Y-32583621D01*
X58314232Y-32549944D01*
X58303147Y-32513404D01*
X58298800Y-32469262D01*
X58298800Y-31520338D01*
X58303147Y-31476196D01*
X58314232Y-31439656D01*
X58332233Y-31405979D01*
X58356459Y-31376459D01*
X58385979Y-31352233D01*
X58419656Y-31334232D01*
X58456196Y-31323147D01*
X58500338Y-31318800D01*
X60849262Y-31318800D01*
X60893404Y-31323147D01*
G37*
G36*
X57642204Y-31323147D02*
G01*
X57678744Y-31334232D01*
X57712421Y-31352233D01*
X57741941Y-31376459D01*
X57766167Y-31405979D01*
X57784168Y-31439656D01*
X57795253Y-31476196D01*
X57799600Y-31520338D01*
X57799600Y-32469262D01*
X57795253Y-32513404D01*
X57784168Y-32549944D01*
X57766167Y-32583621D01*
X57741941Y-32613141D01*
X57712421Y-32637367D01*
X57678744Y-32655368D01*
X57642204Y-32666453D01*
X57598062Y-32670800D01*
X55249138Y-32670800D01*
X55204996Y-32666453D01*
X55168456Y-32655368D01*
X55134779Y-32637367D01*
X55105259Y-32613141D01*
X55081033Y-32583621D01*
X55063032Y-32549944D01*
X55051947Y-32513404D01*
X55047600Y-32469262D01*
X55047600Y-31520338D01*
X55051947Y-31476196D01*
X55063032Y-31439656D01*
X55081033Y-31405979D01*
X55105259Y-31376459D01*
X55134779Y-31352233D01*
X55168456Y-31334232D01*
X55204996Y-31323147D01*
X55249138Y-31318800D01*
X57598062Y-31318800D01*
X57642204Y-31323147D01*
G37*
G36*
X35899804Y-31119947D02*
G01*
X35936344Y-31131032D01*
X35970021Y-31149033D01*
X35999541Y-31173259D01*
X36023767Y-31202779D01*
X36041768Y-31236456D01*
X36052853Y-31272996D01*
X36057200Y-31317138D01*
X36057200Y-32266062D01*
X36052853Y-32310204D01*
X36041768Y-32346744D01*
X36023767Y-32380421D01*
X35999541Y-32409941D01*
X35970021Y-32434167D01*
X35936344Y-32452168D01*
X35899804Y-32463253D01*
X35855662Y-32467600D01*
X33506738Y-32467600D01*
X33462596Y-32463253D01*
X33426056Y-32452168D01*
X33392379Y-32434167D01*
X33362859Y-32409941D01*
X33338633Y-32380421D01*
X33320632Y-32346744D01*
X33309547Y-32310204D01*
X33305200Y-32266062D01*
X33305200Y-31317138D01*
X33309547Y-31272996D01*
X33320632Y-31236456D01*
X33338633Y-31202779D01*
X33362859Y-31173259D01*
X33392379Y-31149033D01*
X33426056Y-31131032D01*
X33462596Y-31119947D01*
X33506738Y-31115600D01*
X35855662Y-31115600D01*
X35899804Y-31119947D01*
G37*
G36*
X42605404Y-31091547D02*
G01*
X42641944Y-31102632D01*
X42675621Y-31120633D01*
X42705141Y-31144859D01*
X42729367Y-31174379D01*
X42747368Y-31208056D01*
X42758453Y-31244596D01*
X42762800Y-31288738D01*
X42762800Y-32237662D01*
X42758453Y-32281804D01*
X42747368Y-32318344D01*
X42729367Y-32352021D01*
X42705141Y-32381541D01*
X42675621Y-32405767D01*
X42641944Y-32423768D01*
X42605404Y-32434853D01*
X42561262Y-32439200D01*
X40212338Y-32439200D01*
X40168196Y-32434853D01*
X40131656Y-32423768D01*
X40097979Y-32405767D01*
X40068459Y-32381541D01*
X40044233Y-32352021D01*
X40026232Y-32318344D01*
X40015147Y-32281804D01*
X40010800Y-32237662D01*
X40010800Y-31288738D01*
X40015147Y-31244596D01*
X40026232Y-31208056D01*
X40044233Y-31174379D01*
X40068459Y-31144859D01*
X40097979Y-31120633D01*
X40131656Y-31102632D01*
X40168196Y-31091547D01*
X40212338Y-31087200D01*
X42561262Y-31087200D01*
X42605404Y-31091547D01*
G37*
G36*
X39252604Y-31091547D02*
G01*
X39289144Y-31102632D01*
X39322821Y-31120633D01*
X39352341Y-31144859D01*
X39376567Y-31174379D01*
X39394568Y-31208056D01*
X39405653Y-31244596D01*
X39410000Y-31288738D01*
X39410000Y-32237662D01*
X39405653Y-32281804D01*
X39394568Y-32318344D01*
X39376567Y-32352021D01*
X39352341Y-32381541D01*
X39322821Y-32405767D01*
X39289144Y-32423768D01*
X39252604Y-32434853D01*
X39208462Y-32439200D01*
X36859538Y-32439200D01*
X36815396Y-32434853D01*
X36778856Y-32423768D01*
X36745179Y-32405767D01*
X36715659Y-32381541D01*
X36691433Y-32352021D01*
X36673432Y-32318344D01*
X36662347Y-32281804D01*
X36658000Y-32237662D01*
X36658000Y-31288738D01*
X36662347Y-31244596D01*
X36673432Y-31208056D01*
X36691433Y-31174379D01*
X36715659Y-31144859D01*
X36745179Y-31120633D01*
X36778856Y-31102632D01*
X36815396Y-31091547D01*
X36859538Y-31087200D01*
X39208462Y-31087200D01*
X39252604Y-31091547D01*
G37*
G36*
X68380511Y-31463845D02*
G01*
X68414489Y-31474153D01*
X68445810Y-31490894D01*
X68473259Y-31513421D01*
X68495786Y-31540870D01*
X68512527Y-31572191D01*
X68522835Y-31606169D01*
X68526920Y-31647650D01*
X68526920Y-32248870D01*
X68522835Y-32290351D01*
X68512527Y-32324329D01*
X68495786Y-32355650D01*
X68473259Y-32383099D01*
X68445810Y-32405626D01*
X68414489Y-32422367D01*
X68380511Y-32432675D01*
X68339030Y-32436760D01*
X67662810Y-32436760D01*
X67621329Y-32432675D01*
X67587351Y-32422367D01*
X67556030Y-32405626D01*
X67528581Y-32383099D01*
X67506054Y-32355650D01*
X67489313Y-32324329D01*
X67479005Y-32290351D01*
X67474920Y-32248870D01*
X67474920Y-31647650D01*
X67479005Y-31606169D01*
X67489313Y-31572191D01*
X67506054Y-31540870D01*
X67528581Y-31513421D01*
X67556030Y-31490894D01*
X67587351Y-31474153D01*
X67621329Y-31463845D01*
X67662810Y-31459760D01*
X68339030Y-31459760D01*
X68380511Y-31463845D01*
G37*
G36*
X44204791Y-31453585D02*
G01*
X44238769Y-31463893D01*
X44270090Y-31480634D01*
X44297539Y-31503161D01*
X44320066Y-31530610D01*
X44336807Y-31561931D01*
X44347115Y-31595909D01*
X44351200Y-31637390D01*
X44351200Y-32238610D01*
X44347115Y-32280091D01*
X44336807Y-32314069D01*
X44320066Y-32345390D01*
X44297539Y-32372839D01*
X44270090Y-32395366D01*
X44238769Y-32412107D01*
X44204791Y-32422415D01*
X44163310Y-32426500D01*
X43487090Y-32426500D01*
X43445609Y-32422415D01*
X43411631Y-32412107D01*
X43380310Y-32395366D01*
X43352861Y-32372839D01*
X43330334Y-32345390D01*
X43313593Y-32314069D01*
X43303285Y-32280091D01*
X43299200Y-32238610D01*
X43299200Y-31637390D01*
X43303285Y-31595909D01*
X43313593Y-31561931D01*
X43330334Y-31530610D01*
X43352861Y-31503161D01*
X43380310Y-31480634D01*
X43411631Y-31463893D01*
X43445609Y-31453585D01*
X43487090Y-31449500D01*
X44163310Y-31449500D01*
X44204791Y-31453585D01*
G37*
G36*
X96904999Y-29729737D02*
G01*
X96914608Y-29732652D01*
X96923472Y-29737390D01*
X96931237Y-29743763D01*
X96937610Y-29751528D01*
X96942348Y-29760392D01*
X96945263Y-29770001D01*
X96946852Y-29786140D01*
X96946852Y-30193860D01*
X96945263Y-30209999D01*
X96942348Y-30219608D01*
X96937608Y-30228475D01*
X96931675Y-30235705D01*
X96918062Y-30256079D01*
X96908685Y-30278719D01*
X96903906Y-30302752D01*
X96903906Y-30327256D01*
X96908688Y-30351289D01*
X96918066Y-30373928D01*
X96931675Y-30394295D01*
X96937608Y-30401525D01*
X96942348Y-30410392D01*
X96945263Y-30420001D01*
X96946852Y-30436140D01*
X96946852Y-30843860D01*
X96945263Y-30859999D01*
X96942348Y-30869608D01*
X96937608Y-30878475D01*
X96931675Y-30885705D01*
X96918062Y-30906079D01*
X96908685Y-30928719D01*
X96903906Y-30952752D01*
X96903906Y-30977256D01*
X96908688Y-31001289D01*
X96918066Y-31023928D01*
X96931675Y-31044295D01*
X96937608Y-31051525D01*
X96942348Y-31060392D01*
X96945263Y-31070001D01*
X96946852Y-31086140D01*
X96946852Y-31493860D01*
X96945263Y-31509999D01*
X96942348Y-31519608D01*
X96937608Y-31528475D01*
X96931675Y-31535705D01*
X96918062Y-31556079D01*
X96908685Y-31578719D01*
X96903906Y-31602752D01*
X96903906Y-31627256D01*
X96908688Y-31651289D01*
X96918066Y-31673928D01*
X96931675Y-31694295D01*
X96937608Y-31701525D01*
X96942348Y-31710392D01*
X96945263Y-31720001D01*
X96946852Y-31736140D01*
X96946852Y-32143860D01*
X96945263Y-32159999D01*
X96942348Y-32169608D01*
X96937610Y-32178472D01*
X96931237Y-32186237D01*
X96923472Y-32192610D01*
X96914608Y-32197348D01*
X96904999Y-32200263D01*
X96888860Y-32201852D01*
X94651140Y-32201852D01*
X94635001Y-32200263D01*
X94625392Y-32197348D01*
X94616528Y-32192610D01*
X94608763Y-32186237D01*
X94602390Y-32178472D01*
X94597652Y-32169608D01*
X94594737Y-32159999D01*
X94593148Y-32143860D01*
X94593148Y-29786140D01*
X94594737Y-29770001D01*
X94597652Y-29760392D01*
X94602390Y-29751528D01*
X94608763Y-29743763D01*
X94616528Y-29737390D01*
X94625392Y-29732652D01*
X94635001Y-29729737D01*
X94651140Y-29728148D01*
X96888860Y-29728148D01*
X96904999Y-29729737D01*
G37*
G36*
X93946000Y-32201000D02*
G01*
X93144000Y-32201000D01*
X93144000Y-29729000D01*
X93946000Y-29729000D01*
X93946000Y-32201000D01*
G37*
G36*
X24639149Y-30808099D02*
G01*
X24682782Y-30816778D01*
X24805806Y-30867736D01*
X24916525Y-30941716D01*
X25010684Y-31035875D01*
X25084664Y-31146594D01*
X25129203Y-31254122D01*
X25135622Y-31269619D01*
X25161600Y-31400218D01*
X25161600Y-31533382D01*
X25158046Y-31551247D01*
X25135622Y-31663982D01*
X25084664Y-31787006D01*
X25010684Y-31897725D01*
X24916525Y-31991884D01*
X24805806Y-32065864D01*
X24682782Y-32116822D01*
X24639248Y-32125481D01*
X24552182Y-32142800D01*
X24419018Y-32142800D01*
X24331952Y-32125481D01*
X24288418Y-32116822D01*
X24165394Y-32065864D01*
X24054675Y-31991884D01*
X23960516Y-31897725D01*
X23886536Y-31787006D01*
X23835578Y-31663982D01*
X23813154Y-31551247D01*
X23809600Y-31533382D01*
X23809600Y-31400218D01*
X23835578Y-31269619D01*
X23841997Y-31254122D01*
X23886536Y-31146594D01*
X23960516Y-31035875D01*
X24054675Y-30941716D01*
X24165394Y-30867736D01*
X24288418Y-30816778D01*
X24332051Y-30808099D01*
X24419018Y-30790800D01*
X24552182Y-30790800D01*
X24639149Y-30808099D01*
G37*
G36*
X22139149Y-30808099D02*
G01*
X22182782Y-30816778D01*
X22305806Y-30867736D01*
X22416525Y-30941716D01*
X22510684Y-31035875D01*
X22584664Y-31146594D01*
X22629203Y-31254122D01*
X22635622Y-31269619D01*
X22661600Y-31400218D01*
X22661600Y-31533382D01*
X22658046Y-31551247D01*
X22635622Y-31663982D01*
X22584664Y-31787006D01*
X22510684Y-31897725D01*
X22416525Y-31991884D01*
X22305806Y-32065864D01*
X22182782Y-32116822D01*
X22139248Y-32125481D01*
X22052182Y-32142800D01*
X21919018Y-32142800D01*
X21831952Y-32125481D01*
X21788418Y-32116822D01*
X21665394Y-32065864D01*
X21554675Y-31991884D01*
X21460516Y-31897725D01*
X21386536Y-31787006D01*
X21335578Y-31663982D01*
X21313154Y-31551247D01*
X21309600Y-31533382D01*
X21309600Y-31400218D01*
X21335578Y-31269619D01*
X21341997Y-31254122D01*
X21386536Y-31146594D01*
X21460516Y-31035875D01*
X21554675Y-30941716D01*
X21665394Y-30867736D01*
X21788418Y-30816778D01*
X21832051Y-30808099D01*
X21919018Y-30790800D01*
X22052182Y-30790800D01*
X22139149Y-30808099D01*
G37*
G36*
X30536600Y-32117800D02*
G01*
X28434600Y-32117800D01*
X28434600Y-30815800D01*
X30536600Y-30815800D01*
X30536600Y-32117800D01*
G37*
G36*
X52491000Y-31122760D02*
G01*
X50789000Y-31122760D01*
X50789000Y-29420760D01*
X52491000Y-29420760D01*
X52491000Y-31122760D01*
G37*
G36*
X54380031Y-29894125D02*
G01*
X54414009Y-29904433D01*
X54445330Y-29921174D01*
X54472779Y-29943701D01*
X54495306Y-29971150D01*
X54512047Y-30002471D01*
X54522355Y-30036449D01*
X54526440Y-30077930D01*
X54526440Y-30679150D01*
X54522355Y-30720631D01*
X54512047Y-30754609D01*
X54495306Y-30785930D01*
X54472779Y-30813379D01*
X54445330Y-30835906D01*
X54414009Y-30852647D01*
X54380031Y-30862955D01*
X54338550Y-30867040D01*
X53662330Y-30867040D01*
X53620849Y-30862955D01*
X53586871Y-30852647D01*
X53555550Y-30835906D01*
X53528101Y-30813379D01*
X53505574Y-30785930D01*
X53488833Y-30754609D01*
X53478525Y-30720631D01*
X53474440Y-30679150D01*
X53474440Y-30077930D01*
X53478525Y-30036449D01*
X53488833Y-30002471D01*
X53505574Y-29971150D01*
X53528101Y-29943701D01*
X53555550Y-29921174D01*
X53586871Y-29904433D01*
X53620849Y-29894125D01*
X53662330Y-29890040D01*
X54338550Y-29890040D01*
X54380031Y-29894125D01*
G37*
G36*
X68380511Y-29888845D02*
G01*
X68414489Y-29899153D01*
X68445810Y-29915894D01*
X68473259Y-29938421D01*
X68495786Y-29965870D01*
X68512527Y-29997191D01*
X68522835Y-30031169D01*
X68526920Y-30072650D01*
X68526920Y-30673870D01*
X68522835Y-30715351D01*
X68512527Y-30749329D01*
X68495786Y-30780650D01*
X68473259Y-30808099D01*
X68445810Y-30830626D01*
X68414489Y-30847367D01*
X68380511Y-30857675D01*
X68339030Y-30861760D01*
X67662810Y-30861760D01*
X67621329Y-30857675D01*
X67587351Y-30847367D01*
X67556030Y-30830626D01*
X67528581Y-30808099D01*
X67506054Y-30780650D01*
X67489313Y-30749329D01*
X67479005Y-30715351D01*
X67474920Y-30673870D01*
X67474920Y-30072650D01*
X67479005Y-30031169D01*
X67489313Y-29997191D01*
X67506054Y-29965870D01*
X67528581Y-29938421D01*
X67556030Y-29915894D01*
X67587351Y-29899153D01*
X67621329Y-29888845D01*
X67662810Y-29884760D01*
X68339030Y-29884760D01*
X68380511Y-29888845D01*
G37*
G36*
X44204791Y-29878585D02*
G01*
X44238769Y-29888893D01*
X44270090Y-29905634D01*
X44297539Y-29928161D01*
X44320066Y-29955610D01*
X44336807Y-29986931D01*
X44347115Y-30020909D01*
X44351200Y-30062390D01*
X44351200Y-30663610D01*
X44347115Y-30705091D01*
X44336807Y-30739069D01*
X44320066Y-30770390D01*
X44297539Y-30797839D01*
X44270090Y-30820366D01*
X44238769Y-30837107D01*
X44204791Y-30847415D01*
X44163310Y-30851500D01*
X43487090Y-30851500D01*
X43445609Y-30847415D01*
X43411631Y-30837107D01*
X43380310Y-30820366D01*
X43352861Y-30797839D01*
X43330334Y-30770390D01*
X43313593Y-30739069D01*
X43303285Y-30705091D01*
X43299200Y-30663610D01*
X43299200Y-30062390D01*
X43303285Y-30020909D01*
X43313593Y-29986931D01*
X43330334Y-29955610D01*
X43352861Y-29928161D01*
X43380310Y-29905634D01*
X43411631Y-29888893D01*
X43445609Y-29878585D01*
X43487090Y-29874500D01*
X44163310Y-29874500D01*
X44204791Y-29878585D01*
G37*
G36*
X101475780Y-30797740D02*
G01*
X97873660Y-30797740D01*
X97873660Y-27195620D01*
X101475780Y-27195620D01*
X101475780Y-30797740D01*
G37*
G36*
X62914431Y-29706165D02*
G01*
X62948409Y-29716473D01*
X62979730Y-29733214D01*
X63007179Y-29755741D01*
X63029706Y-29783190D01*
X63046447Y-29814511D01*
X63056755Y-29848489D01*
X63060840Y-29889970D01*
X63060840Y-30491190D01*
X63056755Y-30532671D01*
X63046447Y-30566649D01*
X63029706Y-30597970D01*
X63007179Y-30625419D01*
X62979730Y-30647946D01*
X62948409Y-30664687D01*
X62914431Y-30674995D01*
X62872950Y-30679080D01*
X62196730Y-30679080D01*
X62155249Y-30674995D01*
X62121271Y-30664687D01*
X62089950Y-30647946D01*
X62062501Y-30625419D01*
X62039974Y-30597970D01*
X62023233Y-30566649D01*
X62012925Y-30532671D01*
X62008840Y-30491190D01*
X62008840Y-29889970D01*
X62012925Y-29848489D01*
X62023233Y-29814511D01*
X62039974Y-29783190D01*
X62062501Y-29755741D01*
X62089950Y-29733214D01*
X62121271Y-29716473D01*
X62155249Y-29706165D01*
X62196730Y-29702080D01*
X62872950Y-29702080D01*
X62914431Y-29706165D01*
G37*
G36*
X85862610Y-28888097D02*
G01*
X85981084Y-28937171D01*
X86087708Y-29008415D01*
X86178385Y-29099092D01*
X86234777Y-29183488D01*
X86249630Y-29205718D01*
X86298703Y-29324190D01*
X86323720Y-29449961D01*
X86323720Y-29578199D01*
X86298703Y-29703970D01*
X86253483Y-29813141D01*
X86249629Y-29822444D01*
X86178385Y-29929068D01*
X86087708Y-30019745D01*
X85981084Y-30090989D01*
X85981083Y-30090990D01*
X85981082Y-30090990D01*
X85862610Y-30140063D01*
X85736839Y-30165080D01*
X85608601Y-30165080D01*
X85482830Y-30140063D01*
X85364358Y-30090990D01*
X85364357Y-30090990D01*
X85364356Y-30090989D01*
X85257732Y-30019745D01*
X85167055Y-29929068D01*
X85095811Y-29822444D01*
X85091958Y-29813141D01*
X85046737Y-29703970D01*
X85021720Y-29578199D01*
X85021720Y-29449961D01*
X85046737Y-29324190D01*
X85095810Y-29205718D01*
X85110664Y-29183488D01*
X85167055Y-29099092D01*
X85257732Y-29008415D01*
X85364356Y-28937171D01*
X85482830Y-28888097D01*
X85608601Y-28863080D01*
X85736839Y-28863080D01*
X85862610Y-28888097D01*
G37*
G36*
X83862610Y-28888097D02*
G01*
X83981084Y-28937171D01*
X84087708Y-29008415D01*
X84178385Y-29099092D01*
X84234777Y-29183488D01*
X84249630Y-29205718D01*
X84298703Y-29324190D01*
X84323720Y-29449961D01*
X84323720Y-29578199D01*
X84298703Y-29703970D01*
X84253483Y-29813141D01*
X84249629Y-29822444D01*
X84178385Y-29929068D01*
X84087708Y-30019745D01*
X83981084Y-30090989D01*
X83981083Y-30090990D01*
X83981082Y-30090990D01*
X83862610Y-30140063D01*
X83736839Y-30165080D01*
X83608601Y-30165080D01*
X83482830Y-30140063D01*
X83364358Y-30090990D01*
X83364357Y-30090990D01*
X83364356Y-30090989D01*
X83257732Y-30019745D01*
X83167055Y-29929068D01*
X83095811Y-29822444D01*
X83091958Y-29813141D01*
X83046737Y-29703970D01*
X83021720Y-29578199D01*
X83021720Y-29449961D01*
X83046737Y-29324190D01*
X83095810Y-29205718D01*
X83110664Y-29183488D01*
X83167055Y-29099092D01*
X83257732Y-29008415D01*
X83364356Y-28937171D01*
X83482830Y-28888097D01*
X83608601Y-28863080D01*
X83736839Y-28863080D01*
X83862610Y-28888097D01*
G37*
G36*
X81862610Y-28888097D02*
G01*
X81981084Y-28937171D01*
X82087708Y-29008415D01*
X82178385Y-29099092D01*
X82234777Y-29183488D01*
X82249630Y-29205718D01*
X82298703Y-29324190D01*
X82323720Y-29449961D01*
X82323720Y-29578199D01*
X82298703Y-29703970D01*
X82253483Y-29813141D01*
X82249629Y-29822444D01*
X82178385Y-29929068D01*
X82087708Y-30019745D01*
X81981084Y-30090989D01*
X81981083Y-30090990D01*
X81981082Y-30090990D01*
X81862610Y-30140063D01*
X81736839Y-30165080D01*
X81608601Y-30165080D01*
X81482830Y-30140063D01*
X81364358Y-30090990D01*
X81364357Y-30090990D01*
X81364356Y-30090989D01*
X81257732Y-30019745D01*
X81167055Y-29929068D01*
X81095811Y-29822444D01*
X81091958Y-29813141D01*
X81046737Y-29703970D01*
X81021720Y-29578199D01*
X81021720Y-29449961D01*
X81046737Y-29324190D01*
X81095810Y-29205718D01*
X81110664Y-29183488D01*
X81167055Y-29099092D01*
X81257732Y-29008415D01*
X81364356Y-28937171D01*
X81482830Y-28888097D01*
X81608601Y-28863080D01*
X81736839Y-28863080D01*
X81862610Y-28888097D01*
G37*
G36*
X27664400Y-29879000D02*
G01*
X26172400Y-29879000D01*
X26172400Y-28377000D01*
X27664400Y-28377000D01*
X27664400Y-29879000D01*
G37*
G36*
X29504400Y-29879000D02*
G01*
X28012400Y-29879000D01*
X28012400Y-28377000D01*
X29504400Y-28377000D01*
X29504400Y-29879000D01*
G37*
G36*
X57642204Y-28523147D02*
G01*
X57678744Y-28534232D01*
X57712421Y-28552233D01*
X57741941Y-28576459D01*
X57766167Y-28605979D01*
X57784168Y-28639656D01*
X57795253Y-28676196D01*
X57799600Y-28720338D01*
X57799600Y-29669262D01*
X57795253Y-29713404D01*
X57784168Y-29749944D01*
X57766167Y-29783621D01*
X57741941Y-29813141D01*
X57712421Y-29837367D01*
X57678744Y-29855368D01*
X57642204Y-29866453D01*
X57598062Y-29870800D01*
X55249138Y-29870800D01*
X55204996Y-29866453D01*
X55168456Y-29855368D01*
X55134779Y-29837367D01*
X55105259Y-29813141D01*
X55081033Y-29783621D01*
X55063032Y-29749944D01*
X55051947Y-29713404D01*
X55047600Y-29669262D01*
X55047600Y-28720338D01*
X55051947Y-28676196D01*
X55063032Y-28639656D01*
X55081033Y-28605979D01*
X55105259Y-28576459D01*
X55134779Y-28552233D01*
X55168456Y-28534232D01*
X55204996Y-28523147D01*
X55249138Y-28518800D01*
X57598062Y-28518800D01*
X57642204Y-28523147D01*
G37*
G36*
X60893404Y-28523147D02*
G01*
X60929944Y-28534232D01*
X60963621Y-28552233D01*
X60993141Y-28576459D01*
X61017367Y-28605979D01*
X61035368Y-28639656D01*
X61046453Y-28676196D01*
X61050800Y-28720338D01*
X61050800Y-29669262D01*
X61046453Y-29713404D01*
X61035368Y-29749944D01*
X61017367Y-29783621D01*
X60993141Y-29813141D01*
X60963621Y-29837367D01*
X60929944Y-29855368D01*
X60893404Y-29866453D01*
X60849262Y-29870800D01*
X58500338Y-29870800D01*
X58456196Y-29866453D01*
X58419656Y-29855368D01*
X58385979Y-29837367D01*
X58356459Y-29813141D01*
X58332233Y-29783621D01*
X58314232Y-29749944D01*
X58303147Y-29713404D01*
X58298800Y-29669262D01*
X58298800Y-28720338D01*
X58303147Y-28676196D01*
X58314232Y-28639656D01*
X58332233Y-28605979D01*
X58356459Y-28576459D01*
X58385979Y-28552233D01*
X58419656Y-28534232D01*
X58456196Y-28523147D01*
X58500338Y-28518800D01*
X60849262Y-28518800D01*
X60893404Y-28523147D01*
G37*
G36*
X35899804Y-28319947D02*
G01*
X35936344Y-28331032D01*
X35970021Y-28349033D01*
X35999541Y-28373259D01*
X36023767Y-28402779D01*
X36041768Y-28436456D01*
X36052853Y-28472996D01*
X36057200Y-28517138D01*
X36057200Y-29466062D01*
X36052853Y-29510204D01*
X36041768Y-29546744D01*
X36023767Y-29580421D01*
X35999541Y-29609941D01*
X35970021Y-29634167D01*
X35936344Y-29652168D01*
X35899804Y-29663253D01*
X35855662Y-29667600D01*
X33506738Y-29667600D01*
X33462596Y-29663253D01*
X33426056Y-29652168D01*
X33392379Y-29634167D01*
X33362859Y-29609941D01*
X33338633Y-29580421D01*
X33320632Y-29546744D01*
X33309547Y-29510204D01*
X33305200Y-29466062D01*
X33305200Y-28517138D01*
X33309547Y-28472996D01*
X33320632Y-28436456D01*
X33338633Y-28402779D01*
X33362859Y-28373259D01*
X33392379Y-28349033D01*
X33426056Y-28331032D01*
X33462596Y-28319947D01*
X33506738Y-28315600D01*
X35855662Y-28315600D01*
X35899804Y-28319947D01*
G37*
G36*
X39252604Y-28291547D02*
G01*
X39289144Y-28302632D01*
X39322821Y-28320633D01*
X39352341Y-28344859D01*
X39376567Y-28374379D01*
X39394568Y-28408056D01*
X39405653Y-28444596D01*
X39410000Y-28488738D01*
X39410000Y-29437662D01*
X39405653Y-29481804D01*
X39394568Y-29518344D01*
X39376567Y-29552021D01*
X39352341Y-29581541D01*
X39322821Y-29605767D01*
X39289144Y-29623768D01*
X39252604Y-29634853D01*
X39208462Y-29639200D01*
X36859538Y-29639200D01*
X36815396Y-29634853D01*
X36778856Y-29623768D01*
X36745179Y-29605767D01*
X36715659Y-29581541D01*
X36691433Y-29552021D01*
X36673432Y-29518344D01*
X36662347Y-29481804D01*
X36658000Y-29437662D01*
X36658000Y-28488738D01*
X36662347Y-28444596D01*
X36673432Y-28408056D01*
X36691433Y-28374379D01*
X36715659Y-28344859D01*
X36745179Y-28320633D01*
X36778856Y-28302632D01*
X36815396Y-28291547D01*
X36859538Y-28287200D01*
X39208462Y-28287200D01*
X39252604Y-28291547D01*
G37*
G36*
X42605404Y-28291547D02*
G01*
X42641944Y-28302632D01*
X42675621Y-28320633D01*
X42705141Y-28344859D01*
X42729367Y-28374379D01*
X42747368Y-28408056D01*
X42758453Y-28444596D01*
X42762800Y-28488738D01*
X42762800Y-29437662D01*
X42758453Y-29481804D01*
X42747368Y-29518344D01*
X42729367Y-29552021D01*
X42705141Y-29581541D01*
X42675621Y-29605767D01*
X42641944Y-29623768D01*
X42605404Y-29634853D01*
X42561262Y-29639200D01*
X40212338Y-29639200D01*
X40168196Y-29634853D01*
X40131656Y-29623768D01*
X40097979Y-29605767D01*
X40068459Y-29581541D01*
X40044233Y-29552021D01*
X40026232Y-29518344D01*
X40015147Y-29481804D01*
X40010800Y-29437662D01*
X40010800Y-28488738D01*
X40015147Y-28444596D01*
X40026232Y-28408056D01*
X40044233Y-28374379D01*
X40068459Y-28344859D01*
X40097979Y-28320633D01*
X40131656Y-28302632D01*
X40168196Y-28291547D01*
X40212338Y-28287200D01*
X42561262Y-28287200D01*
X42605404Y-28291547D01*
G37*
G36*
X54380031Y-28319125D02*
G01*
X54414009Y-28329433D01*
X54445330Y-28346174D01*
X54472779Y-28368701D01*
X54495306Y-28396150D01*
X54512047Y-28427471D01*
X54522355Y-28461449D01*
X54526440Y-28502930D01*
X54526440Y-29104150D01*
X54522355Y-29145631D01*
X54512047Y-29179609D01*
X54495306Y-29210930D01*
X54472779Y-29238379D01*
X54445330Y-29260906D01*
X54414009Y-29277647D01*
X54380031Y-29287955D01*
X54338550Y-29292040D01*
X53662330Y-29292040D01*
X53620849Y-29287955D01*
X53586871Y-29277647D01*
X53555550Y-29260906D01*
X53528101Y-29238379D01*
X53505574Y-29210930D01*
X53488833Y-29179609D01*
X53478525Y-29145631D01*
X53474440Y-29104150D01*
X53474440Y-28502930D01*
X53478525Y-28461449D01*
X53488833Y-28427471D01*
X53505574Y-28396150D01*
X53528101Y-28368701D01*
X53555550Y-28346174D01*
X53586871Y-28329433D01*
X53620849Y-28319125D01*
X53662330Y-28315040D01*
X54338550Y-28315040D01*
X54380031Y-28319125D01*
G37*
G36*
X62914431Y-28131165D02*
G01*
X62948409Y-28141473D01*
X62979730Y-28158214D01*
X63007179Y-28180741D01*
X63029706Y-28208190D01*
X63046447Y-28239511D01*
X63056755Y-28273489D01*
X63060840Y-28314970D01*
X63060840Y-28916190D01*
X63056755Y-28957671D01*
X63046447Y-28991649D01*
X63029706Y-29022970D01*
X63007179Y-29050419D01*
X62979730Y-29072946D01*
X62948409Y-29089687D01*
X62914431Y-29099995D01*
X62872950Y-29104080D01*
X62196730Y-29104080D01*
X62155249Y-29099995D01*
X62121271Y-29089687D01*
X62089950Y-29072946D01*
X62062501Y-29050419D01*
X62039974Y-29022970D01*
X62023233Y-28991649D01*
X62012925Y-28957671D01*
X62008840Y-28916190D01*
X62008840Y-28314970D01*
X62012925Y-28273489D01*
X62023233Y-28239511D01*
X62039974Y-28208190D01*
X62062501Y-28180741D01*
X62089950Y-28158214D01*
X62121271Y-28141473D01*
X62155249Y-28131165D01*
X62196730Y-28127080D01*
X62872950Y-28127080D01*
X62914431Y-28131165D01*
G37*
G36*
X65691360Y-28824080D02*
G01*
X65189360Y-28824080D01*
X65189360Y-28072080D01*
X65691360Y-28072080D01*
X65691360Y-28824080D01*
G37*
G36*
X64391360Y-28824080D02*
G01*
X63889360Y-28824080D01*
X63889360Y-28072080D01*
X64391360Y-28072080D01*
X64391360Y-28824080D01*
G37*
G36*
X96979591Y-27803085D02*
G01*
X97013569Y-27813393D01*
X97044890Y-27830134D01*
X97072339Y-27852661D01*
X97094866Y-27880110D01*
X97111607Y-27911431D01*
X97121915Y-27945409D01*
X97126000Y-27986890D01*
X97126000Y-28588110D01*
X97121915Y-28629591D01*
X97111607Y-28663569D01*
X97094866Y-28694890D01*
X97072339Y-28722339D01*
X97044890Y-28744866D01*
X97013569Y-28761607D01*
X96979591Y-28771915D01*
X96938110Y-28776000D01*
X96261890Y-28776000D01*
X96220409Y-28771915D01*
X96186431Y-28761607D01*
X96155110Y-28744866D01*
X96127661Y-28722339D01*
X96105134Y-28694890D01*
X96088393Y-28663569D01*
X96078085Y-28629591D01*
X96074000Y-28588110D01*
X96074000Y-27986890D01*
X96078085Y-27945409D01*
X96088393Y-27911431D01*
X96105134Y-27880110D01*
X96127661Y-27852661D01*
X96155110Y-27830134D01*
X96186431Y-27813393D01*
X96220409Y-27803085D01*
X96261890Y-27799000D01*
X96938110Y-27799000D01*
X96979591Y-27803085D01*
G37*
G36*
X95479591Y-27803085D02*
G01*
X95513569Y-27813393D01*
X95544890Y-27830134D01*
X95572339Y-27852661D01*
X95594866Y-27880110D01*
X95611607Y-27911431D01*
X95621915Y-27945409D01*
X95626000Y-27986890D01*
X95626000Y-28588110D01*
X95621915Y-28629591D01*
X95611607Y-28663569D01*
X95594866Y-28694890D01*
X95572339Y-28722339D01*
X95544890Y-28744866D01*
X95513569Y-28761607D01*
X95479591Y-28771915D01*
X95438110Y-28776000D01*
X94761890Y-28776000D01*
X94720409Y-28771915D01*
X94686431Y-28761607D01*
X94655110Y-28744866D01*
X94627661Y-28722339D01*
X94605134Y-28694890D01*
X94588393Y-28663569D01*
X94578085Y-28629591D01*
X94574000Y-28588110D01*
X94574000Y-27986890D01*
X94578085Y-27945409D01*
X94588393Y-27911431D01*
X94605134Y-27880110D01*
X94627661Y-27852661D01*
X94655110Y-27830134D01*
X94686431Y-27813393D01*
X94720409Y-27803085D01*
X94761890Y-27799000D01*
X95438110Y-27799000D01*
X95479591Y-27803085D01*
G37*
G36*
X91501000Y-28751000D02*
G01*
X89899000Y-28751000D01*
X89899000Y-26649000D01*
X91501000Y-26649000D01*
X91501000Y-28751000D01*
G37*
G36*
X93801000Y-28751000D02*
G01*
X92199000Y-28751000D01*
X92199000Y-26649000D01*
X93801000Y-26649000D01*
X93801000Y-28751000D01*
G37*
G36*
X89201000Y-28751000D02*
G01*
X87599000Y-28751000D01*
X87599000Y-26649000D01*
X89201000Y-26649000D01*
X89201000Y-28751000D01*
G37*
G36*
X67374671Y-27679245D02*
G01*
X67408649Y-27689553D01*
X67439970Y-27706294D01*
X67467419Y-27728821D01*
X67489946Y-27756270D01*
X67506687Y-27787591D01*
X67516995Y-27821569D01*
X67521080Y-27863050D01*
X67521080Y-28464270D01*
X67516995Y-28505751D01*
X67506687Y-28539729D01*
X67489946Y-28571050D01*
X67467419Y-28598499D01*
X67439970Y-28621026D01*
X67408649Y-28637767D01*
X67374671Y-28648075D01*
X67333190Y-28652160D01*
X66656970Y-28652160D01*
X66615489Y-28648075D01*
X66581511Y-28637767D01*
X66550190Y-28621026D01*
X66522741Y-28598499D01*
X66500214Y-28571050D01*
X66483473Y-28539729D01*
X66473165Y-28505751D01*
X66469080Y-28464270D01*
X66469080Y-27863050D01*
X66473165Y-27821569D01*
X66483473Y-27787591D01*
X66500214Y-27756270D01*
X66522741Y-27728821D01*
X66550190Y-27706294D01*
X66581511Y-27689553D01*
X66615489Y-27679245D01*
X66656970Y-27675160D01*
X67333190Y-27675160D01*
X67374671Y-27679245D01*
G37*
G36*
X70849391Y-27659025D02*
G01*
X70883369Y-27669333D01*
X70914690Y-27686074D01*
X70942139Y-27708601D01*
X70964666Y-27736050D01*
X70981407Y-27767371D01*
X70991715Y-27801349D01*
X70995800Y-27842830D01*
X70995800Y-28444050D01*
X70991715Y-28485531D01*
X70981407Y-28519509D01*
X70964666Y-28550830D01*
X70942139Y-28578279D01*
X70914690Y-28600806D01*
X70883369Y-28617547D01*
X70849391Y-28627855D01*
X70807910Y-28631940D01*
X70131690Y-28631940D01*
X70090209Y-28627855D01*
X70056231Y-28617547D01*
X70024910Y-28600806D01*
X69997461Y-28578279D01*
X69974934Y-28550830D01*
X69958193Y-28519509D01*
X69947885Y-28485531D01*
X69943800Y-28444050D01*
X69943800Y-27842830D01*
X69947885Y-27801349D01*
X69958193Y-27767371D01*
X69974934Y-27736050D01*
X69997461Y-27708601D01*
X70024910Y-27686074D01*
X70056231Y-27669333D01*
X70090209Y-27659025D01*
X70131690Y-27654940D01*
X70807910Y-27654940D01*
X70849391Y-27659025D01*
G37*
G36*
X69310151Y-27659025D02*
G01*
X69344129Y-27669333D01*
X69375450Y-27686074D01*
X69402899Y-27708601D01*
X69425426Y-27736050D01*
X69442167Y-27767371D01*
X69452475Y-27801349D01*
X69456560Y-27842830D01*
X69456560Y-28444050D01*
X69452475Y-28485531D01*
X69442167Y-28519509D01*
X69425426Y-28550830D01*
X69402899Y-28578279D01*
X69375450Y-28600806D01*
X69344129Y-28617547D01*
X69310151Y-28627855D01*
X69268670Y-28631940D01*
X68592450Y-28631940D01*
X68550969Y-28627855D01*
X68516991Y-28617547D01*
X68485670Y-28600806D01*
X68458221Y-28578279D01*
X68435694Y-28550830D01*
X68418953Y-28519509D01*
X68408645Y-28485531D01*
X68404560Y-28444050D01*
X68404560Y-27842830D01*
X68408645Y-27801349D01*
X68418953Y-27767371D01*
X68435694Y-27736050D01*
X68458221Y-27708601D01*
X68485670Y-27686074D01*
X68516991Y-27669333D01*
X68550969Y-27659025D01*
X68592450Y-27654940D01*
X69268670Y-27654940D01*
X69310151Y-27659025D01*
G37*
G36*
X51888228Y-26913463D02*
G01*
X52043100Y-26977613D01*
X52182481Y-27070745D01*
X52301015Y-27189279D01*
X52394147Y-27328660D01*
X52458297Y-27483532D01*
X52491000Y-27647944D01*
X52491000Y-27815576D01*
X52458297Y-27979988D01*
X52394147Y-28134860D01*
X52301015Y-28274241D01*
X52182481Y-28392775D01*
X52043100Y-28485907D01*
X51888228Y-28550057D01*
X51723816Y-28582760D01*
X51556184Y-28582760D01*
X51391772Y-28550057D01*
X51236900Y-28485907D01*
X51097519Y-28392775D01*
X50978985Y-28274241D01*
X50885853Y-28134860D01*
X50821703Y-27979988D01*
X50789000Y-27815576D01*
X50789000Y-27647944D01*
X50821703Y-27483532D01*
X50885853Y-27328660D01*
X50978985Y-27189279D01*
X51097519Y-27070745D01*
X51236900Y-26977613D01*
X51391772Y-26913463D01*
X51556184Y-26880760D01*
X51723816Y-26880760D01*
X51888228Y-26913463D01*
G37*
G36*
X81862610Y-26888097D02*
G01*
X81968502Y-26931959D01*
X81981084Y-26937171D01*
X82087708Y-27008415D01*
X82178385Y-27099092D01*
X82236861Y-27186607D01*
X82249630Y-27205718D01*
X82298703Y-27324190D01*
X82323720Y-27449961D01*
X82323720Y-27578199D01*
X82298703Y-27703970D01*
X82249992Y-27821569D01*
X82249629Y-27822444D01*
X82178385Y-27929068D01*
X82087708Y-28019745D01*
X81981084Y-28090989D01*
X81981083Y-28090990D01*
X81981082Y-28090990D01*
X81862610Y-28140063D01*
X81736839Y-28165080D01*
X81608601Y-28165080D01*
X81482830Y-28140063D01*
X81364358Y-28090990D01*
X81364357Y-28090990D01*
X81364356Y-28090989D01*
X81257732Y-28019745D01*
X81167055Y-27929068D01*
X81095811Y-27822444D01*
X81095449Y-27821569D01*
X81046737Y-27703970D01*
X81021720Y-27578199D01*
X81021720Y-27449961D01*
X81046737Y-27324190D01*
X81095810Y-27205718D01*
X81108580Y-27186607D01*
X81167055Y-27099092D01*
X81257732Y-27008415D01*
X81364356Y-26937171D01*
X81376939Y-26931959D01*
X81482830Y-26888097D01*
X81608601Y-26863080D01*
X81736839Y-26863080D01*
X81862610Y-26888097D01*
G37*
G36*
X83862610Y-26888097D02*
G01*
X83968502Y-26931959D01*
X83981084Y-26937171D01*
X84087708Y-27008415D01*
X84178385Y-27099092D01*
X84236861Y-27186607D01*
X84249630Y-27205718D01*
X84298703Y-27324190D01*
X84323720Y-27449961D01*
X84323720Y-27578199D01*
X84298703Y-27703970D01*
X84249992Y-27821569D01*
X84249629Y-27822444D01*
X84178385Y-27929068D01*
X84087708Y-28019745D01*
X83981084Y-28090989D01*
X83981083Y-28090990D01*
X83981082Y-28090990D01*
X83862610Y-28140063D01*
X83736839Y-28165080D01*
X83608601Y-28165080D01*
X83482830Y-28140063D01*
X83364358Y-28090990D01*
X83364357Y-28090990D01*
X83364356Y-28090989D01*
X83257732Y-28019745D01*
X83167055Y-27929068D01*
X83095811Y-27822444D01*
X83095449Y-27821569D01*
X83046737Y-27703970D01*
X83021720Y-27578199D01*
X83021720Y-27449961D01*
X83046737Y-27324190D01*
X83095810Y-27205718D01*
X83108580Y-27186607D01*
X83167055Y-27099092D01*
X83257732Y-27008415D01*
X83364356Y-26937171D01*
X83376939Y-26931959D01*
X83482830Y-26888097D01*
X83608601Y-26863080D01*
X83736839Y-26863080D01*
X83862610Y-26888097D01*
G37*
G36*
X73170655Y-21126603D02*
G01*
X73177670Y-21128731D01*
X73184136Y-21132188D01*
X73189802Y-21136838D01*
X73194452Y-21142504D01*
X73197909Y-21148970D01*
X73200037Y-21155985D01*
X73200963Y-21165389D01*
X73205743Y-21189422D01*
X73215121Y-21212061D01*
X73228734Y-21232435D01*
X73246061Y-21249762D01*
X73266436Y-21263376D01*
X73289075Y-21272754D01*
X73313108Y-21277534D01*
X73337612Y-21277534D01*
X73361645Y-21272754D01*
X73384284Y-21263376D01*
X73404658Y-21249763D01*
X73421985Y-21232436D01*
X73435599Y-21212061D01*
X73444977Y-21189422D01*
X73449757Y-21165389D01*
X73450683Y-21155985D01*
X73452811Y-21148970D01*
X73456268Y-21142504D01*
X73460918Y-21136838D01*
X73466584Y-21132188D01*
X73473050Y-21128731D01*
X73480065Y-21126603D01*
X73493500Y-21125280D01*
X73807220Y-21125280D01*
X73820655Y-21126603D01*
X73827670Y-21128731D01*
X73834136Y-21132188D01*
X73839802Y-21136838D01*
X73844452Y-21142504D01*
X73847909Y-21148970D01*
X73850037Y-21155985D01*
X73850963Y-21165389D01*
X73855743Y-21189422D01*
X73865121Y-21212061D01*
X73878734Y-21232435D01*
X73896061Y-21249762D01*
X73916436Y-21263376D01*
X73939075Y-21272754D01*
X73963108Y-21277534D01*
X73987612Y-21277534D01*
X74011645Y-21272754D01*
X74034284Y-21263376D01*
X74054658Y-21249763D01*
X74071985Y-21232436D01*
X74085599Y-21212061D01*
X74094977Y-21189422D01*
X74099757Y-21165389D01*
X74100683Y-21155985D01*
X74102811Y-21148970D01*
X74106268Y-21142504D01*
X74110918Y-21136838D01*
X74116584Y-21132188D01*
X74123050Y-21128731D01*
X74130065Y-21126603D01*
X74143500Y-21125280D01*
X74457220Y-21125280D01*
X74470655Y-21126603D01*
X74477670Y-21128731D01*
X74484136Y-21132188D01*
X74489802Y-21136838D01*
X74494452Y-21142504D01*
X74497909Y-21148970D01*
X74500037Y-21155985D01*
X74500963Y-21165389D01*
X74505743Y-21189422D01*
X74515121Y-21212061D01*
X74528734Y-21232435D01*
X74546061Y-21249762D01*
X74566436Y-21263376D01*
X74589075Y-21272754D01*
X74613108Y-21277534D01*
X74637612Y-21277534D01*
X74661645Y-21272754D01*
X74684284Y-21263376D01*
X74704658Y-21249763D01*
X74721985Y-21232436D01*
X74735599Y-21212061D01*
X74744977Y-21189422D01*
X74749757Y-21165389D01*
X74750683Y-21155985D01*
X74752811Y-21148970D01*
X74756268Y-21142504D01*
X74760918Y-21136838D01*
X74766584Y-21132188D01*
X74773050Y-21128731D01*
X74780065Y-21126603D01*
X74793500Y-21125280D01*
X75107220Y-21125280D01*
X75120655Y-21126603D01*
X75127670Y-21128731D01*
X75134136Y-21132188D01*
X75139802Y-21136838D01*
X75144452Y-21142504D01*
X75147909Y-21148970D01*
X75150037Y-21155985D01*
X75150963Y-21165389D01*
X75155743Y-21189422D01*
X75165121Y-21212061D01*
X75178734Y-21232435D01*
X75196061Y-21249762D01*
X75216436Y-21263376D01*
X75239075Y-21272754D01*
X75263108Y-21277534D01*
X75287612Y-21277534D01*
X75311645Y-21272754D01*
X75334284Y-21263376D01*
X75354658Y-21249763D01*
X75371985Y-21232436D01*
X75385599Y-21212061D01*
X75394977Y-21189422D01*
X75399757Y-21165389D01*
X75400683Y-21155985D01*
X75402811Y-21148970D01*
X75406268Y-21142504D01*
X75410918Y-21136838D01*
X75416584Y-21132188D01*
X75423050Y-21128731D01*
X75430065Y-21126603D01*
X75443500Y-21125280D01*
X75757220Y-21125280D01*
X75770655Y-21126603D01*
X75777670Y-21128731D01*
X75784136Y-21132188D01*
X75789802Y-21136838D01*
X75794452Y-21142504D01*
X75797909Y-21148970D01*
X75800037Y-21155985D01*
X75800963Y-21165389D01*
X75805743Y-21189422D01*
X75815121Y-21212061D01*
X75828734Y-21232435D01*
X75846061Y-21249762D01*
X75866436Y-21263376D01*
X75889075Y-21272754D01*
X75913108Y-21277534D01*
X75937612Y-21277534D01*
X75961645Y-21272754D01*
X75984284Y-21263376D01*
X76004658Y-21249763D01*
X76021985Y-21232436D01*
X76035599Y-21212061D01*
X76044977Y-21189422D01*
X76049757Y-21165389D01*
X76050683Y-21155985D01*
X76052811Y-21148970D01*
X76056268Y-21142504D01*
X76060918Y-21136838D01*
X76066584Y-21132188D01*
X76073050Y-21128731D01*
X76080065Y-21126603D01*
X76093500Y-21125280D01*
X76407220Y-21125280D01*
X76420655Y-21126603D01*
X76427670Y-21128731D01*
X76434136Y-21132188D01*
X76439802Y-21136838D01*
X76444452Y-21142504D01*
X76447909Y-21148970D01*
X76450037Y-21155985D01*
X76450963Y-21165389D01*
X76455743Y-21189422D01*
X76465121Y-21212061D01*
X76478734Y-21232435D01*
X76496061Y-21249762D01*
X76516436Y-21263376D01*
X76539075Y-21272754D01*
X76563108Y-21277534D01*
X76587612Y-21277534D01*
X76611645Y-21272754D01*
X76634284Y-21263376D01*
X76654658Y-21249763D01*
X76671985Y-21232436D01*
X76685599Y-21212061D01*
X76694977Y-21189422D01*
X76699757Y-21165389D01*
X76700683Y-21155985D01*
X76702811Y-21148970D01*
X76706268Y-21142504D01*
X76710918Y-21136838D01*
X76716584Y-21132188D01*
X76723050Y-21128731D01*
X76730065Y-21126603D01*
X76743500Y-21125280D01*
X77057220Y-21125280D01*
X77070655Y-21126603D01*
X77077670Y-21128731D01*
X77084136Y-21132188D01*
X77089802Y-21136838D01*
X77094452Y-21142504D01*
X77097909Y-21148970D01*
X77100037Y-21155985D01*
X77101360Y-21169420D01*
X77101360Y-22208140D01*
X77099909Y-22222878D01*
X77095637Y-22244354D01*
X77095637Y-22268858D01*
X77100418Y-22292892D01*
X77109795Y-22315530D01*
X77123409Y-22335905D01*
X77140736Y-22353232D01*
X77161110Y-22366845D01*
X77183749Y-22376223D01*
X77207782Y-22381003D01*
X77232286Y-22381003D01*
X77253762Y-22376731D01*
X77268500Y-22375280D01*
X78307220Y-22375280D01*
X78320655Y-22376603D01*
X78327670Y-22378731D01*
X78334136Y-22382188D01*
X78339802Y-22386838D01*
X78344452Y-22392504D01*
X78347909Y-22398970D01*
X78350037Y-22405985D01*
X78351360Y-22419420D01*
X78351360Y-22733140D01*
X78350037Y-22746575D01*
X78347909Y-22753590D01*
X78344452Y-22760056D01*
X78339802Y-22765722D01*
X78334136Y-22770372D01*
X78327670Y-22773829D01*
X78320655Y-22775957D01*
X78311251Y-22776883D01*
X78287218Y-22781663D01*
X78264579Y-22791041D01*
X78244205Y-22804654D01*
X78226878Y-22821981D01*
X78213264Y-22842356D01*
X78203886Y-22864995D01*
X78199106Y-22889028D01*
X78199106Y-22913532D01*
X78203886Y-22937565D01*
X78213264Y-22960204D01*
X78226877Y-22980578D01*
X78244204Y-22997905D01*
X78264579Y-23011519D01*
X78287218Y-23020897D01*
X78311251Y-23025677D01*
X78320655Y-23026603D01*
X78327670Y-23028731D01*
X78334136Y-23032188D01*
X78339802Y-23036838D01*
X78344452Y-23042504D01*
X78347909Y-23048970D01*
X78350037Y-23055985D01*
X78351360Y-23069420D01*
X78351360Y-23383140D01*
X78350037Y-23396575D01*
X78347909Y-23403590D01*
X78344452Y-23410056D01*
X78339802Y-23415722D01*
X78334136Y-23420372D01*
X78327670Y-23423829D01*
X78320655Y-23425957D01*
X78311251Y-23426883D01*
X78287218Y-23431663D01*
X78264579Y-23441041D01*
X78244205Y-23454654D01*
X78226878Y-23471981D01*
X78213264Y-23492356D01*
X78203886Y-23514995D01*
X78199106Y-23539028D01*
X78199106Y-23563532D01*
X78203886Y-23587565D01*
X78213264Y-23610204D01*
X78226877Y-23630578D01*
X78244204Y-23647905D01*
X78264579Y-23661519D01*
X78287218Y-23670897D01*
X78311251Y-23675677D01*
X78320655Y-23676603D01*
X78327670Y-23678731D01*
X78334136Y-23682188D01*
X78339802Y-23686838D01*
X78344452Y-23692504D01*
X78347909Y-23698970D01*
X78350037Y-23705985D01*
X78351360Y-23719420D01*
X78351360Y-24033140D01*
X78350037Y-24046575D01*
X78347909Y-24053590D01*
X78344452Y-24060056D01*
X78339802Y-24065722D01*
X78334136Y-24070372D01*
X78327670Y-24073829D01*
X78320655Y-24075957D01*
X78311251Y-24076883D01*
X78287218Y-24081663D01*
X78264579Y-24091041D01*
X78244205Y-24104654D01*
X78226878Y-24121981D01*
X78213264Y-24142356D01*
X78203886Y-24164995D01*
X78199106Y-24189028D01*
X78199106Y-24213532D01*
X78203886Y-24237565D01*
X78213264Y-24260204D01*
X78226877Y-24280578D01*
X78244204Y-24297905D01*
X78264579Y-24311519D01*
X78287218Y-24320897D01*
X78311251Y-24325677D01*
X78320655Y-24326603D01*
X78327670Y-24328731D01*
X78334136Y-24332188D01*
X78339802Y-24336838D01*
X78344452Y-24342504D01*
X78347909Y-24348970D01*
X78350037Y-24355985D01*
X78351360Y-24369420D01*
X78351360Y-24683140D01*
X78350037Y-24696575D01*
X78347909Y-24703590D01*
X78344452Y-24710056D01*
X78339802Y-24715722D01*
X78334136Y-24720372D01*
X78327670Y-24723829D01*
X78320655Y-24725957D01*
X78311251Y-24726883D01*
X78287218Y-24731663D01*
X78264579Y-24741041D01*
X78244205Y-24754654D01*
X78226878Y-24771981D01*
X78213264Y-24792356D01*
X78203886Y-24814995D01*
X78199106Y-24839028D01*
X78199106Y-24863532D01*
X78203886Y-24887565D01*
X78213264Y-24910204D01*
X78226877Y-24930578D01*
X78244204Y-24947905D01*
X78264579Y-24961519D01*
X78287218Y-24970897D01*
X78311251Y-24975677D01*
X78320655Y-24976603D01*
X78327670Y-24978731D01*
X78334136Y-24982188D01*
X78339802Y-24986838D01*
X78344452Y-24992504D01*
X78347909Y-24998970D01*
X78350037Y-25005985D01*
X78351360Y-25019420D01*
X78351360Y-25333140D01*
X78350037Y-25346575D01*
X78347909Y-25353590D01*
X78344452Y-25360056D01*
X78339802Y-25365722D01*
X78334136Y-25370372D01*
X78327670Y-25373829D01*
X78320655Y-25375957D01*
X78311251Y-25376883D01*
X78287218Y-25381663D01*
X78264579Y-25391041D01*
X78244205Y-25404654D01*
X78226878Y-25421981D01*
X78213264Y-25442356D01*
X78203886Y-25464995D01*
X78199106Y-25489028D01*
X78199106Y-25513532D01*
X78203886Y-25537565D01*
X78213264Y-25560204D01*
X78226877Y-25580578D01*
X78244204Y-25597905D01*
X78264579Y-25611519D01*
X78287218Y-25620897D01*
X78311251Y-25625677D01*
X78320655Y-25626603D01*
X78327670Y-25628731D01*
X78334136Y-25632188D01*
X78339802Y-25636838D01*
X78344452Y-25642504D01*
X78347909Y-25648970D01*
X78350037Y-25655985D01*
X78351360Y-25669420D01*
X78351360Y-25983140D01*
X78350037Y-25996575D01*
X78347909Y-26003590D01*
X78344452Y-26010056D01*
X78339802Y-26015722D01*
X78334136Y-26020372D01*
X78327670Y-26023829D01*
X78320655Y-26025957D01*
X78311251Y-26026883D01*
X78287218Y-26031663D01*
X78264579Y-26041041D01*
X78244205Y-26054654D01*
X78226878Y-26071981D01*
X78213264Y-26092356D01*
X78203886Y-26114995D01*
X78199106Y-26139028D01*
X78199106Y-26163532D01*
X78203886Y-26187565D01*
X78213264Y-26210204D01*
X78226877Y-26230578D01*
X78244204Y-26247905D01*
X78264579Y-26261519D01*
X78287218Y-26270897D01*
X78311251Y-26275677D01*
X78320655Y-26276603D01*
X78327670Y-26278731D01*
X78334136Y-26282188D01*
X78339802Y-26286838D01*
X78344452Y-26292504D01*
X78347909Y-26298970D01*
X78350037Y-26305985D01*
X78351360Y-26319420D01*
X78351360Y-26633140D01*
X78350037Y-26646575D01*
X78347909Y-26653590D01*
X78344452Y-26660056D01*
X78339802Y-26665722D01*
X78334136Y-26670372D01*
X78327670Y-26673829D01*
X78320655Y-26675957D01*
X78307220Y-26677280D01*
X77268500Y-26677280D01*
X77253762Y-26675829D01*
X77232286Y-26671557D01*
X77207782Y-26671557D01*
X77183748Y-26676338D01*
X77161110Y-26685715D01*
X77140735Y-26699329D01*
X77123408Y-26716656D01*
X77109795Y-26737030D01*
X77100417Y-26759669D01*
X77095637Y-26783702D01*
X77095637Y-26808206D01*
X77099909Y-26829682D01*
X77101360Y-26844420D01*
X77101360Y-27883140D01*
X77100037Y-27896575D01*
X77097909Y-27903590D01*
X77094452Y-27910056D01*
X77089802Y-27915722D01*
X77084136Y-27920372D01*
X77077670Y-27923829D01*
X77070655Y-27925957D01*
X77057220Y-27927280D01*
X76743500Y-27927280D01*
X76730065Y-27925957D01*
X76723050Y-27923829D01*
X76716584Y-27920372D01*
X76710918Y-27915722D01*
X76706268Y-27910056D01*
X76702811Y-27903590D01*
X76700683Y-27896575D01*
X76699757Y-27887171D01*
X76694977Y-27863138D01*
X76685599Y-27840499D01*
X76671986Y-27820125D01*
X76654659Y-27802798D01*
X76634284Y-27789184D01*
X76611645Y-27779806D01*
X76587612Y-27775026D01*
X76563108Y-27775026D01*
X76539075Y-27779806D01*
X76516436Y-27789184D01*
X76496062Y-27802797D01*
X76478735Y-27820124D01*
X76465121Y-27840499D01*
X76455743Y-27863138D01*
X76450963Y-27887171D01*
X76450037Y-27896575D01*
X76447909Y-27903590D01*
X76444452Y-27910056D01*
X76439802Y-27915722D01*
X76434136Y-27920372D01*
X76427670Y-27923829D01*
X76420655Y-27925957D01*
X76407220Y-27927280D01*
X76093500Y-27927280D01*
X76080065Y-27925957D01*
X76073050Y-27923829D01*
X76066584Y-27920372D01*
X76060918Y-27915722D01*
X76056268Y-27910056D01*
X76052811Y-27903590D01*
X76050683Y-27896575D01*
X76049757Y-27887171D01*
X76044977Y-27863138D01*
X76035599Y-27840499D01*
X76021986Y-27820125D01*
X76004659Y-27802798D01*
X75984284Y-27789184D01*
X75961645Y-27779806D01*
X75937612Y-27775026D01*
X75913108Y-27775026D01*
X75889075Y-27779806D01*
X75866436Y-27789184D01*
X75846062Y-27802797D01*
X75828735Y-27820124D01*
X75815121Y-27840499D01*
X75805743Y-27863138D01*
X75800963Y-27887171D01*
X75800037Y-27896575D01*
X75797909Y-27903590D01*
X75794452Y-27910056D01*
X75789802Y-27915722D01*
X75784136Y-27920372D01*
X75777670Y-27923829D01*
X75770655Y-27925957D01*
X75757220Y-27927280D01*
X75443500Y-27927280D01*
X75430065Y-27925957D01*
X75423050Y-27923829D01*
X75416584Y-27920372D01*
X75410918Y-27915722D01*
X75406268Y-27910056D01*
X75402811Y-27903590D01*
X75400683Y-27896575D01*
X75399757Y-27887171D01*
X75394977Y-27863138D01*
X75385599Y-27840499D01*
X75371986Y-27820125D01*
X75354659Y-27802798D01*
X75334284Y-27789184D01*
X75311645Y-27779806D01*
X75287612Y-27775026D01*
X75263108Y-27775026D01*
X75239075Y-27779806D01*
X75216436Y-27789184D01*
X75196062Y-27802797D01*
X75178735Y-27820124D01*
X75165121Y-27840499D01*
X75155743Y-27863138D01*
X75150963Y-27887171D01*
X75150037Y-27896575D01*
X75147909Y-27903590D01*
X75144452Y-27910056D01*
X75139802Y-27915722D01*
X75134136Y-27920372D01*
X75127670Y-27923829D01*
X75120655Y-27925957D01*
X75107220Y-27927280D01*
X74793500Y-27927280D01*
X74780065Y-27925957D01*
X74773050Y-27923829D01*
X74766584Y-27920372D01*
X74760918Y-27915722D01*
X74756268Y-27910056D01*
X74752811Y-27903590D01*
X74750683Y-27896575D01*
X74749757Y-27887171D01*
X74744977Y-27863138D01*
X74735599Y-27840499D01*
X74721986Y-27820125D01*
X74704659Y-27802798D01*
X74684284Y-27789184D01*
X74661645Y-27779806D01*
X74637612Y-27775026D01*
X74613108Y-27775026D01*
X74589075Y-27779806D01*
X74566436Y-27789184D01*
X74546062Y-27802797D01*
X74528735Y-27820124D01*
X74515121Y-27840499D01*
X74505743Y-27863138D01*
X74500963Y-27887171D01*
X74500037Y-27896575D01*
X74497909Y-27903590D01*
X74494452Y-27910056D01*
X74489802Y-27915722D01*
X74484136Y-27920372D01*
X74477670Y-27923829D01*
X74470655Y-27925957D01*
X74457220Y-27927280D01*
X74143500Y-27927280D01*
X74130065Y-27925957D01*
X74123050Y-27923829D01*
X74116584Y-27920372D01*
X74110918Y-27915722D01*
X74106268Y-27910056D01*
X74102811Y-27903590D01*
X74100683Y-27896575D01*
X74099757Y-27887171D01*
X74094977Y-27863138D01*
X74085599Y-27840499D01*
X74071986Y-27820125D01*
X74054659Y-27802798D01*
X74034284Y-27789184D01*
X74011645Y-27779806D01*
X73987612Y-27775026D01*
X73963108Y-27775026D01*
X73939075Y-27779806D01*
X73916436Y-27789184D01*
X73896062Y-27802797D01*
X73878735Y-27820124D01*
X73865121Y-27840499D01*
X73855743Y-27863138D01*
X73850963Y-27887171D01*
X73850037Y-27896575D01*
X73847909Y-27903590D01*
X73844452Y-27910056D01*
X73839802Y-27915722D01*
X73834136Y-27920372D01*
X73827670Y-27923829D01*
X73820655Y-27925957D01*
X73807220Y-27927280D01*
X73493500Y-27927280D01*
X73480065Y-27925957D01*
X73473050Y-27923829D01*
X73466584Y-27920372D01*
X73460918Y-27915722D01*
X73456268Y-27910056D01*
X73452811Y-27903590D01*
X73450683Y-27896575D01*
X73449757Y-27887171D01*
X73444977Y-27863138D01*
X73435599Y-27840499D01*
X73421986Y-27820125D01*
X73404659Y-27802798D01*
X73384284Y-27789184D01*
X73361645Y-27779806D01*
X73337612Y-27775026D01*
X73313108Y-27775026D01*
X73289075Y-27779806D01*
X73266436Y-27789184D01*
X73246062Y-27802797D01*
X73228735Y-27820124D01*
X73215121Y-27840499D01*
X73205743Y-27863138D01*
X73200963Y-27887171D01*
X73200037Y-27896575D01*
X73197909Y-27903590D01*
X73194452Y-27910056D01*
X73189802Y-27915722D01*
X73184136Y-27920372D01*
X73177670Y-27923829D01*
X73170655Y-27925957D01*
X73157220Y-27927280D01*
X72843500Y-27927280D01*
X72830065Y-27925957D01*
X72823050Y-27923829D01*
X72816584Y-27920372D01*
X72810918Y-27915722D01*
X72806268Y-27910056D01*
X72802811Y-27903590D01*
X72800683Y-27896575D01*
X72799360Y-27883140D01*
X72799360Y-26844420D01*
X72799848Y-26839458D01*
X73200872Y-26839458D01*
X73200956Y-26840316D01*
X73205722Y-26864352D01*
X73215086Y-26886997D01*
X73228688Y-26907379D01*
X73246005Y-26924716D01*
X73266372Y-26938342D01*
X73289005Y-26947732D01*
X73313035Y-26952527D01*
X73337539Y-26952541D01*
X73361575Y-26947775D01*
X73384220Y-26938411D01*
X73404602Y-26924809D01*
X73421939Y-26907492D01*
X73435565Y-26887125D01*
X73444955Y-26864492D01*
X73449764Y-26840316D01*
X73449848Y-26839458D01*
X73850872Y-26839458D01*
X73850956Y-26840316D01*
X73855722Y-26864352D01*
X73865086Y-26886997D01*
X73878688Y-26907379D01*
X73896005Y-26924716D01*
X73916372Y-26938342D01*
X73939005Y-26947732D01*
X73963035Y-26952527D01*
X73987539Y-26952541D01*
X74011575Y-26947775D01*
X74034220Y-26938411D01*
X74054602Y-26924809D01*
X74071939Y-26907492D01*
X74085565Y-26887125D01*
X74094955Y-26864492D01*
X74099764Y-26840316D01*
X74099848Y-26839458D01*
X74500872Y-26839458D01*
X74500956Y-26840316D01*
X74505722Y-26864352D01*
X74515086Y-26886997D01*
X74528688Y-26907379D01*
X74546005Y-26924716D01*
X74566372Y-26938342D01*
X74589005Y-26947732D01*
X74613035Y-26952527D01*
X74637539Y-26952541D01*
X74661575Y-26947775D01*
X74684220Y-26938411D01*
X74704602Y-26924809D01*
X74721939Y-26907492D01*
X74735565Y-26887125D01*
X74744955Y-26864492D01*
X74749764Y-26840316D01*
X74749848Y-26839458D01*
X75150872Y-26839458D01*
X75150956Y-26840316D01*
X75155722Y-26864352D01*
X75165086Y-26886997D01*
X75178688Y-26907379D01*
X75196005Y-26924716D01*
X75216372Y-26938342D01*
X75239005Y-26947732D01*
X75263035Y-26952527D01*
X75287539Y-26952541D01*
X75311575Y-26947775D01*
X75334220Y-26938411D01*
X75354602Y-26924809D01*
X75371939Y-26907492D01*
X75385565Y-26887125D01*
X75394955Y-26864492D01*
X75399764Y-26840316D01*
X75399848Y-26839458D01*
X75800872Y-26839458D01*
X75800956Y-26840316D01*
X75805722Y-26864352D01*
X75815086Y-26886997D01*
X75828688Y-26907379D01*
X75846005Y-26924716D01*
X75866372Y-26938342D01*
X75889005Y-26947732D01*
X75913035Y-26952527D01*
X75937539Y-26952541D01*
X75961575Y-26947775D01*
X75984220Y-26938411D01*
X76004602Y-26924809D01*
X76021939Y-26907492D01*
X76035565Y-26887125D01*
X76044955Y-26864492D01*
X76049764Y-26840316D01*
X76049848Y-26839458D01*
X76450872Y-26839458D01*
X76450956Y-26840316D01*
X76455722Y-26864352D01*
X76465086Y-26886997D01*
X76478688Y-26907379D01*
X76496005Y-26924716D01*
X76516372Y-26938342D01*
X76539005Y-26947732D01*
X76563035Y-26952527D01*
X76587539Y-26952541D01*
X76611575Y-26947775D01*
X76634220Y-26938411D01*
X76654602Y-26924809D01*
X76671939Y-26907492D01*
X76685565Y-26887125D01*
X76694955Y-26864492D01*
X76699764Y-26840316D01*
X76699848Y-26839458D01*
X76699834Y-26814954D01*
X76695039Y-26790924D01*
X76685649Y-26768291D01*
X76672023Y-26747924D01*
X76654686Y-26730607D01*
X76634304Y-26717005D01*
X76611659Y-26707641D01*
X76575444Y-26702280D01*
X76575276Y-26702280D01*
X76550890Y-26704682D01*
X76527441Y-26711795D01*
X76505830Y-26723346D01*
X76486888Y-26738891D01*
X76471343Y-26757833D01*
X76459792Y-26779444D01*
X76452679Y-26802893D01*
X76450872Y-26839458D01*
X76049848Y-26839458D01*
X76049834Y-26814954D01*
X76045039Y-26790924D01*
X76035649Y-26768291D01*
X76022023Y-26747924D01*
X76004686Y-26730607D01*
X75984304Y-26717005D01*
X75961659Y-26707641D01*
X75925444Y-26702280D01*
X75925276Y-26702280D01*
X75900890Y-26704682D01*
X75877441Y-26711795D01*
X75855830Y-26723346D01*
X75836888Y-26738891D01*
X75821343Y-26757833D01*
X75809792Y-26779444D01*
X75802679Y-26802893D01*
X75800872Y-26839458D01*
X75399848Y-26839458D01*
X75399834Y-26814954D01*
X75395039Y-26790924D01*
X75385649Y-26768291D01*
X75372023Y-26747924D01*
X75354686Y-26730607D01*
X75334304Y-26717005D01*
X75311659Y-26707641D01*
X75275444Y-26702280D01*
X75275276Y-26702280D01*
X75250890Y-26704682D01*
X75227441Y-26711795D01*
X75205830Y-26723346D01*
X75186888Y-26738891D01*
X75171343Y-26757833D01*
X75159792Y-26779444D01*
X75152679Y-26802893D01*
X75150872Y-26839458D01*
X74749848Y-26839458D01*
X74749834Y-26814954D01*
X74745039Y-26790924D01*
X74735649Y-26768291D01*
X74722023Y-26747924D01*
X74704686Y-26730607D01*
X74684304Y-26717005D01*
X74661659Y-26707641D01*
X74625444Y-26702280D01*
X74625276Y-26702280D01*
X74600890Y-26704682D01*
X74577441Y-26711795D01*
X74555830Y-26723346D01*
X74536888Y-26738891D01*
X74521343Y-26757833D01*
X74509792Y-26779444D01*
X74502679Y-26802893D01*
X74500872Y-26839458D01*
X74099848Y-26839458D01*
X74099834Y-26814954D01*
X74095039Y-26790924D01*
X74085649Y-26768291D01*
X74072023Y-26747924D01*
X74054686Y-26730607D01*
X74034304Y-26717005D01*
X74011659Y-26707641D01*
X73975444Y-26702280D01*
X73975276Y-26702280D01*
X73950890Y-26704682D01*
X73927441Y-26711795D01*
X73905830Y-26723346D01*
X73886888Y-26738891D01*
X73871343Y-26757833D01*
X73859792Y-26779444D01*
X73852679Y-26802893D01*
X73850872Y-26839458D01*
X73449848Y-26839458D01*
X73449834Y-26814954D01*
X73445039Y-26790924D01*
X73435649Y-26768291D01*
X73422023Y-26747924D01*
X73404686Y-26730607D01*
X73384304Y-26717005D01*
X73361659Y-26707641D01*
X73325444Y-26702280D01*
X73325276Y-26702280D01*
X73300890Y-26704682D01*
X73277441Y-26711795D01*
X73255830Y-26723346D01*
X73236888Y-26738891D01*
X73221343Y-26757833D01*
X73209792Y-26779444D01*
X73202679Y-26802893D01*
X73200872Y-26839458D01*
X72799848Y-26839458D01*
X72800811Y-26829682D01*
X72805083Y-26808206D01*
X72805083Y-26783702D01*
X72800302Y-26759668D01*
X72790925Y-26737030D01*
X72777311Y-26716655D01*
X72759984Y-26699328D01*
X72739610Y-26685715D01*
X72716971Y-26676337D01*
X72692938Y-26671557D01*
X72668434Y-26671557D01*
X72646958Y-26675829D01*
X72632220Y-26677280D01*
X71593500Y-26677280D01*
X71580065Y-26675957D01*
X71573050Y-26673829D01*
X71566584Y-26670372D01*
X71560918Y-26665722D01*
X71556268Y-26660056D01*
X71552811Y-26653590D01*
X71550683Y-26646575D01*
X71549360Y-26633140D01*
X71549360Y-26319420D01*
X71550683Y-26305985D01*
X71552811Y-26298970D01*
X71556268Y-26292504D01*
X71560918Y-26286838D01*
X71566584Y-26282188D01*
X71573050Y-26278731D01*
X71580065Y-26276603D01*
X71589469Y-26275677D01*
X71613502Y-26270897D01*
X71636141Y-26261519D01*
X71656515Y-26247906D01*
X71673842Y-26230579D01*
X71687456Y-26210204D01*
X71696834Y-26187565D01*
X71701614Y-26163532D01*
X71701614Y-26163459D01*
X72524099Y-26163459D01*
X72528865Y-26187495D01*
X72538229Y-26210140D01*
X72551831Y-26230522D01*
X72569148Y-26247859D01*
X72589515Y-26261485D01*
X72612148Y-26270875D01*
X72636324Y-26275684D01*
X72637182Y-26275768D01*
X72661686Y-26275754D01*
X72685716Y-26270959D01*
X72708349Y-26261569D01*
X72728716Y-26247943D01*
X72746033Y-26230606D01*
X72759635Y-26210224D01*
X72768999Y-26187579D01*
X72774360Y-26151364D01*
X72774360Y-26151196D01*
X77126360Y-26151196D01*
X77126360Y-26151364D01*
X77128762Y-26175750D01*
X77135875Y-26199199D01*
X77147426Y-26220810D01*
X77162971Y-26239752D01*
X77181913Y-26255297D01*
X77203524Y-26266848D01*
X77226973Y-26273961D01*
X77263538Y-26275768D01*
X77264396Y-26275684D01*
X77288432Y-26270918D01*
X77311077Y-26261554D01*
X77331459Y-26247952D01*
X77348796Y-26230635D01*
X77362422Y-26210268D01*
X77371812Y-26187635D01*
X77376607Y-26163605D01*
X77376621Y-26139101D01*
X77371855Y-26115065D01*
X77362491Y-26092420D01*
X77348889Y-26072038D01*
X77331572Y-26054701D01*
X77311205Y-26041075D01*
X77288572Y-26031685D01*
X77264396Y-26026876D01*
X77263538Y-26026792D01*
X77239034Y-26026806D01*
X77215004Y-26031601D01*
X77192371Y-26040991D01*
X77172004Y-26054617D01*
X77154687Y-26071954D01*
X77141085Y-26092336D01*
X77131721Y-26114981D01*
X77126360Y-26151196D01*
X72774360Y-26151196D01*
X72771958Y-26126810D01*
X72764845Y-26103361D01*
X72753294Y-26081750D01*
X72737749Y-26062808D01*
X72718807Y-26047263D01*
X72697196Y-26035712D01*
X72673747Y-26028599D01*
X72637182Y-26026792D01*
X72636324Y-26026876D01*
X72612288Y-26031642D01*
X72589643Y-26041006D01*
X72569261Y-26054608D01*
X72551924Y-26071925D01*
X72538298Y-26092292D01*
X72528908Y-26114925D01*
X72524113Y-26138955D01*
X72524099Y-26163459D01*
X71701614Y-26163459D01*
X71701614Y-26139028D01*
X71696834Y-26114995D01*
X71687456Y-26092356D01*
X71673843Y-26071982D01*
X71656516Y-26054655D01*
X71636141Y-26041041D01*
X71613502Y-26031663D01*
X71589469Y-26026883D01*
X71580065Y-26025957D01*
X71573050Y-26023829D01*
X71566584Y-26020372D01*
X71560918Y-26015722D01*
X71556268Y-26010056D01*
X71552811Y-26003590D01*
X71550683Y-25996575D01*
X71549360Y-25983140D01*
X71549360Y-25669420D01*
X71550683Y-25655985D01*
X71552811Y-25648970D01*
X71556268Y-25642504D01*
X71560918Y-25636838D01*
X71566584Y-25632188D01*
X71573050Y-25628731D01*
X71580065Y-25626603D01*
X71589469Y-25625677D01*
X71613502Y-25620897D01*
X71636141Y-25611519D01*
X71656515Y-25597906D01*
X71673842Y-25580579D01*
X71687456Y-25560204D01*
X71696834Y-25537565D01*
X71701614Y-25513532D01*
X71701614Y-25513459D01*
X72524099Y-25513459D01*
X72528865Y-25537495D01*
X72538229Y-25560140D01*
X72551831Y-25580522D01*
X72569148Y-25597859D01*
X72589515Y-25611485D01*
X72612148Y-25620875D01*
X72636324Y-25625684D01*
X72637182Y-25625768D01*
X72661686Y-25625754D01*
X72685716Y-25620959D01*
X72708349Y-25611569D01*
X72728716Y-25597943D01*
X72746033Y-25580606D01*
X72759635Y-25560224D01*
X72768999Y-25537579D01*
X72774360Y-25501364D01*
X72774360Y-25501196D01*
X77126360Y-25501196D01*
X77126360Y-25501364D01*
X77128762Y-25525750D01*
X77135875Y-25549199D01*
X77147426Y-25570810D01*
X77162971Y-25589752D01*
X77181913Y-25605297D01*
X77203524Y-25616848D01*
X77226973Y-25623961D01*
X77263538Y-25625768D01*
X77264396Y-25625684D01*
X77288432Y-25620918D01*
X77311077Y-25611554D01*
X77331459Y-25597952D01*
X77348796Y-25580635D01*
X77362422Y-25560268D01*
X77371812Y-25537635D01*
X77376607Y-25513605D01*
X77376621Y-25489101D01*
X77371855Y-25465065D01*
X77362491Y-25442420D01*
X77348889Y-25422038D01*
X77331572Y-25404701D01*
X77311205Y-25391075D01*
X77288572Y-25381685D01*
X77264396Y-25376876D01*
X77263538Y-25376792D01*
X77239034Y-25376806D01*
X77215004Y-25381601D01*
X77192371Y-25390991D01*
X77172004Y-25404617D01*
X77154687Y-25421954D01*
X77141085Y-25442336D01*
X77131721Y-25464981D01*
X77126360Y-25501196D01*
X72774360Y-25501196D01*
X72771958Y-25476810D01*
X72764845Y-25453361D01*
X72753294Y-25431750D01*
X72737749Y-25412808D01*
X72718807Y-25397263D01*
X72697196Y-25385712D01*
X72673747Y-25378599D01*
X72637182Y-25376792D01*
X72636324Y-25376876D01*
X72612288Y-25381642D01*
X72589643Y-25391006D01*
X72569261Y-25404608D01*
X72551924Y-25421925D01*
X72538298Y-25442292D01*
X72528908Y-25464925D01*
X72524113Y-25488955D01*
X72524099Y-25513459D01*
X71701614Y-25513459D01*
X71701614Y-25489028D01*
X71696834Y-25464995D01*
X71687456Y-25442356D01*
X71673843Y-25421982D01*
X71656516Y-25404655D01*
X71636141Y-25391041D01*
X71613502Y-25381663D01*
X71589469Y-25376883D01*
X71580065Y-25375957D01*
X71573050Y-25373829D01*
X71566584Y-25370372D01*
X71560918Y-25365722D01*
X71556268Y-25360056D01*
X71552811Y-25353590D01*
X71550683Y-25346575D01*
X71549360Y-25333140D01*
X71549360Y-25019420D01*
X71550683Y-25005985D01*
X71552811Y-24998970D01*
X71556268Y-24992504D01*
X71560918Y-24986838D01*
X71566584Y-24982188D01*
X71573050Y-24978731D01*
X71580065Y-24976603D01*
X71589469Y-24975677D01*
X71613502Y-24970897D01*
X71636141Y-24961519D01*
X71656515Y-24947906D01*
X71673842Y-24930579D01*
X71687456Y-24910204D01*
X71696834Y-24887565D01*
X71701614Y-24863532D01*
X71701614Y-24863459D01*
X72524099Y-24863459D01*
X72528865Y-24887495D01*
X72538229Y-24910140D01*
X72551831Y-24930522D01*
X72569148Y-24947859D01*
X72589515Y-24961485D01*
X72612148Y-24970875D01*
X72636324Y-24975684D01*
X72637182Y-24975768D01*
X72661686Y-24975754D01*
X72685716Y-24970959D01*
X72708349Y-24961569D01*
X72728716Y-24947943D01*
X72746033Y-24930606D01*
X72759635Y-24910224D01*
X72768999Y-24887579D01*
X72774360Y-24851364D01*
X72774360Y-24851196D01*
X77126360Y-24851196D01*
X77126360Y-24851364D01*
X77128762Y-24875750D01*
X77135875Y-24899199D01*
X77147426Y-24920810D01*
X77162971Y-24939752D01*
X77181913Y-24955297D01*
X77203524Y-24966848D01*
X77226973Y-24973961D01*
X77263538Y-24975768D01*
X77264396Y-24975684D01*
X77288432Y-24970918D01*
X77311077Y-24961554D01*
X77331459Y-24947952D01*
X77348796Y-24930635D01*
X77362422Y-24910268D01*
X77371812Y-24887635D01*
X77376607Y-24863605D01*
X77376621Y-24839101D01*
X77371855Y-24815065D01*
X77362491Y-24792420D01*
X77348889Y-24772038D01*
X77331572Y-24754701D01*
X77311205Y-24741075D01*
X77288572Y-24731685D01*
X77264396Y-24726876D01*
X77263538Y-24726792D01*
X77239034Y-24726806D01*
X77215004Y-24731601D01*
X77192371Y-24740991D01*
X77172004Y-24754617D01*
X77154687Y-24771954D01*
X77141085Y-24792336D01*
X77131721Y-24814981D01*
X77126360Y-24851196D01*
X72774360Y-24851196D01*
X72771958Y-24826810D01*
X72764845Y-24803361D01*
X72753294Y-24781750D01*
X72737749Y-24762808D01*
X72718807Y-24747263D01*
X72697196Y-24735712D01*
X72673747Y-24728599D01*
X72637182Y-24726792D01*
X72636324Y-24726876D01*
X72612288Y-24731642D01*
X72589643Y-24741006D01*
X72569261Y-24754608D01*
X72551924Y-24771925D01*
X72538298Y-24792292D01*
X72528908Y-24814925D01*
X72524113Y-24838955D01*
X72524099Y-24863459D01*
X71701614Y-24863459D01*
X71701614Y-24839028D01*
X71696834Y-24814995D01*
X71687456Y-24792356D01*
X71673843Y-24771982D01*
X71656516Y-24754655D01*
X71636141Y-24741041D01*
X71613502Y-24731663D01*
X71589469Y-24726883D01*
X71580065Y-24725957D01*
X71573050Y-24723829D01*
X71566584Y-24720372D01*
X71560918Y-24715722D01*
X71556268Y-24710056D01*
X71552811Y-24703590D01*
X71550683Y-24696575D01*
X71549360Y-24683140D01*
X71549360Y-24369420D01*
X71550683Y-24355985D01*
X71552811Y-24348970D01*
X71556268Y-24342504D01*
X71560918Y-24336838D01*
X71566584Y-24332188D01*
X71573050Y-24328731D01*
X71580065Y-24326603D01*
X71589469Y-24325677D01*
X71613502Y-24320897D01*
X71636141Y-24311519D01*
X71656515Y-24297906D01*
X71673842Y-24280579D01*
X71687456Y-24260204D01*
X71696834Y-24237565D01*
X71701614Y-24213532D01*
X71701614Y-24213459D01*
X72524099Y-24213459D01*
X72528865Y-24237495D01*
X72538229Y-24260140D01*
X72551831Y-24280522D01*
X72569148Y-24297859D01*
X72589515Y-24311485D01*
X72612148Y-24320875D01*
X72636324Y-24325684D01*
X72637182Y-24325768D01*
X72661686Y-24325754D01*
X72685716Y-24320959D01*
X72708349Y-24311569D01*
X72728716Y-24297943D01*
X72746033Y-24280606D01*
X72759635Y-24260224D01*
X72768999Y-24237579D01*
X72774360Y-24201364D01*
X72774360Y-24201196D01*
X77126360Y-24201196D01*
X77126360Y-24201364D01*
X77128762Y-24225750D01*
X77135875Y-24249199D01*
X77147426Y-24270810D01*
X77162971Y-24289752D01*
X77181913Y-24305297D01*
X77203524Y-24316848D01*
X77226973Y-24323961D01*
X77263538Y-24325768D01*
X77264396Y-24325684D01*
X77288432Y-24320918D01*
X77311077Y-24311554D01*
X77331459Y-24297952D01*
X77348796Y-24280635D01*
X77362422Y-24260268D01*
X77371812Y-24237635D01*
X77376607Y-24213605D01*
X77376621Y-24189101D01*
X77371855Y-24165065D01*
X77362491Y-24142420D01*
X77348889Y-24122038D01*
X77331572Y-24104701D01*
X77311205Y-24091075D01*
X77288572Y-24081685D01*
X77264396Y-24076876D01*
X77263538Y-24076792D01*
X77239034Y-24076806D01*
X77215004Y-24081601D01*
X77192371Y-24090991D01*
X77172004Y-24104617D01*
X77154687Y-24121954D01*
X77141085Y-24142336D01*
X77131721Y-24164981D01*
X77126360Y-24201196D01*
X72774360Y-24201196D01*
X72771958Y-24176810D01*
X72764845Y-24153361D01*
X72753294Y-24131750D01*
X72737749Y-24112808D01*
X72718807Y-24097263D01*
X72697196Y-24085712D01*
X72673747Y-24078599D01*
X72637182Y-24076792D01*
X72636324Y-24076876D01*
X72612288Y-24081642D01*
X72589643Y-24091006D01*
X72569261Y-24104608D01*
X72551924Y-24121925D01*
X72538298Y-24142292D01*
X72528908Y-24164925D01*
X72524113Y-24188955D01*
X72524099Y-24213459D01*
X71701614Y-24213459D01*
X71701614Y-24189028D01*
X71696834Y-24164995D01*
X71687456Y-24142356D01*
X71673843Y-24121982D01*
X71656516Y-24104655D01*
X71636141Y-24091041D01*
X71613502Y-24081663D01*
X71589469Y-24076883D01*
X71580065Y-24075957D01*
X71573050Y-24073829D01*
X71566584Y-24070372D01*
X71560918Y-24065722D01*
X71556268Y-24060056D01*
X71552811Y-24053590D01*
X71550683Y-24046575D01*
X71549360Y-24033140D01*
X71549360Y-23719420D01*
X71550683Y-23705985D01*
X71552811Y-23698970D01*
X71556268Y-23692504D01*
X71560918Y-23686838D01*
X71566584Y-23682188D01*
X71573050Y-23678731D01*
X71580065Y-23676603D01*
X71589469Y-23675677D01*
X71613502Y-23670897D01*
X71636141Y-23661519D01*
X71656515Y-23647906D01*
X71673842Y-23630579D01*
X71687456Y-23610204D01*
X71696834Y-23587565D01*
X71701614Y-23563532D01*
X71701614Y-23563459D01*
X72524099Y-23563459D01*
X72528865Y-23587495D01*
X72538229Y-23610140D01*
X72551831Y-23630522D01*
X72569148Y-23647859D01*
X72589515Y-23661485D01*
X72612148Y-23670875D01*
X72636324Y-23675684D01*
X72637182Y-23675768D01*
X72661686Y-23675754D01*
X72685716Y-23670959D01*
X72708349Y-23661569D01*
X72728716Y-23647943D01*
X72746033Y-23630606D01*
X72759635Y-23610224D01*
X72768999Y-23587579D01*
X72774360Y-23551364D01*
X72774360Y-23551196D01*
X77126360Y-23551196D01*
X77126360Y-23551364D01*
X77128762Y-23575750D01*
X77135875Y-23599199D01*
X77147426Y-23620810D01*
X77162971Y-23639752D01*
X77181913Y-23655297D01*
X77203524Y-23666848D01*
X77226973Y-23673961D01*
X77263538Y-23675768D01*
X77264396Y-23675684D01*
X77288432Y-23670918D01*
X77311077Y-23661554D01*
X77331459Y-23647952D01*
X77348796Y-23630635D01*
X77362422Y-23610268D01*
X77371812Y-23587635D01*
X77376607Y-23563605D01*
X77376621Y-23539101D01*
X77371855Y-23515065D01*
X77362491Y-23492420D01*
X77348889Y-23472038D01*
X77331572Y-23454701D01*
X77311205Y-23441075D01*
X77288572Y-23431685D01*
X77264396Y-23426876D01*
X77263538Y-23426792D01*
X77239034Y-23426806D01*
X77215004Y-23431601D01*
X77192371Y-23440991D01*
X77172004Y-23454617D01*
X77154687Y-23471954D01*
X77141085Y-23492336D01*
X77131721Y-23514981D01*
X77126360Y-23551196D01*
X72774360Y-23551196D01*
X72771958Y-23526810D01*
X72764845Y-23503361D01*
X72753294Y-23481750D01*
X72737749Y-23462808D01*
X72718807Y-23447263D01*
X72697196Y-23435712D01*
X72673747Y-23428599D01*
X72637182Y-23426792D01*
X72636324Y-23426876D01*
X72612288Y-23431642D01*
X72589643Y-23441006D01*
X72569261Y-23454608D01*
X72551924Y-23471925D01*
X72538298Y-23492292D01*
X72528908Y-23514925D01*
X72524113Y-23538955D01*
X72524099Y-23563459D01*
X71701614Y-23563459D01*
X71701614Y-23539028D01*
X71696834Y-23514995D01*
X71687456Y-23492356D01*
X71673843Y-23471982D01*
X71656516Y-23454655D01*
X71636141Y-23441041D01*
X71613502Y-23431663D01*
X71589469Y-23426883D01*
X71580065Y-23425957D01*
X71573050Y-23423829D01*
X71566584Y-23420372D01*
X71560918Y-23415722D01*
X71556268Y-23410056D01*
X71552811Y-23403590D01*
X71550683Y-23396575D01*
X71549360Y-23383140D01*
X71549360Y-23069420D01*
X71550683Y-23055985D01*
X71552811Y-23048970D01*
X71556268Y-23042504D01*
X71560918Y-23036838D01*
X71566584Y-23032188D01*
X71573050Y-23028731D01*
X71580065Y-23026603D01*
X71589469Y-23025677D01*
X71613502Y-23020897D01*
X71636141Y-23011519D01*
X71656515Y-22997906D01*
X71673842Y-22980579D01*
X71687456Y-22960204D01*
X71696834Y-22937565D01*
X71701614Y-22913532D01*
X71701614Y-22913459D01*
X72524099Y-22913459D01*
X72528865Y-22937495D01*
X72538229Y-22960140D01*
X72551831Y-22980522D01*
X72569148Y-22997859D01*
X72589515Y-23011485D01*
X72612148Y-23020875D01*
X72636324Y-23025684D01*
X72637182Y-23025768D01*
X72661686Y-23025754D01*
X72685716Y-23020959D01*
X72708349Y-23011569D01*
X72728716Y-22997943D01*
X72746033Y-22980606D01*
X72759635Y-22960224D01*
X72768999Y-22937579D01*
X72774360Y-22901364D01*
X72774360Y-22901196D01*
X77126360Y-22901196D01*
X77126360Y-22901364D01*
X77128762Y-22925750D01*
X77135875Y-22949199D01*
X77147426Y-22970810D01*
X77162971Y-22989752D01*
X77181913Y-23005297D01*
X77203524Y-23016848D01*
X77226973Y-23023961D01*
X77263538Y-23025768D01*
X77264396Y-23025684D01*
X77288432Y-23020918D01*
X77311077Y-23011554D01*
X77331459Y-22997952D01*
X77348796Y-22980635D01*
X77362422Y-22960268D01*
X77371812Y-22937635D01*
X77376607Y-22913605D01*
X77376621Y-22889101D01*
X77371855Y-22865065D01*
X77362491Y-22842420D01*
X77348889Y-22822038D01*
X77331572Y-22804701D01*
X77311205Y-22791075D01*
X77288572Y-22781685D01*
X77264396Y-22776876D01*
X77263538Y-22776792D01*
X77239034Y-22776806D01*
X77215004Y-22781601D01*
X77192371Y-22790991D01*
X77172004Y-22804617D01*
X77154687Y-22821954D01*
X77141085Y-22842336D01*
X77131721Y-22864981D01*
X77126360Y-22901196D01*
X72774360Y-22901196D01*
X72771958Y-22876810D01*
X72764845Y-22853361D01*
X72753294Y-22831750D01*
X72737749Y-22812808D01*
X72718807Y-22797263D01*
X72697196Y-22785712D01*
X72673747Y-22778599D01*
X72637182Y-22776792D01*
X72636324Y-22776876D01*
X72612288Y-22781642D01*
X72589643Y-22791006D01*
X72569261Y-22804608D01*
X72551924Y-22821925D01*
X72538298Y-22842292D01*
X72528908Y-22864925D01*
X72524113Y-22888955D01*
X72524099Y-22913459D01*
X71701614Y-22913459D01*
X71701614Y-22889028D01*
X71696834Y-22864995D01*
X71687456Y-22842356D01*
X71673843Y-22821982D01*
X71656516Y-22804655D01*
X71636141Y-22791041D01*
X71613502Y-22781663D01*
X71589469Y-22776883D01*
X71580065Y-22775957D01*
X71573050Y-22773829D01*
X71566584Y-22770372D01*
X71560918Y-22765722D01*
X71556268Y-22760056D01*
X71552811Y-22753590D01*
X71550683Y-22746575D01*
X71549360Y-22733140D01*
X71549360Y-22419420D01*
X71550683Y-22405985D01*
X71552811Y-22398970D01*
X71556268Y-22392504D01*
X71560918Y-22386838D01*
X71566584Y-22382188D01*
X71573050Y-22378731D01*
X71580065Y-22376603D01*
X71593500Y-22375280D01*
X72632220Y-22375280D01*
X72646958Y-22376731D01*
X72668434Y-22381003D01*
X72692938Y-22381003D01*
X72716972Y-22376222D01*
X72739610Y-22366845D01*
X72759985Y-22353231D01*
X72777312Y-22335904D01*
X72790925Y-22315530D01*
X72800303Y-22292891D01*
X72805083Y-22268858D01*
X72805083Y-22244354D01*
X72800811Y-22222878D01*
X72799849Y-22213102D01*
X73200872Y-22213102D01*
X73200886Y-22237606D01*
X73205681Y-22261636D01*
X73215071Y-22284269D01*
X73228697Y-22304636D01*
X73246034Y-22321953D01*
X73266416Y-22335555D01*
X73289061Y-22344919D01*
X73325276Y-22350280D01*
X73325444Y-22350280D01*
X73349830Y-22347878D01*
X73373279Y-22340765D01*
X73394890Y-22329214D01*
X73413832Y-22313669D01*
X73429377Y-22294727D01*
X73440928Y-22273116D01*
X73448041Y-22249667D01*
X73449848Y-22213102D01*
X73850872Y-22213102D01*
X73850886Y-22237606D01*
X73855681Y-22261636D01*
X73865071Y-22284269D01*
X73878697Y-22304636D01*
X73896034Y-22321953D01*
X73916416Y-22335555D01*
X73939061Y-22344919D01*
X73975276Y-22350280D01*
X73975444Y-22350280D01*
X73999830Y-22347878D01*
X74023279Y-22340765D01*
X74044890Y-22329214D01*
X74063832Y-22313669D01*
X74079377Y-22294727D01*
X74090928Y-22273116D01*
X74098041Y-22249667D01*
X74099848Y-22213102D01*
X74500872Y-22213102D01*
X74500886Y-22237606D01*
X74505681Y-22261636D01*
X74515071Y-22284269D01*
X74528697Y-22304636D01*
X74546034Y-22321953D01*
X74566416Y-22335555D01*
X74589061Y-22344919D01*
X74625276Y-22350280D01*
X74625444Y-22350280D01*
X74649830Y-22347878D01*
X74673279Y-22340765D01*
X74694890Y-22329214D01*
X74713832Y-22313669D01*
X74729377Y-22294727D01*
X74740928Y-22273116D01*
X74748041Y-22249667D01*
X74749848Y-22213102D01*
X75150872Y-22213102D01*
X75150886Y-22237606D01*
X75155681Y-22261636D01*
X75165071Y-22284269D01*
X75178697Y-22304636D01*
X75196034Y-22321953D01*
X75216416Y-22335555D01*
X75239061Y-22344919D01*
X75275276Y-22350280D01*
X75275444Y-22350280D01*
X75299830Y-22347878D01*
X75323279Y-22340765D01*
X75344890Y-22329214D01*
X75363832Y-22313669D01*
X75379377Y-22294727D01*
X75390928Y-22273116D01*
X75398041Y-22249667D01*
X75399848Y-22213102D01*
X75800872Y-22213102D01*
X75800886Y-22237606D01*
X75805681Y-22261636D01*
X75815071Y-22284269D01*
X75828697Y-22304636D01*
X75846034Y-22321953D01*
X75866416Y-22335555D01*
X75889061Y-22344919D01*
X75925276Y-22350280D01*
X75925444Y-22350280D01*
X75949830Y-22347878D01*
X75973279Y-22340765D01*
X75994890Y-22329214D01*
X76013832Y-22313669D01*
X76029377Y-22294727D01*
X76040928Y-22273116D01*
X76048041Y-22249667D01*
X76049848Y-22213102D01*
X76450872Y-22213102D01*
X76450886Y-22237606D01*
X76455681Y-22261636D01*
X76465071Y-22284269D01*
X76478697Y-22304636D01*
X76496034Y-22321953D01*
X76516416Y-22335555D01*
X76539061Y-22344919D01*
X76575276Y-22350280D01*
X76575444Y-22350280D01*
X76599830Y-22347878D01*
X76623279Y-22340765D01*
X76644890Y-22329214D01*
X76663832Y-22313669D01*
X76679377Y-22294727D01*
X76690928Y-22273116D01*
X76698041Y-22249667D01*
X76699848Y-22213102D01*
X76699764Y-22212244D01*
X76694998Y-22188208D01*
X76685634Y-22165563D01*
X76672032Y-22145181D01*
X76654715Y-22127844D01*
X76634348Y-22114218D01*
X76611715Y-22104828D01*
X76587685Y-22100033D01*
X76563181Y-22100019D01*
X76539145Y-22104785D01*
X76516500Y-22114149D01*
X76496118Y-22127751D01*
X76478781Y-22145068D01*
X76465155Y-22165435D01*
X76455765Y-22188068D01*
X76450956Y-22212244D01*
X76450872Y-22213102D01*
X76049848Y-22213102D01*
X76049764Y-22212244D01*
X76044998Y-22188208D01*
X76035634Y-22165563D01*
X76022032Y-22145181D01*
X76004715Y-22127844D01*
X75984348Y-22114218D01*
X75961715Y-22104828D01*
X75937685Y-22100033D01*
X75913181Y-22100019D01*
X75889145Y-22104785D01*
X75866500Y-22114149D01*
X75846118Y-22127751D01*
X75828781Y-22145068D01*
X75815155Y-22165435D01*
X75805765Y-22188068D01*
X75800956Y-22212244D01*
X75800872Y-22213102D01*
X75399848Y-22213102D01*
X75399764Y-22212244D01*
X75394998Y-22188208D01*
X75385634Y-22165563D01*
X75372032Y-22145181D01*
X75354715Y-22127844D01*
X75334348Y-22114218D01*
X75311715Y-22104828D01*
X75287685Y-22100033D01*
X75263181Y-22100019D01*
X75239145Y-22104785D01*
X75216500Y-22114149D01*
X75196118Y-22127751D01*
X75178781Y-22145068D01*
X75165155Y-22165435D01*
X75155765Y-22188068D01*
X75150956Y-22212244D01*
X75150872Y-22213102D01*
X74749848Y-22213102D01*
X74749764Y-22212244D01*
X74744998Y-22188208D01*
X74735634Y-22165563D01*
X74722032Y-22145181D01*
X74704715Y-22127844D01*
X74684348Y-22114218D01*
X74661715Y-22104828D01*
X74637685Y-22100033D01*
X74613181Y-22100019D01*
X74589145Y-22104785D01*
X74566500Y-22114149D01*
X74546118Y-22127751D01*
X74528781Y-22145068D01*
X74515155Y-22165435D01*
X74505765Y-22188068D01*
X74500956Y-22212244D01*
X74500872Y-22213102D01*
X74099848Y-22213102D01*
X74099764Y-22212244D01*
X74094998Y-22188208D01*
X74085634Y-22165563D01*
X74072032Y-22145181D01*
X74054715Y-22127844D01*
X74034348Y-22114218D01*
X74011715Y-22104828D01*
X73987685Y-22100033D01*
X73963181Y-22100019D01*
X73939145Y-22104785D01*
X73916500Y-22114149D01*
X73896118Y-22127751D01*
X73878781Y-22145068D01*
X73865155Y-22165435D01*
X73855765Y-22188068D01*
X73850956Y-22212244D01*
X73850872Y-22213102D01*
X73449848Y-22213102D01*
X73449764Y-22212244D01*
X73444998Y-22188208D01*
X73435634Y-22165563D01*
X73422032Y-22145181D01*
X73404715Y-22127844D01*
X73384348Y-22114218D01*
X73361715Y-22104828D01*
X73337685Y-22100033D01*
X73313181Y-22100019D01*
X73289145Y-22104785D01*
X73266500Y-22114149D01*
X73246118Y-22127751D01*
X73228781Y-22145068D01*
X73215155Y-22165435D01*
X73205765Y-22188068D01*
X73200956Y-22212244D01*
X73200872Y-22213102D01*
X72799849Y-22213102D01*
X72799360Y-22208140D01*
X72799360Y-21169420D01*
X72800683Y-21155985D01*
X72802811Y-21148970D01*
X72806268Y-21142504D01*
X72810918Y-21136838D01*
X72816584Y-21132188D01*
X72823050Y-21128731D01*
X72830065Y-21126603D01*
X72843500Y-21125280D01*
X73157220Y-21125280D01*
X73170655Y-21126603D01*
G37*
G36*
X45307151Y-26739445D02*
G01*
X45341129Y-26749753D01*
X45372450Y-26766494D01*
X45399899Y-26789021D01*
X45422426Y-26816470D01*
X45439167Y-26847791D01*
X45449475Y-26881769D01*
X45453560Y-26923250D01*
X45453560Y-27524470D01*
X45449475Y-27565951D01*
X45439167Y-27599929D01*
X45422426Y-27631250D01*
X45399899Y-27658699D01*
X45372450Y-27681226D01*
X45341129Y-27697967D01*
X45307151Y-27708275D01*
X45265670Y-27712360D01*
X44589450Y-27712360D01*
X44547969Y-27708275D01*
X44513991Y-27697967D01*
X44482670Y-27681226D01*
X44455221Y-27658699D01*
X44432694Y-27631250D01*
X44415953Y-27599929D01*
X44405645Y-27565951D01*
X44401560Y-27524470D01*
X44401560Y-26923250D01*
X44405645Y-26881769D01*
X44415953Y-26847791D01*
X44432694Y-26816470D01*
X44455221Y-26789021D01*
X44482670Y-26766494D01*
X44513991Y-26749753D01*
X44547969Y-26739445D01*
X44589450Y-26735360D01*
X45265670Y-26735360D01*
X45307151Y-26739445D01*
G37*
G36*
X46846391Y-26729285D02*
G01*
X46880369Y-26739593D01*
X46911690Y-26756334D01*
X46939139Y-26778861D01*
X46961666Y-26806310D01*
X46978407Y-26837631D01*
X46988715Y-26871609D01*
X46992800Y-26913090D01*
X46992800Y-27514310D01*
X46988715Y-27555791D01*
X46978407Y-27589769D01*
X46961666Y-27621090D01*
X46939139Y-27648539D01*
X46911690Y-27671066D01*
X46880369Y-27687807D01*
X46846391Y-27698115D01*
X46804910Y-27702200D01*
X46128690Y-27702200D01*
X46087209Y-27698115D01*
X46053231Y-27687807D01*
X46021910Y-27671066D01*
X45994461Y-27648539D01*
X45971934Y-27621090D01*
X45955193Y-27589769D01*
X45944885Y-27555791D01*
X45940800Y-27514310D01*
X45940800Y-26913090D01*
X45944885Y-26871609D01*
X45955193Y-26837631D01*
X45971934Y-26806310D01*
X45994461Y-26778861D01*
X46021910Y-26756334D01*
X46053231Y-26739593D01*
X46087209Y-26729285D01*
X46128690Y-26725200D01*
X46804910Y-26725200D01*
X46846391Y-26729285D01*
G37*
G36*
X43752671Y-26729285D02*
G01*
X43786649Y-26739593D01*
X43817970Y-26756334D01*
X43845419Y-26778861D01*
X43867946Y-26806310D01*
X43884687Y-26837631D01*
X43894995Y-26871609D01*
X43899080Y-26913090D01*
X43899080Y-27514310D01*
X43894995Y-27555791D01*
X43884687Y-27589769D01*
X43867946Y-27621090D01*
X43845419Y-27648539D01*
X43817970Y-27671066D01*
X43786649Y-27687807D01*
X43752671Y-27698115D01*
X43711190Y-27702200D01*
X43034970Y-27702200D01*
X42993489Y-27698115D01*
X42959511Y-27687807D01*
X42928190Y-27671066D01*
X42900741Y-27648539D01*
X42878214Y-27621090D01*
X42861473Y-27589769D01*
X42851165Y-27555791D01*
X42847080Y-27514310D01*
X42847080Y-26913090D01*
X42851165Y-26871609D01*
X42861473Y-26837631D01*
X42878214Y-26806310D01*
X42900741Y-26778861D01*
X42928190Y-26756334D01*
X42959511Y-26739593D01*
X42993489Y-26729285D01*
X43034970Y-26725200D01*
X43711190Y-26725200D01*
X43752671Y-26729285D01*
G37*
G36*
X29569400Y-27627000D02*
G01*
X26107400Y-27627000D01*
X26107400Y-22665000D01*
X29569400Y-22665000D01*
X29569400Y-27627000D01*
G37*
G36*
X25136600Y-27517800D02*
G01*
X23834600Y-27517800D01*
X23834600Y-25415800D01*
X25136600Y-25415800D01*
X25136600Y-27517800D01*
G37*
G36*
X95479591Y-26228085D02*
G01*
X95513569Y-26238393D01*
X95544890Y-26255134D01*
X95572339Y-26277661D01*
X95594866Y-26305110D01*
X95611607Y-26336431D01*
X95621915Y-26370409D01*
X95626000Y-26411890D01*
X95626000Y-27013110D01*
X95621915Y-27054591D01*
X95611607Y-27088569D01*
X95594866Y-27119890D01*
X95572339Y-27147339D01*
X95544890Y-27169866D01*
X95513569Y-27186607D01*
X95479591Y-27196915D01*
X95438110Y-27201000D01*
X94761890Y-27201000D01*
X94720409Y-27196915D01*
X94686431Y-27186607D01*
X94655110Y-27169866D01*
X94627661Y-27147339D01*
X94605134Y-27119890D01*
X94588393Y-27088569D01*
X94578085Y-27054591D01*
X94574000Y-27013110D01*
X94574000Y-26411890D01*
X94578085Y-26370409D01*
X94588393Y-26336431D01*
X94605134Y-26305110D01*
X94627661Y-26277661D01*
X94655110Y-26255134D01*
X94686431Y-26238393D01*
X94720409Y-26228085D01*
X94761890Y-26224000D01*
X95438110Y-26224000D01*
X95479591Y-26228085D01*
G37*
G36*
X96979591Y-26228085D02*
G01*
X97013569Y-26238393D01*
X97044890Y-26255134D01*
X97072339Y-26277661D01*
X97094866Y-26305110D01*
X97111607Y-26336431D01*
X97121915Y-26370409D01*
X97126000Y-26411890D01*
X97126000Y-27013110D01*
X97121915Y-27054591D01*
X97111607Y-27088569D01*
X97094866Y-27119890D01*
X97072339Y-27147339D01*
X97044890Y-27169866D01*
X97013569Y-27186607D01*
X96979591Y-27196915D01*
X96938110Y-27201000D01*
X96261890Y-27201000D01*
X96220409Y-27196915D01*
X96186431Y-27186607D01*
X96155110Y-27169866D01*
X96127661Y-27147339D01*
X96105134Y-27119890D01*
X96088393Y-27088569D01*
X96078085Y-27054591D01*
X96074000Y-27013110D01*
X96074000Y-26411890D01*
X96078085Y-26370409D01*
X96088393Y-26336431D01*
X96105134Y-26305110D01*
X96127661Y-26277661D01*
X96155110Y-26255134D01*
X96186431Y-26238393D01*
X96220409Y-26228085D01*
X96261890Y-26224000D01*
X96938110Y-26224000D01*
X96979591Y-26228085D01*
G37*
G36*
X67374671Y-26104245D02*
G01*
X67408649Y-26114553D01*
X67439970Y-26131294D01*
X67467419Y-26153821D01*
X67489946Y-26181270D01*
X67506687Y-26212591D01*
X67516995Y-26246569D01*
X67521080Y-26288050D01*
X67521080Y-26889270D01*
X67516995Y-26930751D01*
X67506687Y-26964729D01*
X67489946Y-26996050D01*
X67467419Y-27023499D01*
X67439970Y-27046026D01*
X67408649Y-27062767D01*
X67374671Y-27073075D01*
X67333190Y-27077160D01*
X66656970Y-27077160D01*
X66615489Y-27073075D01*
X66581511Y-27062767D01*
X66550190Y-27046026D01*
X66522741Y-27023499D01*
X66500214Y-26996050D01*
X66483473Y-26964729D01*
X66473165Y-26930751D01*
X66469080Y-26889270D01*
X66469080Y-26288050D01*
X66473165Y-26246569D01*
X66483473Y-26212591D01*
X66500214Y-26181270D01*
X66522741Y-26153821D01*
X66550190Y-26131294D01*
X66581511Y-26114553D01*
X66615489Y-26104245D01*
X66656970Y-26100160D01*
X67333190Y-26100160D01*
X67374671Y-26104245D01*
G37*
G36*
X69310151Y-26084025D02*
G01*
X69344129Y-26094333D01*
X69375450Y-26111074D01*
X69402899Y-26133601D01*
X69425426Y-26161050D01*
X69442167Y-26192371D01*
X69452475Y-26226349D01*
X69456560Y-26267830D01*
X69456560Y-26869050D01*
X69452475Y-26910531D01*
X69442167Y-26944509D01*
X69425426Y-26975830D01*
X69402899Y-27003279D01*
X69375450Y-27025806D01*
X69344129Y-27042547D01*
X69310151Y-27052855D01*
X69268670Y-27056940D01*
X68592450Y-27056940D01*
X68550969Y-27052855D01*
X68516991Y-27042547D01*
X68485670Y-27025806D01*
X68458221Y-27003279D01*
X68435694Y-26975830D01*
X68418953Y-26944509D01*
X68408645Y-26910531D01*
X68404560Y-26869050D01*
X68404560Y-26267830D01*
X68408645Y-26226349D01*
X68418953Y-26192371D01*
X68435694Y-26161050D01*
X68458221Y-26133601D01*
X68485670Y-26111074D01*
X68516991Y-26094333D01*
X68550969Y-26084025D01*
X68592450Y-26079940D01*
X69268670Y-26079940D01*
X69310151Y-26084025D01*
G37*
G36*
X70849391Y-26084025D02*
G01*
X70883369Y-26094333D01*
X70914690Y-26111074D01*
X70942139Y-26133601D01*
X70964666Y-26161050D01*
X70981407Y-26192371D01*
X70991715Y-26226349D01*
X70995800Y-26267830D01*
X70995800Y-26869050D01*
X70991715Y-26910531D01*
X70981407Y-26944509D01*
X70964666Y-26975830D01*
X70942139Y-27003279D01*
X70914690Y-27025806D01*
X70883369Y-27042547D01*
X70849391Y-27052855D01*
X70807910Y-27056940D01*
X70131690Y-27056940D01*
X70090209Y-27052855D01*
X70056231Y-27042547D01*
X70024910Y-27025806D01*
X69997461Y-27003279D01*
X69974934Y-26975830D01*
X69958193Y-26944509D01*
X69947885Y-26910531D01*
X69943800Y-26869050D01*
X69943800Y-26267830D01*
X69947885Y-26226349D01*
X69958193Y-26192371D01*
X69974934Y-26161050D01*
X69997461Y-26133601D01*
X70024910Y-26111074D01*
X70056231Y-26094333D01*
X70090209Y-26084025D01*
X70131690Y-26079940D01*
X70807910Y-26079940D01*
X70849391Y-26084025D01*
G37*
G36*
X65691360Y-26924080D02*
G01*
X63889360Y-26924080D01*
X63889360Y-26172080D01*
X65691360Y-26172080D01*
X65691360Y-26924080D01*
G37*
G36*
X45307151Y-25164445D02*
G01*
X45341129Y-25174753D01*
X45372450Y-25191494D01*
X45399899Y-25214021D01*
X45422426Y-25241470D01*
X45439167Y-25272791D01*
X45449475Y-25306769D01*
X45453560Y-25348250D01*
X45453560Y-25949470D01*
X45449475Y-25990951D01*
X45439167Y-26024929D01*
X45422426Y-26056250D01*
X45399899Y-26083699D01*
X45372450Y-26106226D01*
X45341129Y-26122967D01*
X45307151Y-26133275D01*
X45265670Y-26137360D01*
X44589450Y-26137360D01*
X44547969Y-26133275D01*
X44513991Y-26122967D01*
X44482670Y-26106226D01*
X44455221Y-26083699D01*
X44432694Y-26056250D01*
X44415953Y-26024929D01*
X44405645Y-25990951D01*
X44401560Y-25949470D01*
X44401560Y-25348250D01*
X44405645Y-25306769D01*
X44415953Y-25272791D01*
X44432694Y-25241470D01*
X44455221Y-25214021D01*
X44482670Y-25191494D01*
X44513991Y-25174753D01*
X44547969Y-25164445D01*
X44589450Y-25160360D01*
X45265670Y-25160360D01*
X45307151Y-25164445D01*
G37*
G36*
X46846391Y-25154285D02*
G01*
X46880369Y-25164593D01*
X46911690Y-25181334D01*
X46939139Y-25203861D01*
X46961666Y-25231310D01*
X46978407Y-25262631D01*
X46988715Y-25296609D01*
X46992800Y-25338090D01*
X46992800Y-25939310D01*
X46988715Y-25980791D01*
X46978408Y-26014767D01*
X46961666Y-26046090D01*
X46939139Y-26073539D01*
X46911690Y-26096066D01*
X46880369Y-26112807D01*
X46846391Y-26123115D01*
X46804910Y-26127200D01*
X46128690Y-26127200D01*
X46087209Y-26123115D01*
X46053231Y-26112807D01*
X46021910Y-26096066D01*
X45994461Y-26073539D01*
X45971934Y-26046090D01*
X45955192Y-26014767D01*
X45944885Y-25980791D01*
X45940800Y-25939310D01*
X45940800Y-25338090D01*
X45944885Y-25296609D01*
X45955193Y-25262631D01*
X45971934Y-25231310D01*
X45994461Y-25203861D01*
X46021910Y-25181334D01*
X46053231Y-25164593D01*
X46087209Y-25154285D01*
X46128690Y-25150200D01*
X46804910Y-25150200D01*
X46846391Y-25154285D01*
G37*
G36*
X43752671Y-25154285D02*
G01*
X43786649Y-25164593D01*
X43817970Y-25181334D01*
X43845419Y-25203861D01*
X43867946Y-25231310D01*
X43884687Y-25262631D01*
X43894995Y-25296609D01*
X43899080Y-25338090D01*
X43899080Y-25939310D01*
X43894995Y-25980791D01*
X43884688Y-26014767D01*
X43867946Y-26046090D01*
X43845419Y-26073539D01*
X43817970Y-26096066D01*
X43786649Y-26112807D01*
X43752671Y-26123115D01*
X43711190Y-26127200D01*
X43034970Y-26127200D01*
X42993489Y-26123115D01*
X42959511Y-26112807D01*
X42928190Y-26096066D01*
X42900741Y-26073539D01*
X42878214Y-26046090D01*
X42861472Y-26014767D01*
X42851165Y-25980791D01*
X42847080Y-25939310D01*
X42847080Y-25338090D01*
X42851165Y-25296609D01*
X42861473Y-25262631D01*
X42878214Y-25231310D01*
X42900741Y-25203861D01*
X42928190Y-25181334D01*
X42959511Y-25164593D01*
X42993489Y-25154285D01*
X43034970Y-25150200D01*
X43711190Y-25150200D01*
X43752671Y-25154285D01*
G37*
G36*
X51888228Y-24373463D02*
G01*
X52043100Y-24437613D01*
X52182481Y-24530745D01*
X52301015Y-24649279D01*
X52394147Y-24788660D01*
X52458297Y-24943532D01*
X52491000Y-25107944D01*
X52491000Y-25275576D01*
X52458297Y-25439988D01*
X52394147Y-25594860D01*
X52301015Y-25734241D01*
X52182481Y-25852775D01*
X52043100Y-25945907D01*
X51888228Y-26010057D01*
X51723816Y-26042760D01*
X51556184Y-26042760D01*
X51391772Y-26010057D01*
X51236900Y-25945907D01*
X51097519Y-25852775D01*
X50978985Y-25734241D01*
X50885853Y-25594860D01*
X50821703Y-25439988D01*
X50789000Y-25275576D01*
X50789000Y-25107944D01*
X50821703Y-24943532D01*
X50885853Y-24788660D01*
X50978985Y-24649279D01*
X51097519Y-24530745D01*
X51236900Y-24437613D01*
X51391772Y-24373463D01*
X51556184Y-24340760D01*
X51723816Y-24340760D01*
X51888228Y-24373463D01*
G37*
G36*
X36886400Y-26030400D02*
G01*
X35234400Y-26030400D01*
X35234400Y-25328400D01*
X36886400Y-25328400D01*
X36886400Y-26030400D01*
G37*
G36*
X42286400Y-26030400D02*
G01*
X40634400Y-26030400D01*
X40634400Y-25328400D01*
X42286400Y-25328400D01*
X42286400Y-26030400D01*
G37*
G36*
X32469991Y-24976685D02*
G01*
X32503969Y-24986993D01*
X32535290Y-25003734D01*
X32562739Y-25026261D01*
X32585266Y-25053710D01*
X32602007Y-25085031D01*
X32612315Y-25119009D01*
X32616400Y-25160490D01*
X32616400Y-25761710D01*
X32612315Y-25803191D01*
X32602007Y-25837169D01*
X32585266Y-25868490D01*
X32562739Y-25895939D01*
X32535290Y-25918466D01*
X32503969Y-25935207D01*
X32469991Y-25945515D01*
X32428510Y-25949600D01*
X31752290Y-25949600D01*
X31710809Y-25945515D01*
X31676831Y-25935207D01*
X31645510Y-25918466D01*
X31618061Y-25895939D01*
X31595534Y-25868490D01*
X31578793Y-25837169D01*
X31568485Y-25803191D01*
X31564400Y-25761710D01*
X31564400Y-25160490D01*
X31568485Y-25119009D01*
X31578793Y-25085031D01*
X31595534Y-25053710D01*
X31618061Y-25026261D01*
X31645510Y-25003734D01*
X31676831Y-24986993D01*
X31710809Y-24976685D01*
X31752290Y-24972600D01*
X32428510Y-24972600D01*
X32469991Y-24976685D01*
G37*
G36*
X99901625Y-22125469D02*
G01*
X100200070Y-22184833D01*
X100527842Y-22320601D01*
X100822829Y-22517705D01*
X101073695Y-22768571D01*
X101270799Y-23063558D01*
X101406567Y-23391330D01*
X101463128Y-23675684D01*
X101475780Y-23739290D01*
X101475780Y-24094070D01*
X101467565Y-24135369D01*
X101406567Y-24442030D01*
X101270799Y-24769802D01*
X101073695Y-25064789D01*
X100822829Y-25315655D01*
X100527842Y-25512759D01*
X100200070Y-25648527D01*
X99914398Y-25705350D01*
X99852110Y-25717740D01*
X99497330Y-25717740D01*
X99435042Y-25705350D01*
X99149370Y-25648527D01*
X98821598Y-25512759D01*
X98526611Y-25315655D01*
X98275745Y-25064789D01*
X98078641Y-24769802D01*
X97942873Y-24442030D01*
X97881875Y-24135369D01*
X97873660Y-24094070D01*
X97873660Y-23739290D01*
X97886312Y-23675684D01*
X97942873Y-23391330D01*
X98078641Y-23063558D01*
X98275745Y-22768571D01*
X98526611Y-22517705D01*
X98821598Y-22320601D01*
X99149370Y-22184833D01*
X99447815Y-22125469D01*
X99497330Y-22115620D01*
X99852110Y-22115620D01*
X99901625Y-22125469D01*
G37*
G36*
X67364511Y-24565205D02*
G01*
X67398489Y-24575513D01*
X67429810Y-24592254D01*
X67457259Y-24614781D01*
X67479786Y-24642230D01*
X67496527Y-24673551D01*
X67506835Y-24707529D01*
X67510920Y-24749010D01*
X67510920Y-25350230D01*
X67506835Y-25391711D01*
X67496527Y-25425689D01*
X67479786Y-25457010D01*
X67457259Y-25484459D01*
X67429810Y-25506986D01*
X67398489Y-25523727D01*
X67364511Y-25534035D01*
X67323030Y-25538120D01*
X66646810Y-25538120D01*
X66605329Y-25534035D01*
X66571351Y-25523727D01*
X66540030Y-25506986D01*
X66512581Y-25484459D01*
X66490054Y-25457010D01*
X66473313Y-25425689D01*
X66463005Y-25391711D01*
X66458920Y-25350230D01*
X66458920Y-24749010D01*
X66463005Y-24707529D01*
X66473313Y-24673551D01*
X66490054Y-24642230D01*
X66512581Y-24614781D01*
X66540030Y-24592254D01*
X66571351Y-24575513D01*
X66605329Y-24565205D01*
X66646810Y-24561120D01*
X67323030Y-24561120D01*
X67364511Y-24565205D01*
G37*
G36*
X65830351Y-24565205D02*
G01*
X65864329Y-24575513D01*
X65895650Y-24592254D01*
X65923099Y-24614781D01*
X65945626Y-24642230D01*
X65962367Y-24673551D01*
X65972675Y-24707529D01*
X65976760Y-24749010D01*
X65976760Y-25350230D01*
X65972675Y-25391711D01*
X65962367Y-25425689D01*
X65945626Y-25457010D01*
X65923099Y-25484459D01*
X65895650Y-25506986D01*
X65864329Y-25523727D01*
X65830351Y-25534035D01*
X65788870Y-25538120D01*
X65112650Y-25538120D01*
X65071169Y-25534035D01*
X65037191Y-25523727D01*
X65005870Y-25506986D01*
X64978421Y-25484459D01*
X64955894Y-25457010D01*
X64939153Y-25425689D01*
X64928845Y-25391711D01*
X64924760Y-25350230D01*
X64924760Y-24749010D01*
X64928845Y-24707529D01*
X64939153Y-24673551D01*
X64955894Y-24642230D01*
X64978421Y-24614781D01*
X65005870Y-24592254D01*
X65037191Y-24575513D01*
X65071169Y-24565205D01*
X65112650Y-24561120D01*
X65788870Y-24561120D01*
X65830351Y-24565205D01*
G37*
G36*
X69305071Y-24555045D02*
G01*
X69339049Y-24565353D01*
X69370370Y-24582094D01*
X69397819Y-24604621D01*
X69420346Y-24632070D01*
X69437087Y-24663391D01*
X69447395Y-24697369D01*
X69451480Y-24738850D01*
X69451480Y-25340070D01*
X69447395Y-25381551D01*
X69437087Y-25415529D01*
X69420346Y-25446850D01*
X69397819Y-25474299D01*
X69370370Y-25496826D01*
X69339049Y-25513567D01*
X69305071Y-25523875D01*
X69263590Y-25527960D01*
X68587370Y-25527960D01*
X68545889Y-25523875D01*
X68511911Y-25513567D01*
X68480590Y-25496826D01*
X68453141Y-25474299D01*
X68430614Y-25446850D01*
X68413873Y-25415529D01*
X68403565Y-25381551D01*
X68399480Y-25340070D01*
X68399480Y-24738850D01*
X68403565Y-24697369D01*
X68413873Y-24663391D01*
X68430614Y-24632070D01*
X68453141Y-24604621D01*
X68480590Y-24582094D01*
X68511911Y-24565353D01*
X68545889Y-24555045D01*
X68587370Y-24550960D01*
X69263590Y-24550960D01*
X69305071Y-24555045D01*
G37*
G36*
X70834151Y-24544885D02*
G01*
X70868129Y-24555193D01*
X70899450Y-24571934D01*
X70926899Y-24594461D01*
X70949426Y-24621910D01*
X70966167Y-24653231D01*
X70976475Y-24687209D01*
X70980560Y-24728690D01*
X70980560Y-25329910D01*
X70976475Y-25371391D01*
X70966167Y-25405369D01*
X70949426Y-25436690D01*
X70926899Y-25464139D01*
X70899450Y-25486666D01*
X70868129Y-25503407D01*
X70834151Y-25513715D01*
X70792670Y-25517800D01*
X70116450Y-25517800D01*
X70074969Y-25513715D01*
X70040991Y-25503407D01*
X70009670Y-25486666D01*
X69982221Y-25464139D01*
X69959694Y-25436690D01*
X69942953Y-25405369D01*
X69932645Y-25371391D01*
X69928560Y-25329910D01*
X69928560Y-24728690D01*
X69932645Y-24687209D01*
X69942953Y-24653231D01*
X69959694Y-24621910D01*
X69982221Y-24594461D01*
X70009670Y-24571934D01*
X70040991Y-24555193D01*
X70074969Y-24544885D01*
X70116450Y-24540800D01*
X70792670Y-24540800D01*
X70834151Y-24544885D01*
G37*
G36*
X40111400Y-25375400D02*
G01*
X37409400Y-25375400D01*
X37409400Y-22173400D01*
X40111400Y-22173400D01*
X40111400Y-25375400D01*
G37*
G36*
X34369911Y-24118165D02*
G01*
X34403889Y-24128473D01*
X34435210Y-24145214D01*
X34462659Y-24167741D01*
X34485186Y-24195190D01*
X34501927Y-24226511D01*
X34512235Y-24260489D01*
X34516320Y-24301970D01*
X34516320Y-24903190D01*
X34512235Y-24944671D01*
X34501927Y-24978649D01*
X34485186Y-25009970D01*
X34462659Y-25037419D01*
X34435210Y-25059946D01*
X34403889Y-25076687D01*
X34369911Y-25086995D01*
X34328430Y-25091080D01*
X33652210Y-25091080D01*
X33610729Y-25086995D01*
X33576751Y-25076687D01*
X33545430Y-25059946D01*
X33517981Y-25037419D01*
X33495454Y-25009970D01*
X33478713Y-24978649D01*
X33468405Y-24944671D01*
X33464320Y-24903190D01*
X33464320Y-24301970D01*
X33468405Y-24260489D01*
X33478713Y-24226511D01*
X33495454Y-24195190D01*
X33517981Y-24167741D01*
X33545430Y-24145214D01*
X33576751Y-24128473D01*
X33610729Y-24118165D01*
X33652210Y-24114080D01*
X34328430Y-24114080D01*
X34369911Y-24118165D01*
G37*
G36*
X42286400Y-24760400D02*
G01*
X40634400Y-24760400D01*
X40634400Y-24058400D01*
X42286400Y-24058400D01*
X42286400Y-24760400D01*
G37*
G36*
X36886400Y-24760400D02*
G01*
X35234400Y-24760400D01*
X35234400Y-24058400D01*
X36886400Y-24058400D01*
X36886400Y-24760400D01*
G37*
G36*
X84172504Y-23131647D02*
G01*
X84209044Y-23142732D01*
X84242721Y-23160733D01*
X84272241Y-23184959D01*
X84296467Y-23214479D01*
X84314468Y-23248156D01*
X84325553Y-23284696D01*
X84329900Y-23328838D01*
X84329900Y-24277762D01*
X84325553Y-24321904D01*
X84314468Y-24358444D01*
X84296467Y-24392121D01*
X84272241Y-24421641D01*
X84242721Y-24445867D01*
X84209044Y-24463868D01*
X84172504Y-24474953D01*
X84128362Y-24479300D01*
X81779438Y-24479300D01*
X81735296Y-24474953D01*
X81698756Y-24463868D01*
X81665079Y-24445867D01*
X81635559Y-24421641D01*
X81611333Y-24392121D01*
X81593332Y-24358444D01*
X81582247Y-24321904D01*
X81577900Y-24277762D01*
X81577900Y-23328838D01*
X81582247Y-23284696D01*
X81593332Y-23248156D01*
X81611333Y-23214479D01*
X81635559Y-23184959D01*
X81665079Y-23160733D01*
X81698756Y-23142732D01*
X81735296Y-23131647D01*
X81779438Y-23127300D01*
X84128362Y-23127300D01*
X84172504Y-23131647D01*
G37*
G36*
X32469991Y-23401685D02*
G01*
X32503969Y-23411993D01*
X32535290Y-23428734D01*
X32562739Y-23451261D01*
X32585266Y-23478710D01*
X32602007Y-23510031D01*
X32612315Y-23544009D01*
X32616400Y-23585490D01*
X32616400Y-24186710D01*
X32612315Y-24228191D01*
X32602007Y-24262169D01*
X32585266Y-24293490D01*
X32562739Y-24320939D01*
X32535290Y-24343466D01*
X32503969Y-24360207D01*
X32469991Y-24370515D01*
X32428510Y-24374600D01*
X31752290Y-24374600D01*
X31710809Y-24370515D01*
X31676831Y-24360207D01*
X31645510Y-24343466D01*
X31618061Y-24320939D01*
X31595534Y-24293490D01*
X31578793Y-24262169D01*
X31568485Y-24228191D01*
X31564400Y-24186710D01*
X31564400Y-23585490D01*
X31568485Y-23544009D01*
X31578793Y-23510031D01*
X31595534Y-23478710D01*
X31618061Y-23451261D01*
X31645510Y-23428734D01*
X31676831Y-23411993D01*
X31710809Y-23401685D01*
X31752290Y-23397600D01*
X32428510Y-23397600D01*
X32469991Y-23401685D01*
G37*
G36*
X85713471Y-23274885D02*
G01*
X85747449Y-23285193D01*
X85778770Y-23301934D01*
X85806219Y-23324461D01*
X85828746Y-23351910D01*
X85845487Y-23383231D01*
X85855795Y-23417209D01*
X85859880Y-23458690D01*
X85859880Y-24059910D01*
X85855795Y-24101391D01*
X85845487Y-24135369D01*
X85828746Y-24166690D01*
X85806219Y-24194139D01*
X85778770Y-24216666D01*
X85747449Y-24233407D01*
X85713471Y-24243715D01*
X85671990Y-24247800D01*
X84995770Y-24247800D01*
X84954289Y-24243715D01*
X84920311Y-24233407D01*
X84888990Y-24216666D01*
X84861541Y-24194139D01*
X84839014Y-24166690D01*
X84822273Y-24135369D01*
X84811965Y-24101391D01*
X84807880Y-24059910D01*
X84807880Y-23458690D01*
X84811965Y-23417209D01*
X84822273Y-23383231D01*
X84839014Y-23351910D01*
X84861541Y-23324461D01*
X84888990Y-23301934D01*
X84920311Y-23285193D01*
X84954289Y-23274885D01*
X84995770Y-23270800D01*
X85671990Y-23270800D01*
X85713471Y-23274885D01*
G37*
G36*
X67364511Y-22990205D02*
G01*
X67398489Y-23000513D01*
X67429810Y-23017254D01*
X67457259Y-23039781D01*
X67479786Y-23067230D01*
X67496527Y-23098551D01*
X67506835Y-23132529D01*
X67510920Y-23174010D01*
X67510920Y-23775230D01*
X67506835Y-23816711D01*
X67496527Y-23850689D01*
X67479786Y-23882010D01*
X67457259Y-23909459D01*
X67429810Y-23931986D01*
X67398489Y-23948727D01*
X67364511Y-23959035D01*
X67323030Y-23963120D01*
X66646810Y-23963120D01*
X66605329Y-23959035D01*
X66571351Y-23948727D01*
X66540030Y-23931986D01*
X66512581Y-23909459D01*
X66490054Y-23882010D01*
X66473313Y-23850689D01*
X66463005Y-23816711D01*
X66458920Y-23775230D01*
X66458920Y-23174010D01*
X66463005Y-23132529D01*
X66473313Y-23098551D01*
X66490054Y-23067230D01*
X66512581Y-23039781D01*
X66540030Y-23017254D01*
X66571351Y-23000513D01*
X66605329Y-22990205D01*
X66646810Y-22986120D01*
X67323030Y-22986120D01*
X67364511Y-22990205D01*
G37*
G36*
X65830351Y-22990205D02*
G01*
X65864329Y-23000513D01*
X65895650Y-23017254D01*
X65923099Y-23039781D01*
X65945626Y-23067230D01*
X65962367Y-23098551D01*
X65972675Y-23132529D01*
X65976760Y-23174010D01*
X65976760Y-23775230D01*
X65972675Y-23816711D01*
X65962367Y-23850689D01*
X65945626Y-23882010D01*
X65923099Y-23909459D01*
X65895650Y-23931986D01*
X65864329Y-23948727D01*
X65830351Y-23959035D01*
X65788870Y-23963120D01*
X65112650Y-23963120D01*
X65071169Y-23959035D01*
X65037191Y-23948727D01*
X65005870Y-23931986D01*
X64978421Y-23909459D01*
X64955894Y-23882010D01*
X64939153Y-23850689D01*
X64928845Y-23816711D01*
X64924760Y-23775230D01*
X64924760Y-23174010D01*
X64928845Y-23132529D01*
X64939153Y-23098551D01*
X64955894Y-23067230D01*
X64978421Y-23039781D01*
X65005870Y-23017254D01*
X65037191Y-23000513D01*
X65071169Y-22990205D01*
X65112650Y-22986120D01*
X65788870Y-22986120D01*
X65830351Y-22990205D01*
G37*
G36*
X69305071Y-22980045D02*
G01*
X69339049Y-22990353D01*
X69370370Y-23007094D01*
X69397819Y-23029621D01*
X69420346Y-23057070D01*
X69437087Y-23088391D01*
X69447395Y-23122369D01*
X69451480Y-23163850D01*
X69451480Y-23765070D01*
X69447395Y-23806551D01*
X69437087Y-23840529D01*
X69420346Y-23871850D01*
X69397819Y-23899299D01*
X69370370Y-23921826D01*
X69339049Y-23938567D01*
X69305071Y-23948875D01*
X69263590Y-23952960D01*
X68587370Y-23952960D01*
X68545889Y-23948875D01*
X68511911Y-23938567D01*
X68480590Y-23921826D01*
X68453141Y-23899299D01*
X68430614Y-23871850D01*
X68413873Y-23840529D01*
X68403565Y-23806551D01*
X68399480Y-23765070D01*
X68399480Y-23163850D01*
X68403565Y-23122369D01*
X68413873Y-23088391D01*
X68430614Y-23057070D01*
X68453141Y-23029621D01*
X68480590Y-23007094D01*
X68511911Y-22990353D01*
X68545889Y-22980045D01*
X68587370Y-22975960D01*
X69263590Y-22975960D01*
X69305071Y-22980045D01*
G37*
G36*
X60359191Y-22970185D02*
G01*
X60393169Y-22980493D01*
X60424490Y-22997234D01*
X60451939Y-23019761D01*
X60474466Y-23047210D01*
X60491207Y-23078531D01*
X60501515Y-23112509D01*
X60505600Y-23153990D01*
X60505600Y-23755210D01*
X60501515Y-23796691D01*
X60491207Y-23830669D01*
X60474466Y-23861990D01*
X60451939Y-23889439D01*
X60424490Y-23911966D01*
X60393169Y-23928707D01*
X60359191Y-23939015D01*
X60317710Y-23943100D01*
X59641490Y-23943100D01*
X59600009Y-23939015D01*
X59566031Y-23928707D01*
X59534710Y-23911966D01*
X59507261Y-23889439D01*
X59484734Y-23861990D01*
X59467993Y-23830669D01*
X59457685Y-23796691D01*
X59453600Y-23755210D01*
X59453600Y-23153990D01*
X59457685Y-23112509D01*
X59467993Y-23078531D01*
X59484734Y-23047210D01*
X59507261Y-23019761D01*
X59534710Y-22997234D01*
X59566031Y-22980493D01*
X59600009Y-22970185D01*
X59641490Y-22966100D01*
X60317710Y-22966100D01*
X60359191Y-22970185D01*
G37*
G36*
X57209591Y-22970185D02*
G01*
X57243569Y-22980493D01*
X57274890Y-22997234D01*
X57302339Y-23019761D01*
X57324866Y-23047210D01*
X57341607Y-23078531D01*
X57351915Y-23112509D01*
X57356000Y-23153990D01*
X57356000Y-23755210D01*
X57351915Y-23796691D01*
X57341607Y-23830669D01*
X57324866Y-23861990D01*
X57302339Y-23889439D01*
X57274890Y-23911966D01*
X57243569Y-23928707D01*
X57209591Y-23939015D01*
X57168110Y-23943100D01*
X56491890Y-23943100D01*
X56450409Y-23939015D01*
X56416431Y-23928707D01*
X56385110Y-23911966D01*
X56357661Y-23889439D01*
X56335134Y-23861990D01*
X56318393Y-23830669D01*
X56308085Y-23796691D01*
X56304000Y-23755210D01*
X56304000Y-23153990D01*
X56308085Y-23112509D01*
X56318393Y-23078531D01*
X56335134Y-23047210D01*
X56357661Y-23019761D01*
X56385110Y-22997234D01*
X56416431Y-22980493D01*
X56450409Y-22970185D01*
X56491890Y-22966100D01*
X57168110Y-22966100D01*
X57209591Y-22970185D01*
G37*
G36*
X61933991Y-22970185D02*
G01*
X61967969Y-22980493D01*
X61999290Y-22997234D01*
X62026739Y-23019761D01*
X62049266Y-23047210D01*
X62066007Y-23078531D01*
X62076315Y-23112509D01*
X62080400Y-23153990D01*
X62080400Y-23755210D01*
X62076315Y-23796691D01*
X62066007Y-23830669D01*
X62049266Y-23861990D01*
X62026739Y-23889439D01*
X61999290Y-23911966D01*
X61967969Y-23928707D01*
X61933991Y-23939015D01*
X61892510Y-23943100D01*
X61216290Y-23943100D01*
X61174809Y-23939015D01*
X61140831Y-23928707D01*
X61109510Y-23911966D01*
X61082061Y-23889439D01*
X61059534Y-23861990D01*
X61042793Y-23830669D01*
X61032485Y-23796691D01*
X61028400Y-23755210D01*
X61028400Y-23153990D01*
X61032485Y-23112509D01*
X61042793Y-23078531D01*
X61059534Y-23047210D01*
X61082061Y-23019761D01*
X61109510Y-22997234D01*
X61140831Y-22980493D01*
X61174809Y-22970185D01*
X61216290Y-22966100D01*
X61892510Y-22966100D01*
X61933991Y-22970185D01*
G37*
G36*
X63508791Y-22970185D02*
G01*
X63542769Y-22980493D01*
X63574090Y-22997234D01*
X63601539Y-23019761D01*
X63624066Y-23047210D01*
X63640807Y-23078531D01*
X63651115Y-23112509D01*
X63655200Y-23153990D01*
X63655200Y-23755210D01*
X63651115Y-23796691D01*
X63640807Y-23830669D01*
X63624066Y-23861990D01*
X63601539Y-23889439D01*
X63574090Y-23911966D01*
X63542769Y-23928707D01*
X63508791Y-23939015D01*
X63467310Y-23943100D01*
X62791090Y-23943100D01*
X62749609Y-23939015D01*
X62715631Y-23928707D01*
X62684310Y-23911966D01*
X62656861Y-23889439D01*
X62634334Y-23861990D01*
X62617593Y-23830669D01*
X62607285Y-23796691D01*
X62603200Y-23755210D01*
X62603200Y-23153990D01*
X62607285Y-23112509D01*
X62617593Y-23078531D01*
X62634334Y-23047210D01*
X62656861Y-23019761D01*
X62684310Y-22997234D01*
X62715631Y-22980493D01*
X62749609Y-22970185D01*
X62791090Y-22966100D01*
X63467310Y-22966100D01*
X63508791Y-22970185D01*
G37*
G36*
X58784391Y-22969985D02*
G01*
X58818369Y-22980293D01*
X58849690Y-22997034D01*
X58877139Y-23019561D01*
X58899666Y-23047010D01*
X58916407Y-23078331D01*
X58926715Y-23112309D01*
X58930800Y-23153790D01*
X58930800Y-23755010D01*
X58926715Y-23796491D01*
X58916407Y-23830469D01*
X58899666Y-23861790D01*
X58877139Y-23889239D01*
X58849690Y-23911766D01*
X58818369Y-23928507D01*
X58784391Y-23938815D01*
X58742910Y-23942900D01*
X58066690Y-23942900D01*
X58025209Y-23938815D01*
X57991231Y-23928507D01*
X57959910Y-23911766D01*
X57932461Y-23889239D01*
X57909934Y-23861790D01*
X57893193Y-23830469D01*
X57882885Y-23796491D01*
X57878800Y-23755010D01*
X57878800Y-23153790D01*
X57882885Y-23112309D01*
X57893193Y-23078331D01*
X57909934Y-23047010D01*
X57932461Y-23019561D01*
X57959910Y-22997034D01*
X57991231Y-22980293D01*
X58025209Y-22969985D01*
X58066690Y-22965900D01*
X58742910Y-22965900D01*
X58784391Y-22969985D01*
G37*
G36*
X70834151Y-22969885D02*
G01*
X70868129Y-22980193D01*
X70899450Y-22996934D01*
X70926899Y-23019461D01*
X70949426Y-23046910D01*
X70966167Y-23078231D01*
X70976475Y-23112209D01*
X70980560Y-23153690D01*
X70980560Y-23754910D01*
X70976475Y-23796391D01*
X70966167Y-23830369D01*
X70949426Y-23861690D01*
X70926899Y-23889139D01*
X70899450Y-23911666D01*
X70868129Y-23928407D01*
X70834151Y-23938715D01*
X70792670Y-23942800D01*
X70116450Y-23942800D01*
X70074969Y-23938715D01*
X70040991Y-23928407D01*
X70009670Y-23911666D01*
X69982221Y-23889139D01*
X69959694Y-23861690D01*
X69942953Y-23830369D01*
X69932645Y-23796391D01*
X69928560Y-23754910D01*
X69928560Y-23153690D01*
X69932645Y-23112209D01*
X69942953Y-23078231D01*
X69959694Y-23046910D01*
X69982221Y-23019461D01*
X70009670Y-22996934D01*
X70040991Y-22980193D01*
X70074969Y-22969885D01*
X70116450Y-22965800D01*
X70792670Y-22965800D01*
X70834151Y-22969885D01*
G37*
G36*
X34369911Y-22543165D02*
G01*
X34403889Y-22553473D01*
X34435210Y-22570214D01*
X34462659Y-22592741D01*
X34485186Y-22620190D01*
X34501927Y-22651511D01*
X34512235Y-22685489D01*
X34516320Y-22726970D01*
X34516320Y-23328190D01*
X34512235Y-23369671D01*
X34501927Y-23403649D01*
X34485186Y-23434970D01*
X34462659Y-23462419D01*
X34435210Y-23484946D01*
X34403889Y-23501687D01*
X34369911Y-23511995D01*
X34328430Y-23516080D01*
X33652210Y-23516080D01*
X33610729Y-23511995D01*
X33576751Y-23501687D01*
X33545430Y-23484946D01*
X33517981Y-23462419D01*
X33495454Y-23434970D01*
X33478713Y-23403649D01*
X33468405Y-23369671D01*
X33464320Y-23328190D01*
X33464320Y-22726970D01*
X33468405Y-22685489D01*
X33478713Y-22651511D01*
X33495454Y-22620190D01*
X33517981Y-22592741D01*
X33545430Y-22570214D01*
X33576751Y-22553473D01*
X33610729Y-22543165D01*
X33652210Y-22539080D01*
X34328430Y-22539080D01*
X34369911Y-22543165D01*
G37*
G36*
X51888228Y-21833463D02*
G01*
X52043100Y-21897613D01*
X52182481Y-21990745D01*
X52301015Y-22109279D01*
X52394147Y-22248660D01*
X52458297Y-22403532D01*
X52491000Y-22567944D01*
X52491000Y-22735576D01*
X52458297Y-22899988D01*
X52394147Y-23054860D01*
X52301015Y-23194241D01*
X52182481Y-23312775D01*
X52043100Y-23405907D01*
X51888228Y-23470057D01*
X51723816Y-23502760D01*
X51556184Y-23502760D01*
X51391772Y-23470057D01*
X51236900Y-23405907D01*
X51097519Y-23312775D01*
X50978985Y-23194241D01*
X50885853Y-23054860D01*
X50821703Y-22899988D01*
X50789000Y-22735576D01*
X50789000Y-22567944D01*
X50821703Y-22403532D01*
X50885853Y-22248660D01*
X50978985Y-22109279D01*
X51097519Y-21990745D01*
X51236900Y-21897613D01*
X51391772Y-21833463D01*
X51556184Y-21800760D01*
X51723816Y-21800760D01*
X51888228Y-21833463D01*
G37*
G36*
X42286400Y-23490400D02*
G01*
X40634400Y-23490400D01*
X40634400Y-22788400D01*
X42286400Y-22788400D01*
X42286400Y-23490400D01*
G37*
G36*
X36886400Y-23490400D02*
G01*
X35234400Y-23490400D01*
X35234400Y-22788400D01*
X36886400Y-22788400D01*
X36886400Y-23490400D01*
G37*
G36*
X85713471Y-21699885D02*
G01*
X85747449Y-21710193D01*
X85778770Y-21726934D01*
X85806219Y-21749461D01*
X85828746Y-21776910D01*
X85845487Y-21808231D01*
X85855795Y-21842209D01*
X85859880Y-21883690D01*
X85859880Y-22484910D01*
X85855795Y-22526391D01*
X85845487Y-22560369D01*
X85828746Y-22591690D01*
X85806219Y-22619139D01*
X85778770Y-22641666D01*
X85747449Y-22658407D01*
X85713471Y-22668715D01*
X85671990Y-22672800D01*
X84995770Y-22672800D01*
X84954289Y-22668715D01*
X84920311Y-22658407D01*
X84888990Y-22641666D01*
X84861541Y-22619139D01*
X84839014Y-22591690D01*
X84822273Y-22560369D01*
X84811965Y-22526391D01*
X84807880Y-22484910D01*
X84807880Y-21883690D01*
X84811965Y-21842209D01*
X84822273Y-21808231D01*
X84839014Y-21776910D01*
X84861541Y-21749461D01*
X84888990Y-21726934D01*
X84920311Y-21710193D01*
X84954289Y-21699885D01*
X84995770Y-21695800D01*
X85671990Y-21695800D01*
X85713471Y-21699885D01*
G37*
G36*
X92651000Y-22451000D02*
G01*
X88749000Y-22451000D01*
X88749000Y-20349000D01*
X92651000Y-20349000D01*
X92651000Y-22451000D01*
G37*
G36*
X61933991Y-21395185D02*
G01*
X61967969Y-21405493D01*
X61999290Y-21422234D01*
X62026739Y-21444761D01*
X62049266Y-21472210D01*
X62066007Y-21503531D01*
X62076315Y-21537509D01*
X62080400Y-21578990D01*
X62080400Y-22180210D01*
X62076315Y-22221691D01*
X62066007Y-22255669D01*
X62049266Y-22286990D01*
X62026739Y-22314439D01*
X61999290Y-22336966D01*
X61967969Y-22353707D01*
X61933991Y-22364015D01*
X61892510Y-22368100D01*
X61216290Y-22368100D01*
X61174809Y-22364015D01*
X61140831Y-22353707D01*
X61109510Y-22336966D01*
X61082061Y-22314439D01*
X61059534Y-22286990D01*
X61042793Y-22255669D01*
X61032485Y-22221691D01*
X61028400Y-22180210D01*
X61028400Y-21578990D01*
X61032485Y-21537509D01*
X61042793Y-21503531D01*
X61059534Y-21472210D01*
X61082061Y-21444761D01*
X61109510Y-21422234D01*
X61140831Y-21405493D01*
X61174809Y-21395185D01*
X61216290Y-21391100D01*
X61892510Y-21391100D01*
X61933991Y-21395185D01*
G37*
G36*
X63508791Y-21395185D02*
G01*
X63542769Y-21405493D01*
X63574090Y-21422234D01*
X63601539Y-21444761D01*
X63624066Y-21472210D01*
X63640807Y-21503531D01*
X63651115Y-21537509D01*
X63655200Y-21578990D01*
X63655200Y-22180210D01*
X63651115Y-22221691D01*
X63640807Y-22255669D01*
X63624066Y-22286990D01*
X63601539Y-22314439D01*
X63574090Y-22336966D01*
X63542769Y-22353707D01*
X63508791Y-22364015D01*
X63467310Y-22368100D01*
X62791090Y-22368100D01*
X62749609Y-22364015D01*
X62715631Y-22353707D01*
X62684310Y-22336966D01*
X62656861Y-22314439D01*
X62634334Y-22286990D01*
X62617593Y-22255669D01*
X62607285Y-22221691D01*
X62603200Y-22180210D01*
X62603200Y-21578990D01*
X62607285Y-21537509D01*
X62617593Y-21503531D01*
X62634334Y-21472210D01*
X62656861Y-21444761D01*
X62684310Y-21422234D01*
X62715631Y-21405493D01*
X62749609Y-21395185D01*
X62791090Y-21391100D01*
X63467310Y-21391100D01*
X63508791Y-21395185D01*
G37*
G36*
X57209591Y-21395185D02*
G01*
X57243569Y-21405493D01*
X57274890Y-21422234D01*
X57302339Y-21444761D01*
X57324866Y-21472210D01*
X57341607Y-21503531D01*
X57351915Y-21537509D01*
X57356000Y-21578990D01*
X57356000Y-22180210D01*
X57351915Y-22221691D01*
X57341607Y-22255669D01*
X57324866Y-22286990D01*
X57302339Y-22314439D01*
X57274890Y-22336966D01*
X57243569Y-22353707D01*
X57209591Y-22364015D01*
X57168110Y-22368100D01*
X56491890Y-22368100D01*
X56450409Y-22364015D01*
X56416431Y-22353707D01*
X56385110Y-22336966D01*
X56357661Y-22314439D01*
X56335134Y-22286990D01*
X56318393Y-22255669D01*
X56308085Y-22221691D01*
X56304000Y-22180210D01*
X56304000Y-21578990D01*
X56308085Y-21537509D01*
X56318393Y-21503531D01*
X56335134Y-21472210D01*
X56357661Y-21444761D01*
X56385110Y-21422234D01*
X56416431Y-21405493D01*
X56450409Y-21395185D01*
X56491890Y-21391100D01*
X57168110Y-21391100D01*
X57209591Y-21395185D01*
G37*
G36*
X60359191Y-21395185D02*
G01*
X60393169Y-21405493D01*
X60424490Y-21422234D01*
X60451939Y-21444761D01*
X60474466Y-21472210D01*
X60491207Y-21503531D01*
X60501515Y-21537509D01*
X60505600Y-21578990D01*
X60505600Y-22180210D01*
X60501515Y-22221691D01*
X60491207Y-22255669D01*
X60474466Y-22286990D01*
X60451939Y-22314439D01*
X60424490Y-22336966D01*
X60393169Y-22353707D01*
X60359191Y-22364015D01*
X60317710Y-22368100D01*
X59641490Y-22368100D01*
X59600009Y-22364015D01*
X59566031Y-22353707D01*
X59534710Y-22336966D01*
X59507261Y-22314439D01*
X59484734Y-22286990D01*
X59467993Y-22255669D01*
X59457685Y-22221691D01*
X59453600Y-22180210D01*
X59453600Y-21578990D01*
X59457685Y-21537509D01*
X59467993Y-21503531D01*
X59484734Y-21472210D01*
X59507261Y-21444761D01*
X59534710Y-21422234D01*
X59566031Y-21405493D01*
X59600009Y-21395185D01*
X59641490Y-21391100D01*
X60317710Y-21391100D01*
X60359191Y-21395185D01*
G37*
G36*
X58784391Y-21394985D02*
G01*
X58818369Y-21405293D01*
X58849690Y-21422034D01*
X58877139Y-21444561D01*
X58899666Y-21472010D01*
X58916407Y-21503331D01*
X58926715Y-21537309D01*
X58930800Y-21578790D01*
X58930800Y-22180010D01*
X58926715Y-22221491D01*
X58916407Y-22255469D01*
X58899666Y-22286790D01*
X58877139Y-22314239D01*
X58849690Y-22336766D01*
X58818369Y-22353507D01*
X58784391Y-22363815D01*
X58742910Y-22367900D01*
X58066690Y-22367900D01*
X58025209Y-22363815D01*
X57991231Y-22353507D01*
X57959910Y-22336766D01*
X57932461Y-22314239D01*
X57909934Y-22286790D01*
X57893193Y-22255469D01*
X57882885Y-22221491D01*
X57878800Y-22180010D01*
X57878800Y-21578790D01*
X57882885Y-21537309D01*
X57893193Y-21503331D01*
X57909934Y-21472010D01*
X57932461Y-21444561D01*
X57959910Y-21422034D01*
X57991231Y-21405293D01*
X58025209Y-21394985D01*
X58066690Y-21390900D01*
X58742910Y-21390900D01*
X58784391Y-21394985D01*
G37*
G36*
X43801391Y-21306885D02*
G01*
X43835369Y-21317193D01*
X43866690Y-21333934D01*
X43894139Y-21356461D01*
X43916666Y-21383910D01*
X43933407Y-21415231D01*
X43943715Y-21449209D01*
X43947800Y-21490690D01*
X43947800Y-22166910D01*
X43943715Y-22208391D01*
X43933407Y-22242369D01*
X43916666Y-22273690D01*
X43894139Y-22301139D01*
X43866690Y-22323666D01*
X43835369Y-22340407D01*
X43801391Y-22350715D01*
X43759910Y-22354800D01*
X43158690Y-22354800D01*
X43117209Y-22350715D01*
X43083231Y-22340407D01*
X43051910Y-22323666D01*
X43024461Y-22301139D01*
X43001934Y-22273690D01*
X42985193Y-22242369D01*
X42974885Y-22208391D01*
X42970800Y-22166910D01*
X42970800Y-21490690D01*
X42974885Y-21449209D01*
X42985193Y-21415231D01*
X43001934Y-21383910D01*
X43024461Y-21356461D01*
X43051910Y-21333934D01*
X43083231Y-21317193D01*
X43117209Y-21306885D01*
X43158690Y-21302800D01*
X43759910Y-21302800D01*
X43801391Y-21306885D01*
G37*
G36*
X45376391Y-21306885D02*
G01*
X45410369Y-21317193D01*
X45441690Y-21333934D01*
X45469139Y-21356461D01*
X45491666Y-21383910D01*
X45508407Y-21415231D01*
X45518715Y-21449209D01*
X45522800Y-21490690D01*
X45522800Y-22166910D01*
X45518715Y-22208391D01*
X45508407Y-22242369D01*
X45491666Y-22273690D01*
X45469139Y-22301139D01*
X45441690Y-22323666D01*
X45410369Y-22340407D01*
X45376391Y-22350715D01*
X45334910Y-22354800D01*
X44733690Y-22354800D01*
X44692209Y-22350715D01*
X44658231Y-22340407D01*
X44626910Y-22323666D01*
X44599461Y-22301139D01*
X44576934Y-22273690D01*
X44560193Y-22242369D01*
X44549885Y-22208391D01*
X44545800Y-22166910D01*
X44545800Y-21490690D01*
X44549885Y-21449209D01*
X44560193Y-21415231D01*
X44576934Y-21383910D01*
X44599461Y-21356461D01*
X44626910Y-21333934D01*
X44658231Y-21317193D01*
X44692209Y-21306885D01*
X44733690Y-21302800D01*
X45334910Y-21302800D01*
X45376391Y-21306885D01*
G37*
G36*
X42286400Y-22220400D02*
G01*
X40634400Y-22220400D01*
X40634400Y-21518400D01*
X42286400Y-21518400D01*
X42286400Y-22220400D01*
G37*
G36*
X36886400Y-22220400D02*
G01*
X35234400Y-22220400D01*
X35234400Y-21518400D01*
X36886400Y-21518400D01*
X36886400Y-22220400D01*
G37*
G36*
X24639248Y-20808119D02*
G01*
X24682782Y-20816778D01*
X24805806Y-20867736D01*
X24916525Y-20941716D01*
X25010684Y-21035875D01*
X25084664Y-21146594D01*
X25135622Y-21269618D01*
X25142222Y-21302800D01*
X25161600Y-21400218D01*
X25161600Y-21533382D01*
X25149916Y-21592121D01*
X25135622Y-21663982D01*
X25084664Y-21787006D01*
X25010684Y-21897725D01*
X24916525Y-21991884D01*
X24805806Y-22065864D01*
X24682782Y-22116822D01*
X24648455Y-22123650D01*
X24552182Y-22142800D01*
X24419018Y-22142800D01*
X24322745Y-22123650D01*
X24288418Y-22116822D01*
X24165394Y-22065864D01*
X24054675Y-21991884D01*
X23960516Y-21897725D01*
X23886536Y-21787006D01*
X23835578Y-21663982D01*
X23821284Y-21592121D01*
X23809600Y-21533382D01*
X23809600Y-21400218D01*
X23828978Y-21302800D01*
X23835578Y-21269618D01*
X23886536Y-21146594D01*
X23960516Y-21035875D01*
X24054675Y-20941716D01*
X24165394Y-20867736D01*
X24288418Y-20816778D01*
X24331952Y-20808119D01*
X24419018Y-20790800D01*
X24552182Y-20790800D01*
X24639248Y-20808119D01*
G37*
G36*
X22139248Y-20808119D02*
G01*
X22182782Y-20816778D01*
X22305806Y-20867736D01*
X22416525Y-20941716D01*
X22510684Y-21035875D01*
X22584664Y-21146594D01*
X22635622Y-21269618D01*
X22642222Y-21302800D01*
X22661600Y-21400218D01*
X22661600Y-21533382D01*
X22649916Y-21592121D01*
X22635622Y-21663982D01*
X22584664Y-21787006D01*
X22510684Y-21897725D01*
X22416525Y-21991884D01*
X22305806Y-22065864D01*
X22182782Y-22116822D01*
X22148455Y-22123650D01*
X22052182Y-22142800D01*
X21919018Y-22142800D01*
X21822745Y-22123650D01*
X21788418Y-22116822D01*
X21665394Y-22065864D01*
X21554675Y-21991884D01*
X21460516Y-21897725D01*
X21386536Y-21787006D01*
X21335578Y-21663982D01*
X21321284Y-21592121D01*
X21309600Y-21533382D01*
X21309600Y-21400218D01*
X21328978Y-21302800D01*
X21335578Y-21269618D01*
X21386536Y-21146594D01*
X21460516Y-21035875D01*
X21554675Y-20941716D01*
X21665394Y-20867736D01*
X21788418Y-20816778D01*
X21831952Y-20808119D01*
X21919018Y-20790800D01*
X22052182Y-20790800D01*
X22139248Y-20808119D01*
G37*
G36*
X30536600Y-22117800D02*
G01*
X28434600Y-22117800D01*
X28434600Y-20815800D01*
X30536600Y-20815800D01*
X30536600Y-22117800D01*
G37*
G36*
X84172504Y-20331647D02*
G01*
X84209044Y-20342732D01*
X84242721Y-20360733D01*
X84272241Y-20384959D01*
X84296467Y-20414479D01*
X84314468Y-20448156D01*
X84325553Y-20484696D01*
X84329900Y-20528838D01*
X84329900Y-21477762D01*
X84325553Y-21521904D01*
X84314468Y-21558444D01*
X84296467Y-21592121D01*
X84272241Y-21621641D01*
X84242721Y-21645867D01*
X84209044Y-21663868D01*
X84172504Y-21674953D01*
X84128362Y-21679300D01*
X81779438Y-21679300D01*
X81735296Y-21674953D01*
X81698756Y-21663868D01*
X81665079Y-21645867D01*
X81635559Y-21621641D01*
X81611333Y-21592121D01*
X81593332Y-21558444D01*
X81582247Y-21521904D01*
X81577900Y-21477762D01*
X81577900Y-20528838D01*
X81582247Y-20484696D01*
X81593332Y-20448156D01*
X81611333Y-20414479D01*
X81635559Y-20384959D01*
X81665079Y-20360733D01*
X81698756Y-20342732D01*
X81735296Y-20331647D01*
X81779438Y-20327300D01*
X84128362Y-20327300D01*
X84172504Y-20331647D01*
G37*
M02*
