G04 #@! TF.GenerationSoftware,KiCad,Pcbnew,(5.1.5-0-10_14)*
G04 #@! TF.CreationDate,2021-02-26T10:59:33+01:00*
G04 #@! TF.ProjectId,L_tfix,4cf67466-6978-42e6-9b69-6361645f7063,rev?*
G04 #@! TF.SameCoordinates,Original*
G04 #@! TF.FileFunction,Soldermask,Top*
G04 #@! TF.FilePolarity,Negative*
%FSLAX46Y46*%
G04 Gerber Fmt 4.6, Leading zero omitted, Abs format (unit mm)*
G04 Created by KiCad (PCBNEW (5.1.5-0-10_14)) date 2021-02-26 10:59:33*
%MOMM*%
%LPD*%
G04 APERTURE LIST*
%ADD10C,0.200000*%
%ADD11C,0.050000*%
%ADD12C,0.150000*%
G04 APERTURE END LIST*
D10*
X90553628Y-32390380D02*
X90077438Y-32390380D01*
X90077438Y-31390380D01*
X91029819Y-32390380D02*
X90934580Y-32342761D01*
X90886961Y-32295142D01*
X90839342Y-32199904D01*
X90839342Y-31914190D01*
X90886961Y-31818952D01*
X90934580Y-31771333D01*
X91029819Y-31723714D01*
X91172676Y-31723714D01*
X91267914Y-31771333D01*
X91315533Y-31818952D01*
X91363152Y-31914190D01*
X91363152Y-32199904D01*
X91315533Y-32295142D01*
X91267914Y-32342761D01*
X91172676Y-32390380D01*
X91029819Y-32390380D01*
X90934580Y-31390380D02*
X90982200Y-31438000D01*
X90934580Y-31485619D01*
X90886961Y-31438000D01*
X90934580Y-31390380D01*
X90934580Y-31485619D01*
X91315533Y-31390380D02*
X91363152Y-31438000D01*
X91315533Y-31485619D01*
X91267914Y-31438000D01*
X91315533Y-31390380D01*
X91315533Y-31485619D01*
X91648866Y-31723714D02*
X92029819Y-31723714D01*
X91791723Y-31390380D02*
X91791723Y-32247523D01*
X91839342Y-32342761D01*
X91934580Y-32390380D01*
X92029819Y-32390380D01*
X92220295Y-31723714D02*
X92601247Y-31723714D01*
X92363152Y-32390380D02*
X92363152Y-31533238D01*
X92410771Y-31438000D01*
X92506009Y-31390380D01*
X92601247Y-31390380D01*
X92934580Y-32390380D02*
X92934580Y-31723714D01*
X92934580Y-31390380D02*
X92886961Y-31438000D01*
X92934580Y-31485619D01*
X92982200Y-31438000D01*
X92934580Y-31390380D01*
X92934580Y-31485619D01*
X93315533Y-32390380D02*
X93839342Y-31723714D01*
X93315533Y-31723714D02*
X93839342Y-32390380D01*
X95506009Y-32390380D02*
X94934580Y-32390380D01*
X95220295Y-32390380D02*
X95220295Y-31390380D01*
X95125057Y-31533238D01*
X95029819Y-31628476D01*
X94934580Y-31676095D01*
X95934580Y-32295142D02*
X95982200Y-32342761D01*
X95934580Y-32390380D01*
X95886961Y-32342761D01*
X95934580Y-32295142D01*
X95934580Y-32390380D01*
X96934580Y-32390380D02*
X96363152Y-32390380D01*
X96648866Y-32390380D02*
X96648866Y-31390380D01*
X96553628Y-31533238D01*
X96458390Y-31628476D01*
X96363152Y-31676095D01*
D11*
X21000000Y-30000000D02*
X21000000Y-33000000D01*
X21000000Y-23000000D02*
X21000000Y-30000000D01*
X21000000Y-20000000D02*
X21000000Y-23000000D01*
X102000000Y-20000000D02*
X21000000Y-20000000D01*
X102000000Y-20000000D02*
X102000000Y-33000000D01*
X21000000Y-33000000D02*
X102000000Y-33000000D01*
D12*
G36*
X36749991Y-30526369D02*
G01*
X36829701Y-30550548D01*
X36903160Y-30589813D01*
X36967547Y-30642653D01*
X37020387Y-30707040D01*
X37059652Y-30780499D01*
X37083831Y-30860209D01*
X37092600Y-30949240D01*
X37092600Y-32037960D01*
X37083831Y-32126991D01*
X37059652Y-32206701D01*
X37020387Y-32280160D01*
X36967547Y-32344547D01*
X36903160Y-32397387D01*
X36829701Y-32436652D01*
X36749991Y-32460831D01*
X36660960Y-32469600D01*
X34022240Y-32469600D01*
X33933209Y-32460831D01*
X33853499Y-32436652D01*
X33780040Y-32397387D01*
X33715653Y-32344547D01*
X33662813Y-32280160D01*
X33623548Y-32206701D01*
X33599369Y-32126991D01*
X33590600Y-32037960D01*
X33590600Y-30949240D01*
X33599369Y-30860209D01*
X33623548Y-30780499D01*
X33662813Y-30707040D01*
X33715653Y-30642653D01*
X33780040Y-30589813D01*
X33853499Y-30550548D01*
X33933209Y-30526369D01*
X34022240Y-30517600D01*
X36660960Y-30517600D01*
X36749991Y-30526369D01*
G37*
G36*
X22139248Y-30808119D02*
G01*
X22182782Y-30816778D01*
X22305806Y-30867736D01*
X22416525Y-30941716D01*
X22510684Y-31035875D01*
X22584664Y-31146594D01*
X22635622Y-31269618D01*
X22661600Y-31400220D01*
X22661600Y-31533380D01*
X22635622Y-31663982D01*
X22584664Y-31787006D01*
X22510684Y-31897725D01*
X22416525Y-31991884D01*
X22305806Y-32065864D01*
X22182782Y-32116822D01*
X22139248Y-32125481D01*
X22052182Y-32142800D01*
X21919018Y-32142800D01*
X21831952Y-32125481D01*
X21788418Y-32116822D01*
X21665394Y-32065864D01*
X21554675Y-31991884D01*
X21460516Y-31897725D01*
X21386536Y-31787006D01*
X21335578Y-31663982D01*
X21309600Y-31533380D01*
X21309600Y-31400220D01*
X21335578Y-31269618D01*
X21386536Y-31146594D01*
X21460516Y-31035875D01*
X21554675Y-30941716D01*
X21665394Y-30867736D01*
X21788418Y-30816778D01*
X21831952Y-30808119D01*
X21919018Y-30790800D01*
X22052182Y-30790800D01*
X22139248Y-30808119D01*
G37*
G36*
X24639248Y-30808119D02*
G01*
X24682782Y-30816778D01*
X24805806Y-30867736D01*
X24916525Y-30941716D01*
X25010684Y-31035875D01*
X25084664Y-31146594D01*
X25135622Y-31269618D01*
X25161600Y-31400220D01*
X25161600Y-31533380D01*
X25135622Y-31663982D01*
X25084664Y-31787006D01*
X25010684Y-31897725D01*
X24916525Y-31991884D01*
X24805806Y-32065864D01*
X24682782Y-32116822D01*
X24639248Y-32125481D01*
X24552182Y-32142800D01*
X24419018Y-32142800D01*
X24331952Y-32125481D01*
X24288418Y-32116822D01*
X24165394Y-32065864D01*
X24054675Y-31991884D01*
X23960516Y-31897725D01*
X23886536Y-31787006D01*
X23835578Y-31663982D01*
X23809600Y-31533380D01*
X23809600Y-31400220D01*
X23835578Y-31269618D01*
X23886536Y-31146594D01*
X23960516Y-31035875D01*
X24054675Y-30941716D01*
X24165394Y-30867736D01*
X24288418Y-30816778D01*
X24331952Y-30808119D01*
X24419018Y-30790800D01*
X24552182Y-30790800D01*
X24639248Y-30808119D01*
G37*
G36*
X30536600Y-32117800D02*
G01*
X28434600Y-32117800D01*
X28434600Y-30815800D01*
X30536600Y-30815800D01*
X30536600Y-32117800D01*
G37*
G36*
X52491000Y-31122760D02*
G01*
X50789000Y-31122760D01*
X50789000Y-29420760D01*
X52491000Y-29420760D01*
X52491000Y-31122760D01*
G37*
G36*
X101475780Y-30797740D02*
G01*
X97873660Y-30797740D01*
X97873660Y-27195620D01*
X101475780Y-27195620D01*
X101475780Y-30797740D01*
G37*
G36*
X81862610Y-28888097D02*
G01*
X81981084Y-28937171D01*
X82087708Y-29008415D01*
X82178385Y-29099092D01*
X82249629Y-29205716D01*
X82298703Y-29324190D01*
X82323720Y-29449962D01*
X82323720Y-29578198D01*
X82298703Y-29703970D01*
X82249629Y-29822444D01*
X82178385Y-29929068D01*
X82087708Y-30019745D01*
X81981084Y-30090989D01*
X81981083Y-30090990D01*
X81981082Y-30090990D01*
X81862610Y-30140063D01*
X81736839Y-30165080D01*
X81608601Y-30165080D01*
X81482830Y-30140063D01*
X81364358Y-30090990D01*
X81364357Y-30090990D01*
X81364356Y-30090989D01*
X81257732Y-30019745D01*
X81167055Y-29929068D01*
X81095811Y-29822444D01*
X81046737Y-29703970D01*
X81021720Y-29578198D01*
X81021720Y-29449962D01*
X81046737Y-29324190D01*
X81095811Y-29205716D01*
X81167055Y-29099092D01*
X81257732Y-29008415D01*
X81364356Y-28937171D01*
X81482830Y-28888097D01*
X81608601Y-28863080D01*
X81736839Y-28863080D01*
X81862610Y-28888097D01*
G37*
G36*
X85862610Y-28888097D02*
G01*
X85981084Y-28937171D01*
X86087708Y-29008415D01*
X86178385Y-29099092D01*
X86249629Y-29205716D01*
X86298703Y-29324190D01*
X86323720Y-29449962D01*
X86323720Y-29578198D01*
X86298703Y-29703970D01*
X86249629Y-29822444D01*
X86178385Y-29929068D01*
X86087708Y-30019745D01*
X85981084Y-30090989D01*
X85981083Y-30090990D01*
X85981082Y-30090990D01*
X85862610Y-30140063D01*
X85736839Y-30165080D01*
X85608601Y-30165080D01*
X85482830Y-30140063D01*
X85364358Y-30090990D01*
X85364357Y-30090990D01*
X85364356Y-30090989D01*
X85257732Y-30019745D01*
X85167055Y-29929068D01*
X85095811Y-29822444D01*
X85046737Y-29703970D01*
X85021720Y-29578198D01*
X85021720Y-29449962D01*
X85046737Y-29324190D01*
X85095811Y-29205716D01*
X85167055Y-29099092D01*
X85257732Y-29008415D01*
X85364356Y-28937171D01*
X85482830Y-28888097D01*
X85608601Y-28863080D01*
X85736839Y-28863080D01*
X85862610Y-28888097D01*
G37*
G36*
X83862610Y-28888097D02*
G01*
X83981084Y-28937171D01*
X84087708Y-29008415D01*
X84178385Y-29099092D01*
X84249629Y-29205716D01*
X84298703Y-29324190D01*
X84323720Y-29449962D01*
X84323720Y-29578198D01*
X84298703Y-29703970D01*
X84249629Y-29822444D01*
X84178385Y-29929068D01*
X84087708Y-30019745D01*
X83981084Y-30090989D01*
X83981083Y-30090990D01*
X83981082Y-30090990D01*
X83862610Y-30140063D01*
X83736839Y-30165080D01*
X83608601Y-30165080D01*
X83482830Y-30140063D01*
X83364358Y-30090990D01*
X83364357Y-30090990D01*
X83364356Y-30090989D01*
X83257732Y-30019745D01*
X83167055Y-29929068D01*
X83095811Y-29822444D01*
X83046737Y-29703970D01*
X83021720Y-29578198D01*
X83021720Y-29449962D01*
X83046737Y-29324190D01*
X83095811Y-29205716D01*
X83167055Y-29099092D01*
X83257732Y-29008415D01*
X83364356Y-28937171D01*
X83482830Y-28888097D01*
X83608601Y-28863080D01*
X83736839Y-28863080D01*
X83862610Y-28888097D01*
G37*
G36*
X42136800Y-29564720D02*
G01*
X40484800Y-29564720D01*
X40484800Y-28162720D01*
X42136800Y-28162720D01*
X42136800Y-29564720D01*
G37*
G36*
X50086800Y-29564720D02*
G01*
X48434800Y-29564720D01*
X48434800Y-28162720D01*
X50086800Y-28162720D01*
X50086800Y-29564720D01*
G37*
G36*
X97101000Y-29451000D02*
G01*
X95449000Y-29451000D01*
X95449000Y-28049000D01*
X97101000Y-28049000D01*
X97101000Y-29451000D01*
G37*
G36*
X89151000Y-29451000D02*
G01*
X87499000Y-29451000D01*
X87499000Y-28049000D01*
X89151000Y-28049000D01*
X89151000Y-29451000D01*
G37*
G36*
X51888228Y-26913463D02*
G01*
X52043100Y-26977613D01*
X52182481Y-27070745D01*
X52301015Y-27189279D01*
X52394147Y-27328660D01*
X52458297Y-27483532D01*
X52491000Y-27647944D01*
X52491000Y-27815576D01*
X52458297Y-27979988D01*
X52394147Y-28134860D01*
X52301015Y-28274241D01*
X52182481Y-28392775D01*
X52043100Y-28485907D01*
X51888228Y-28550057D01*
X51723816Y-28582760D01*
X51556184Y-28582760D01*
X51391772Y-28550057D01*
X51236900Y-28485907D01*
X51097519Y-28392775D01*
X50978985Y-28274241D01*
X50885853Y-28134860D01*
X50821703Y-27979988D01*
X50789000Y-27815576D01*
X50789000Y-27647944D01*
X50821703Y-27483532D01*
X50885853Y-27328660D01*
X50978985Y-27189279D01*
X51097519Y-27070745D01*
X51236900Y-26977613D01*
X51391772Y-26913463D01*
X51556184Y-26880760D01*
X51723816Y-26880760D01*
X51888228Y-26913463D01*
G37*
G36*
X83862610Y-26888097D02*
G01*
X83938665Y-26919600D01*
X83981084Y-26937171D01*
X84087708Y-27008415D01*
X84178385Y-27099092D01*
X84249629Y-27205716D01*
X84298703Y-27324190D01*
X84323720Y-27449962D01*
X84323720Y-27578198D01*
X84298703Y-27703970D01*
X84249629Y-27822444D01*
X84178385Y-27929068D01*
X84087708Y-28019745D01*
X83981084Y-28090989D01*
X83981083Y-28090990D01*
X83981082Y-28090990D01*
X83862610Y-28140063D01*
X83736839Y-28165080D01*
X83608601Y-28165080D01*
X83482830Y-28140063D01*
X83364358Y-28090990D01*
X83364357Y-28090990D01*
X83364356Y-28090989D01*
X83257732Y-28019745D01*
X83167055Y-27929068D01*
X83095811Y-27822444D01*
X83046737Y-27703970D01*
X83021720Y-27578198D01*
X83021720Y-27449962D01*
X83046737Y-27324190D01*
X83095811Y-27205716D01*
X83167055Y-27099092D01*
X83257732Y-27008415D01*
X83364356Y-26937171D01*
X83406776Y-26919600D01*
X83482830Y-26888097D01*
X83608601Y-26863080D01*
X83736839Y-26863080D01*
X83862610Y-26888097D01*
G37*
G36*
X81862610Y-26888097D02*
G01*
X81938665Y-26919600D01*
X81981084Y-26937171D01*
X82087708Y-27008415D01*
X82178385Y-27099092D01*
X82249629Y-27205716D01*
X82298703Y-27324190D01*
X82323720Y-27449962D01*
X82323720Y-27578198D01*
X82298703Y-27703970D01*
X82249629Y-27822444D01*
X82178385Y-27929068D01*
X82087708Y-28019745D01*
X81981084Y-28090989D01*
X81981083Y-28090990D01*
X81981082Y-28090990D01*
X81862610Y-28140063D01*
X81736839Y-28165080D01*
X81608601Y-28165080D01*
X81482830Y-28140063D01*
X81364358Y-28090990D01*
X81364357Y-28090990D01*
X81364356Y-28090989D01*
X81257732Y-28019745D01*
X81167055Y-27929068D01*
X81095811Y-27822444D01*
X81046737Y-27703970D01*
X81021720Y-27578198D01*
X81021720Y-27449962D01*
X81046737Y-27324190D01*
X81095811Y-27205716D01*
X81167055Y-27099092D01*
X81257732Y-27008415D01*
X81364356Y-26937171D01*
X81406776Y-26919600D01*
X81482830Y-26888097D01*
X81608601Y-26863080D01*
X81736839Y-26863080D01*
X81862610Y-26888097D01*
G37*
G36*
X25136600Y-27517800D02*
G01*
X23834600Y-27517800D01*
X23834600Y-25415800D01*
X25136600Y-25415800D01*
X25136600Y-27517800D01*
G37*
G36*
X36749991Y-24976369D02*
G01*
X36829701Y-25000548D01*
X36903160Y-25039813D01*
X36967547Y-25092653D01*
X37020387Y-25157040D01*
X37059652Y-25230499D01*
X37083831Y-25310209D01*
X37092600Y-25399240D01*
X37092600Y-26487960D01*
X37083831Y-26576991D01*
X37059652Y-26656701D01*
X37020387Y-26730160D01*
X36967547Y-26794547D01*
X36903160Y-26847387D01*
X36829701Y-26886652D01*
X36749991Y-26910831D01*
X36660960Y-26919600D01*
X34022240Y-26919600D01*
X33933209Y-26910831D01*
X33853499Y-26886652D01*
X33780040Y-26847387D01*
X33715653Y-26794547D01*
X33662813Y-26730160D01*
X33623548Y-26656701D01*
X33599369Y-26576991D01*
X33590600Y-26487960D01*
X33590600Y-25399240D01*
X33599369Y-25310209D01*
X33623548Y-25230499D01*
X33662813Y-25157040D01*
X33715653Y-25092653D01*
X33780040Y-25039813D01*
X33853499Y-25000548D01*
X33933209Y-24976369D01*
X34022240Y-24967600D01*
X36660960Y-24967600D01*
X36749991Y-24976369D01*
G37*
G36*
X51888228Y-24373463D02*
G01*
X52043100Y-24437613D01*
X52182481Y-24530745D01*
X52301015Y-24649279D01*
X52394147Y-24788660D01*
X52458297Y-24943532D01*
X52491000Y-25107944D01*
X52491000Y-25275576D01*
X52458297Y-25439988D01*
X52394147Y-25594860D01*
X52301015Y-25734241D01*
X52182481Y-25852775D01*
X52043100Y-25945907D01*
X51888228Y-26010057D01*
X51723816Y-26042760D01*
X51556184Y-26042760D01*
X51391772Y-26010057D01*
X51236900Y-25945907D01*
X51097519Y-25852775D01*
X50978985Y-25734241D01*
X50885853Y-25594860D01*
X50821703Y-25439988D01*
X50789000Y-25275576D01*
X50789000Y-25107944D01*
X50821703Y-24943532D01*
X50885853Y-24788660D01*
X50978985Y-24649279D01*
X51097519Y-24530745D01*
X51236900Y-24437613D01*
X51391772Y-24373463D01*
X51556184Y-24340760D01*
X51723816Y-24340760D01*
X51888228Y-24373463D01*
G37*
G36*
X99863069Y-22117800D02*
G01*
X100200070Y-22184833D01*
X100527842Y-22320601D01*
X100822829Y-22517705D01*
X101073695Y-22768571D01*
X101270799Y-23063558D01*
X101406567Y-23391330D01*
X101475780Y-23739291D01*
X101475780Y-24094069D01*
X101406567Y-24442030D01*
X101270799Y-24769802D01*
X101073695Y-25064789D01*
X100822829Y-25315655D01*
X100527842Y-25512759D01*
X100200070Y-25648527D01*
X99901625Y-25707891D01*
X99852110Y-25717740D01*
X99497330Y-25717740D01*
X99447815Y-25707891D01*
X99149370Y-25648527D01*
X98821598Y-25512759D01*
X98526611Y-25315655D01*
X98275745Y-25064789D01*
X98078641Y-24769802D01*
X97942873Y-24442030D01*
X97873660Y-24094069D01*
X97873660Y-23739291D01*
X97942873Y-23391330D01*
X98078641Y-23063558D01*
X98275745Y-22768571D01*
X98526611Y-22517705D01*
X98821598Y-22320601D01*
X99149370Y-22184833D01*
X99486371Y-22117800D01*
X99497330Y-22115620D01*
X99852110Y-22115620D01*
X99863069Y-22117800D01*
G37*
G36*
X42136800Y-25064720D02*
G01*
X40484800Y-25064720D01*
X40484800Y-23662720D01*
X42136800Y-23662720D01*
X42136800Y-25064720D01*
G37*
G36*
X50086800Y-25064720D02*
G01*
X48434800Y-25064720D01*
X48434800Y-23662720D01*
X50086800Y-23662720D01*
X50086800Y-25064720D01*
G37*
G36*
X89151000Y-24951000D02*
G01*
X87499000Y-24951000D01*
X87499000Y-23549000D01*
X89151000Y-23549000D01*
X89151000Y-24951000D01*
G37*
G36*
X97101000Y-24951000D02*
G01*
X95449000Y-24951000D01*
X95449000Y-23549000D01*
X97101000Y-23549000D01*
X97101000Y-24951000D01*
G37*
G36*
X51888228Y-21833463D02*
G01*
X52043100Y-21897613D01*
X52182481Y-21990745D01*
X52301015Y-22109279D01*
X52394147Y-22248660D01*
X52458297Y-22403532D01*
X52491000Y-22567944D01*
X52491000Y-22735576D01*
X52458297Y-22899988D01*
X52394147Y-23054860D01*
X52301015Y-23194241D01*
X52182481Y-23312775D01*
X52043100Y-23405907D01*
X51888228Y-23470057D01*
X51723816Y-23502760D01*
X51556184Y-23502760D01*
X51391772Y-23470057D01*
X51236900Y-23405907D01*
X51097519Y-23312775D01*
X50978985Y-23194241D01*
X50885853Y-23054860D01*
X50821703Y-22899988D01*
X50789000Y-22735576D01*
X50789000Y-22567944D01*
X50821703Y-22403532D01*
X50885853Y-22248660D01*
X50978985Y-22109279D01*
X51097519Y-21990745D01*
X51236900Y-21897613D01*
X51391772Y-21833463D01*
X51556184Y-21800760D01*
X51723816Y-21800760D01*
X51888228Y-21833463D01*
G37*
G36*
X24639248Y-20808119D02*
G01*
X24682782Y-20816778D01*
X24805806Y-20867736D01*
X24916525Y-20941716D01*
X25010684Y-21035875D01*
X25084664Y-21146594D01*
X25135622Y-21269618D01*
X25161600Y-21400220D01*
X25161600Y-21533380D01*
X25135622Y-21663982D01*
X25084664Y-21787006D01*
X25010684Y-21897725D01*
X24916525Y-21991884D01*
X24805806Y-22065864D01*
X24682782Y-22116822D01*
X24639248Y-22125481D01*
X24552182Y-22142800D01*
X24419018Y-22142800D01*
X24331952Y-22125481D01*
X24288418Y-22116822D01*
X24165394Y-22065864D01*
X24054675Y-21991884D01*
X23960516Y-21897725D01*
X23886536Y-21787006D01*
X23835578Y-21663982D01*
X23809600Y-21533380D01*
X23809600Y-21400220D01*
X23835578Y-21269618D01*
X23886536Y-21146594D01*
X23960516Y-21035875D01*
X24054675Y-20941716D01*
X24165394Y-20867736D01*
X24288418Y-20816778D01*
X24331952Y-20808119D01*
X24419018Y-20790800D01*
X24552182Y-20790800D01*
X24639248Y-20808119D01*
G37*
G36*
X22139248Y-20808119D02*
G01*
X22182782Y-20816778D01*
X22305806Y-20867736D01*
X22416525Y-20941716D01*
X22510684Y-21035875D01*
X22584664Y-21146594D01*
X22635622Y-21269618D01*
X22661600Y-21400220D01*
X22661600Y-21533380D01*
X22635622Y-21663982D01*
X22584664Y-21787006D01*
X22510684Y-21897725D01*
X22416525Y-21991884D01*
X22305806Y-22065864D01*
X22182782Y-22116822D01*
X22139248Y-22125481D01*
X22052182Y-22142800D01*
X21919018Y-22142800D01*
X21831952Y-22125481D01*
X21788418Y-22116822D01*
X21665394Y-22065864D01*
X21554675Y-21991884D01*
X21460516Y-21897725D01*
X21386536Y-21787006D01*
X21335578Y-21663982D01*
X21309600Y-21533380D01*
X21309600Y-21400220D01*
X21335578Y-21269618D01*
X21386536Y-21146594D01*
X21460516Y-21035875D01*
X21554675Y-20941716D01*
X21665394Y-20867736D01*
X21788418Y-20816778D01*
X21831952Y-20808119D01*
X21919018Y-20790800D01*
X22052182Y-20790800D01*
X22139248Y-20808119D01*
G37*
G36*
X30536600Y-22117800D02*
G01*
X28434600Y-22117800D01*
X28434600Y-20815800D01*
X30536600Y-20815800D01*
X30536600Y-22117800D01*
G37*
M02*
