G04 #@! TF.GenerationSoftware,KiCad,Pcbnew,(5.1.5-0-10_14)*
G04 #@! TF.CreationDate,2021-02-26T10:59:33+01:00*
G04 #@! TF.ProjectId,L_tfix,4cf67466-6978-42e6-9b69-6361645f7063,rev?*
G04 #@! TF.SameCoordinates,Original*
G04 #@! TF.FileFunction,Legend,Bot*
G04 #@! TF.FilePolarity,Positive*
%FSLAX46Y46*%
G04 Gerber Fmt 4.6, Leading zero omitted, Abs format (unit mm)*
G04 Created by KiCad (PCBNEW (5.1.5-0-10_14)) date 2021-02-26 10:59:33*
%MOMM*%
%LPD*%
G04 APERTURE LIST*
%ADD10C,0.100000*%
%ADD11C,0.120000*%
%ADD12C,0.050000*%
%ADD13C,0.150000*%
G04 APERTURE END LIST*
D10*
X100080952Y-21150000D02*
X100128571Y-21126190D01*
X100200000Y-21126190D01*
X100271428Y-21150000D01*
X100319047Y-21197619D01*
X100342857Y-21245238D01*
X100366666Y-21340476D01*
X100366666Y-21411904D01*
X100342857Y-21507142D01*
X100319047Y-21554761D01*
X100271428Y-21602380D01*
X100200000Y-21626190D01*
X100152380Y-21626190D01*
X100080952Y-21602380D01*
X100057142Y-21578571D01*
X100057142Y-21411904D01*
X100152380Y-21411904D01*
X99842857Y-21626190D02*
X99842857Y-21126190D01*
X99557142Y-21626190D01*
X99557142Y-21126190D01*
X99319047Y-21626190D02*
X99319047Y-21126190D01*
X99200000Y-21126190D01*
X99128571Y-21150000D01*
X99080952Y-21197619D01*
X99057142Y-21245238D01*
X99033333Y-21340476D01*
X99033333Y-21411904D01*
X99057142Y-21507142D01*
X99080952Y-21554761D01*
X99128571Y-21602380D01*
X99200000Y-21626190D01*
X99319047Y-21626190D01*
X100695238Y-31926190D02*
X100980952Y-31926190D01*
X100838095Y-31926190D02*
X100838095Y-31426190D01*
X100885714Y-31497619D01*
X100933333Y-31545238D01*
X100980952Y-31569047D01*
X100385714Y-31426190D02*
X100338095Y-31426190D01*
X100290476Y-31450000D01*
X100266666Y-31473809D01*
X100242857Y-31521428D01*
X100219047Y-31616666D01*
X100219047Y-31735714D01*
X100242857Y-31830952D01*
X100266666Y-31878571D01*
X100290476Y-31902380D01*
X100338095Y-31926190D01*
X100385714Y-31926190D01*
X100433333Y-31902380D01*
X100457142Y-31878571D01*
X100480952Y-31830952D01*
X100504761Y-31735714D01*
X100504761Y-31616666D01*
X100480952Y-31521428D01*
X100457142Y-31473809D01*
X100433333Y-31450000D01*
X100385714Y-31426190D01*
X100004761Y-31735714D02*
X99623809Y-31735714D01*
X99409523Y-31473809D02*
X99385714Y-31450000D01*
X99338095Y-31426190D01*
X99219047Y-31426190D01*
X99171428Y-31450000D01*
X99147619Y-31473809D01*
X99123809Y-31521428D01*
X99123809Y-31569047D01*
X99147619Y-31640476D01*
X99433333Y-31926190D01*
X99123809Y-31926190D01*
X98838095Y-31640476D02*
X98885714Y-31616666D01*
X98909523Y-31592857D01*
X98933333Y-31545238D01*
X98933333Y-31521428D01*
X98909523Y-31473809D01*
X98885714Y-31450000D01*
X98838095Y-31426190D01*
X98742857Y-31426190D01*
X98695238Y-31450000D01*
X98671428Y-31473809D01*
X98647619Y-31521428D01*
X98647619Y-31545238D01*
X98671428Y-31592857D01*
X98695238Y-31616666D01*
X98742857Y-31640476D01*
X98838095Y-31640476D01*
X98885714Y-31664285D01*
X98909523Y-31688095D01*
X98933333Y-31735714D01*
X98933333Y-31830952D01*
X98909523Y-31878571D01*
X98885714Y-31902380D01*
X98838095Y-31926190D01*
X98742857Y-31926190D01*
X98695238Y-31902380D01*
X98671428Y-31878571D01*
X98647619Y-31830952D01*
X98647619Y-31735714D01*
X98671428Y-31688095D01*
X98695238Y-31664285D01*
X98742857Y-31640476D01*
X98504761Y-31426190D02*
X98338095Y-31926190D01*
X98171428Y-31426190D01*
X106246190Y-28285714D02*
X106246190Y-28571428D01*
X106246190Y-28428571D02*
X105746190Y-28428571D01*
X105817619Y-28476190D01*
X105865238Y-28523809D01*
X105889047Y-28571428D01*
X105746190Y-28119047D02*
X105746190Y-27809523D01*
X105936666Y-27976190D01*
X105936666Y-27904761D01*
X105960476Y-27857142D01*
X105984285Y-27833333D01*
X106031904Y-27809523D01*
X106150952Y-27809523D01*
X106198571Y-27833333D01*
X106222380Y-27857142D01*
X106246190Y-27904761D01*
X106246190Y-28047619D01*
X106222380Y-28095238D01*
X106198571Y-28119047D01*
X106222380Y-27571428D02*
X106246190Y-27571428D01*
X106293809Y-27595238D01*
X106317619Y-27619047D01*
X105746190Y-27261904D02*
X105746190Y-27214285D01*
X105770000Y-27166666D01*
X105793809Y-27142857D01*
X105841428Y-27119047D01*
X105936666Y-27095238D01*
X106055714Y-27095238D01*
X106150952Y-27119047D01*
X106198571Y-27142857D01*
X106222380Y-27166666D01*
X106246190Y-27214285D01*
X106246190Y-27261904D01*
X106222380Y-27309523D01*
X106198571Y-27333333D01*
X106150952Y-27357142D01*
X106055714Y-27380952D01*
X105936666Y-27380952D01*
X105841428Y-27357142D01*
X105793809Y-27333333D01*
X105770000Y-27309523D01*
X105746190Y-27261904D01*
X105746190Y-26785714D02*
X105746190Y-26738095D01*
X105770000Y-26690476D01*
X105793809Y-26666666D01*
X105841428Y-26642857D01*
X105936666Y-26619047D01*
X106055714Y-26619047D01*
X106150952Y-26642857D01*
X106198571Y-26666666D01*
X106222380Y-26690476D01*
X106246190Y-26738095D01*
X106246190Y-26785714D01*
X106222380Y-26833333D01*
X106198571Y-26857142D01*
X106150952Y-26880952D01*
X106055714Y-26904761D01*
X105936666Y-26904761D01*
X105841428Y-26880952D01*
X105793809Y-26857142D01*
X105770000Y-26833333D01*
X105746190Y-26785714D01*
X105746190Y-26309523D02*
X105746190Y-26261904D01*
X105770000Y-26214285D01*
X105793809Y-26190476D01*
X105841428Y-26166666D01*
X105936666Y-26142857D01*
X106055714Y-26142857D01*
X106150952Y-26166666D01*
X106198571Y-26190476D01*
X106222380Y-26214285D01*
X106246190Y-26261904D01*
X106246190Y-26309523D01*
X106222380Y-26357142D01*
X106198571Y-26380952D01*
X106150952Y-26404761D01*
X106055714Y-26428571D01*
X105936666Y-26428571D01*
X105841428Y-26404761D01*
X105793809Y-26380952D01*
X105770000Y-26357142D01*
X105746190Y-26309523D01*
X106246190Y-25547619D02*
X105912857Y-25547619D01*
X105960476Y-25547619D02*
X105936666Y-25523809D01*
X105912857Y-25476190D01*
X105912857Y-25404761D01*
X105936666Y-25357142D01*
X105984285Y-25333333D01*
X106246190Y-25333333D01*
X105984285Y-25333333D02*
X105936666Y-25309523D01*
X105912857Y-25261904D01*
X105912857Y-25190476D01*
X105936666Y-25142857D01*
X105984285Y-25119047D01*
X106246190Y-25119047D01*
X106246190Y-24880952D02*
X105912857Y-24880952D01*
X105960476Y-24880952D02*
X105936666Y-24857142D01*
X105912857Y-24809523D01*
X105912857Y-24738095D01*
X105936666Y-24690476D01*
X105984285Y-24666666D01*
X106246190Y-24666666D01*
X105984285Y-24666666D02*
X105936666Y-24642857D01*
X105912857Y-24595238D01*
X105912857Y-24523809D01*
X105936666Y-24476190D01*
X105984285Y-24452380D01*
X106246190Y-24452380D01*
D11*
X105300000Y-33000000D02*
X105300000Y-20000000D01*
X102000000Y-33000000D02*
X105886421Y-33000000D01*
X102000000Y-20000000D02*
X105886421Y-20000000D01*
X105300000Y-20000000D02*
X105886421Y-21126504D01*
X105300000Y-20000000D02*
X104713579Y-21126504D01*
X105300000Y-33000000D02*
X105886421Y-31873496D01*
X105300000Y-33000000D02*
X104713579Y-31873496D01*
D10*
X59532073Y-37462992D02*
X59484453Y-37439185D01*
X59460642Y-37415377D01*
X59436830Y-37367759D01*
X59436828Y-37343950D01*
X59460635Y-37296329D01*
X59484443Y-37272518D01*
X59532061Y-37248706D01*
X59627299Y-37248700D01*
X59674919Y-37272507D01*
X59698730Y-37296315D01*
X59722543Y-37343933D01*
X59722544Y-37367742D01*
X59698737Y-37415363D01*
X59674929Y-37439174D01*
X59627312Y-37462986D01*
X59532073Y-37462992D01*
X59484456Y-37486804D01*
X59460648Y-37510615D01*
X59436841Y-37558236D01*
X59436847Y-37653474D01*
X59460659Y-37701091D01*
X59484470Y-37724899D01*
X59532090Y-37748706D01*
X59627329Y-37748700D01*
X59674946Y-37724888D01*
X59698754Y-37701077D01*
X59722561Y-37653457D01*
X59722555Y-37558219D01*
X59698743Y-37510601D01*
X59674932Y-37486793D01*
X59627312Y-37462986D01*
X60032061Y-37248676D02*
X60079680Y-37248674D01*
X60127300Y-37272480D01*
X60151111Y-37296288D01*
X60174924Y-37343906D01*
X60198739Y-37439143D01*
X60198746Y-37558190D01*
X60174942Y-37653430D01*
X60151135Y-37701050D01*
X60127327Y-37724861D01*
X60079709Y-37748674D01*
X60032090Y-37748676D01*
X59984470Y-37724870D01*
X59960659Y-37701062D01*
X59936847Y-37653444D01*
X59913032Y-37558207D01*
X59913024Y-37439160D01*
X59936828Y-37343920D01*
X59960635Y-37296300D01*
X59984443Y-37272489D01*
X60032061Y-37248676D01*
X60436851Y-37724843D02*
X60436852Y-37748652D01*
X60413046Y-37796273D01*
X60389238Y-37820084D01*
X60674948Y-37748638D02*
X60770186Y-37748633D01*
X60817803Y-37724820D01*
X60841611Y-37701009D01*
X60889226Y-37629578D01*
X60913030Y-37534339D01*
X60913019Y-37343862D01*
X60889206Y-37296245D01*
X60865396Y-37272437D01*
X60817775Y-37248630D01*
X60722537Y-37248636D01*
X60674919Y-37272448D01*
X60651111Y-37296259D01*
X60627305Y-37343879D01*
X60627312Y-37462927D01*
X60651124Y-37510545D01*
X60674935Y-37534353D01*
X60722555Y-37558159D01*
X60817793Y-37558154D01*
X60865411Y-37534341D01*
X60889219Y-37510530D01*
X60913026Y-37462910D01*
X61198740Y-37462893D02*
X61151120Y-37439086D01*
X61127309Y-37415278D01*
X61103496Y-37367661D01*
X61103495Y-37343851D01*
X61127302Y-37296231D01*
X61151110Y-37272420D01*
X61198727Y-37248607D01*
X61293966Y-37248602D01*
X61341586Y-37272408D01*
X61365397Y-37296216D01*
X61389209Y-37343834D01*
X61389211Y-37367644D01*
X61365404Y-37415264D01*
X61341596Y-37439075D01*
X61293978Y-37462887D01*
X61198740Y-37462893D01*
X61151123Y-37486705D01*
X61127314Y-37510516D01*
X61103508Y-37558137D01*
X61103513Y-37653375D01*
X61127326Y-37700993D01*
X61151137Y-37724801D01*
X61198757Y-37748607D01*
X61293995Y-37748602D01*
X61341613Y-37724789D01*
X61365421Y-37700978D01*
X61389228Y-37653358D01*
X61389222Y-37558120D01*
X61365410Y-37510502D01*
X61341599Y-37486694D01*
X61293978Y-37462887D01*
X61817785Y-37415237D02*
X61817805Y-37748571D01*
X61698726Y-37224768D02*
X61579700Y-37581918D01*
X61889223Y-37581900D01*
X62460662Y-37748533D02*
X62460642Y-37415199D01*
X62460645Y-37462818D02*
X62484453Y-37439007D01*
X62532071Y-37415195D01*
X62603499Y-37415191D01*
X62651120Y-37438997D01*
X62674932Y-37486615D01*
X62674948Y-37748520D01*
X62674932Y-37486615D02*
X62698739Y-37438995D01*
X62746356Y-37415182D01*
X62817785Y-37415178D01*
X62865405Y-37438985D01*
X62889218Y-37486602D01*
X62889233Y-37748507D01*
X63127329Y-37748493D02*
X63127309Y-37415160D01*
X63127312Y-37462779D02*
X63151120Y-37438968D01*
X63198737Y-37415155D01*
X63270166Y-37415151D01*
X63317786Y-37438958D01*
X63341599Y-37486576D01*
X63341614Y-37748480D01*
X63341599Y-37486576D02*
X63365405Y-37438955D01*
X63413023Y-37415143D01*
X63484452Y-37415139D01*
X63532072Y-37438945D01*
X63555884Y-37486563D01*
X63555900Y-37748468D01*
D11*
X21016225Y-36804799D02*
X102000225Y-36799999D01*
X21016000Y-33004800D02*
X21016260Y-37391220D01*
X102000000Y-33000000D02*
X102000260Y-37386420D01*
X102000225Y-36799999D02*
X100873756Y-37386487D01*
X102000225Y-36799999D02*
X100873686Y-36213645D01*
X21016225Y-36804799D02*
X22142764Y-37391153D01*
X21016225Y-36804799D02*
X22142694Y-36218311D01*
X80477400Y-29804400D02*
X81341000Y-30668000D01*
X80477400Y-30693400D02*
X80477400Y-26324600D01*
X86878200Y-30693400D02*
X80477400Y-30693400D01*
X86878200Y-26324600D02*
X86878200Y-30693400D01*
X80502800Y-26324600D02*
X86878200Y-26324600D01*
D12*
X21000000Y-30000000D02*
X21000000Y-33000000D01*
X21000000Y-23000000D02*
X21000000Y-30000000D01*
X21000000Y-20000000D02*
X21000000Y-23000000D01*
X102000000Y-20000000D02*
X21000000Y-20000000D01*
X102000000Y-20000000D02*
X102000000Y-33000000D01*
X21000000Y-33000000D02*
X102000000Y-33000000D01*
D11*
X34500320Y-23652301D02*
X34500320Y-23977859D01*
X33480320Y-23652301D02*
X33480320Y-23977859D01*
X55063600Y-31196864D02*
X55063600Y-29992736D01*
X57783600Y-31196864D02*
X57783600Y-29992736D01*
X63044840Y-29240301D02*
X63044840Y-29565859D01*
X62024840Y-29240301D02*
X62024840Y-29565859D01*
X72590360Y-27636280D02*
X71840360Y-27636280D01*
X78060360Y-21416280D02*
X78060360Y-22166280D01*
X77310360Y-21416280D02*
X78060360Y-21416280D01*
X71840360Y-21416280D02*
X71840360Y-22166280D01*
X72590360Y-21416280D02*
X71840360Y-21416280D01*
X78060360Y-27636280D02*
X78060360Y-26886280D01*
X77310360Y-27636280D02*
X78060360Y-27636280D01*
X65950360Y-26798080D02*
X65950360Y-28198080D01*
X63630360Y-28198080D02*
X63630360Y-26298080D01*
X42863080Y-26588979D02*
X42863080Y-26263421D01*
X43883080Y-26588979D02*
X43883080Y-26263421D01*
X93275000Y-29195000D02*
X93275000Y-29565000D01*
X96815000Y-29195000D02*
X96815000Y-29565000D01*
X96815000Y-32735000D02*
X96815000Y-32365000D01*
X93275000Y-29195000D02*
X96815000Y-29195000D01*
X96815000Y-32735000D02*
X93045000Y-32735000D01*
X96090000Y-27662779D02*
X96090000Y-27337221D01*
X97110000Y-27662779D02*
X97110000Y-27337221D01*
X95610000Y-27337221D02*
X95610000Y-27662779D01*
X94590000Y-27337221D02*
X94590000Y-27662779D01*
X29963400Y-22456000D02*
X25713400Y-22456000D01*
X29963400Y-22456000D02*
X29963400Y-27266000D01*
X25713400Y-27266000D02*
X25713400Y-22456000D01*
X85843880Y-22809021D02*
X85843880Y-23134579D01*
X84823880Y-22809021D02*
X84823880Y-23134579D01*
X54510440Y-29428261D02*
X54510440Y-29753819D01*
X53490440Y-29428261D02*
X53490440Y-29753819D01*
X94110000Y-28650000D02*
X94110000Y-22640000D01*
X87290000Y-26400000D02*
X87290000Y-22640000D01*
X94110000Y-22640000D02*
X92850000Y-22640000D01*
X87290000Y-22640000D02*
X88550000Y-22640000D01*
D13*
X40835400Y-21249400D02*
X42235400Y-21249400D01*
X40835400Y-26349400D02*
X36685400Y-26349400D01*
X40835400Y-21199400D02*
X36685400Y-21199400D01*
X40835400Y-26349400D02*
X40835400Y-26204400D01*
X36685400Y-26349400D02*
X36685400Y-26204400D01*
X36685400Y-21199400D02*
X36685400Y-21344400D01*
X40835400Y-21199400D02*
X40835400Y-21249400D01*
D11*
X63639200Y-22504321D02*
X63639200Y-22829879D01*
X62619200Y-22504321D02*
X62619200Y-22829879D01*
X62064400Y-22504321D02*
X62064400Y-22829879D01*
X61044400Y-22504321D02*
X61044400Y-22829879D01*
X43315200Y-31313279D02*
X43315200Y-30987721D01*
X44335200Y-31313279D02*
X44335200Y-30987721D01*
X31580400Y-24836379D02*
X31580400Y-24510821D01*
X32600400Y-24836379D02*
X32600400Y-24510821D01*
X45437560Y-26273581D02*
X45437560Y-26599139D01*
X44417560Y-26273581D02*
X44417560Y-26599139D01*
X45956800Y-26588979D02*
X45956800Y-26263421D01*
X46976800Y-26588979D02*
X46976800Y-26263421D01*
X81593900Y-23005364D02*
X81593900Y-21801236D01*
X84313900Y-23005364D02*
X84313900Y-21801236D01*
X44409579Y-22338800D02*
X44084021Y-22338800D01*
X44409579Y-21318800D02*
X44084021Y-21318800D01*
X68420560Y-27518719D02*
X68420560Y-27193161D01*
X69440560Y-27518719D02*
X69440560Y-27193161D01*
X67505080Y-27213381D02*
X67505080Y-27538939D01*
X66485080Y-27213381D02*
X66485080Y-27538939D01*
X66474920Y-24424899D02*
X66474920Y-24099341D01*
X67494920Y-24424899D02*
X67494920Y-24099341D01*
X58914800Y-22504121D02*
X58914800Y-22829679D01*
X57894800Y-22504121D02*
X57894800Y-22829679D01*
X60489600Y-22504321D02*
X60489600Y-22829879D01*
X59469600Y-22504321D02*
X59469600Y-22829879D01*
X56320000Y-22829879D02*
X56320000Y-22504321D01*
X57340000Y-22829879D02*
X57340000Y-22504321D01*
X68415480Y-24414739D02*
X68415480Y-24089181D01*
X69435480Y-24414739D02*
X69435480Y-24089181D01*
X67490920Y-31323539D02*
X67490920Y-30997981D01*
X68510920Y-31323539D02*
X68510920Y-30997981D01*
X70979800Y-27193161D02*
X70979800Y-27518719D01*
X69959800Y-27193161D02*
X69959800Y-27518719D01*
X64940760Y-24424899D02*
X64940760Y-24099341D01*
X65960760Y-24424899D02*
X65960760Y-24099341D01*
X69944560Y-24404579D02*
X69944560Y-24079021D01*
X70964560Y-24404579D02*
X70964560Y-24079021D01*
X58314800Y-31196864D02*
X58314800Y-29992736D01*
X61034800Y-31196864D02*
X61034800Y-29992736D01*
X40026800Y-30965264D02*
X40026800Y-29761136D01*
X42746800Y-30965264D02*
X42746800Y-29761136D01*
X36674000Y-30965264D02*
X36674000Y-29761136D01*
X39394000Y-30965264D02*
X39394000Y-29761136D01*
X33321200Y-30993664D02*
X33321200Y-29789536D01*
X36041200Y-30993664D02*
X36041200Y-29789536D01*
D10*
X34022853Y-22134371D02*
X34046662Y-22158180D01*
X34118091Y-22181990D01*
X34165710Y-22181990D01*
X34237139Y-22158180D01*
X34284758Y-22110561D01*
X34308567Y-22062942D01*
X34332377Y-21967704D01*
X34332377Y-21896276D01*
X34308567Y-21801038D01*
X34284758Y-21753419D01*
X34237139Y-21705800D01*
X34165710Y-21681990D01*
X34118091Y-21681990D01*
X34046662Y-21705800D01*
X34022853Y-21729609D01*
X33784758Y-22181990D02*
X33689520Y-22181990D01*
X33641900Y-22158180D01*
X33618091Y-22134371D01*
X33570472Y-22062942D01*
X33546662Y-21967704D01*
X33546662Y-21777228D01*
X33570472Y-21729609D01*
X33594281Y-21705800D01*
X33641900Y-21681990D01*
X33737139Y-21681990D01*
X33784758Y-21705800D01*
X33808567Y-21729609D01*
X33832377Y-21777228D01*
X33832377Y-21896276D01*
X33808567Y-21943895D01*
X33784758Y-21967704D01*
X33737139Y-21991514D01*
X33641900Y-21991514D01*
X33594281Y-21967704D01*
X33570472Y-21943895D01*
X33546662Y-21896276D01*
D13*
X59060742Y-30428133D02*
X59108361Y-30380514D01*
X59155980Y-30237657D01*
X59155980Y-30142419D01*
X59108361Y-29999561D01*
X59013123Y-29904323D01*
X58917885Y-29856704D01*
X58727409Y-29809085D01*
X58584552Y-29809085D01*
X58394076Y-29856704D01*
X58298838Y-29904323D01*
X58203600Y-29999561D01*
X58155980Y-30142419D01*
X58155980Y-30237657D01*
X58203600Y-30380514D01*
X58251219Y-30428133D01*
X58155980Y-30761466D02*
X58155980Y-31428133D01*
X59155980Y-30999561D01*
X61461982Y-29236413D02*
X61509601Y-29188794D01*
X61557220Y-29045937D01*
X61557220Y-28950699D01*
X61509601Y-28807841D01*
X61414363Y-28712603D01*
X61319125Y-28664984D01*
X61128649Y-28617365D01*
X60985792Y-28617365D01*
X60795316Y-28664984D01*
X60700078Y-28712603D01*
X60604840Y-28807841D01*
X60557220Y-28950699D01*
X60557220Y-29045937D01*
X60604840Y-29188794D01*
X60652459Y-29236413D01*
X60557220Y-30141175D02*
X60557220Y-29664984D01*
X61033411Y-29617365D01*
X60985792Y-29664984D01*
X60938173Y-29760222D01*
X60938173Y-29998318D01*
X60985792Y-30093556D01*
X61033411Y-30141175D01*
X61128649Y-30188794D01*
X61366744Y-30188794D01*
X61461982Y-30141175D01*
X61509601Y-30093556D01*
X61557220Y-29998318D01*
X61557220Y-29760222D01*
X61509601Y-29664984D01*
X61461982Y-29617365D01*
X80208064Y-25121660D02*
X80208064Y-25931184D01*
X80160445Y-26026422D01*
X80112826Y-26074041D01*
X80017588Y-26121660D01*
X79827112Y-26121660D01*
X79731874Y-26074041D01*
X79684255Y-26026422D01*
X79636636Y-25931184D01*
X79636636Y-25121660D01*
X79255683Y-25121660D02*
X78636636Y-25121660D01*
X78969969Y-25502613D01*
X78827112Y-25502613D01*
X78731874Y-25550232D01*
X78684255Y-25597851D01*
X78636636Y-25693089D01*
X78636636Y-25931184D01*
X78684255Y-26026422D01*
X78731874Y-26074041D01*
X78827112Y-26121660D01*
X79112826Y-26121660D01*
X79208064Y-26074041D01*
X79255683Y-26026422D01*
D10*
X65191632Y-29286750D02*
X65191632Y-29691512D01*
X65167822Y-29739131D01*
X65144013Y-29762940D01*
X65096394Y-29786750D01*
X65001156Y-29786750D01*
X64953537Y-29762940D01*
X64929727Y-29739131D01*
X64905918Y-29691512D01*
X64905918Y-29286750D01*
X64429727Y-29286750D02*
X64667822Y-29286750D01*
X64691632Y-29524845D01*
X64667822Y-29501036D01*
X64620203Y-29477226D01*
X64501156Y-29477226D01*
X64453537Y-29501036D01*
X64429727Y-29524845D01*
X64405918Y-29572464D01*
X64405918Y-29691512D01*
X64429727Y-29739131D01*
X64453537Y-29762940D01*
X64501156Y-29786750D01*
X64620203Y-29786750D01*
X64667822Y-29762940D01*
X64691632Y-29739131D01*
X43609430Y-24011811D02*
X43371335Y-23845144D01*
X43609430Y-23726097D02*
X43109430Y-23726097D01*
X43109430Y-23916573D01*
X43133240Y-23964192D01*
X43157049Y-23988001D01*
X43204668Y-24011811D01*
X43276097Y-24011811D01*
X43323716Y-23988001D01*
X43347525Y-23964192D01*
X43371335Y-23916573D01*
X43371335Y-23726097D01*
X43157049Y-24202287D02*
X43133240Y-24226097D01*
X43109430Y-24273716D01*
X43109430Y-24392763D01*
X43133240Y-24440382D01*
X43157049Y-24464192D01*
X43204668Y-24488001D01*
X43252287Y-24488001D01*
X43323716Y-24464192D01*
X43609430Y-24178478D01*
X43609430Y-24488001D01*
X43109430Y-24797525D02*
X43109430Y-24845144D01*
X43133240Y-24892763D01*
X43157049Y-24916573D01*
X43204668Y-24940382D01*
X43299906Y-24964192D01*
X43418954Y-24964192D01*
X43514192Y-24940382D01*
X43561811Y-24916573D01*
X43585620Y-24892763D01*
X43609430Y-24845144D01*
X43609430Y-24797525D01*
X43585620Y-24749906D01*
X43561811Y-24726097D01*
X43514192Y-24702287D01*
X43418954Y-24678478D01*
X43299906Y-24678478D01*
X43204668Y-24702287D01*
X43157049Y-24726097D01*
X43133240Y-24749906D01*
X43109430Y-24797525D01*
X97670019Y-32592809D02*
X97717638Y-32569000D01*
X97765257Y-32521380D01*
X97836685Y-32449952D01*
X97884304Y-32426142D01*
X97931923Y-32426142D01*
X97908114Y-32545190D02*
X97955733Y-32521380D01*
X98003352Y-32473761D01*
X98027161Y-32378523D01*
X98027161Y-32211857D01*
X98003352Y-32116619D01*
X97955733Y-32069000D01*
X97908114Y-32045190D01*
X97812876Y-32045190D01*
X97765257Y-32069000D01*
X97717638Y-32116619D01*
X97693828Y-32211857D01*
X97693828Y-32378523D01*
X97717638Y-32473761D01*
X97765257Y-32521380D01*
X97812876Y-32545190D01*
X97908114Y-32545190D01*
X97217638Y-32545190D02*
X97503352Y-32545190D01*
X97360495Y-32545190D02*
X97360495Y-32045190D01*
X97408114Y-32116619D01*
X97455733Y-32164238D01*
X97503352Y-32188047D01*
X96730990Y-24961771D02*
X96492895Y-24795104D01*
X96730990Y-24676057D02*
X96230990Y-24676057D01*
X96230990Y-24866533D01*
X96254800Y-24914152D01*
X96278609Y-24937961D01*
X96326228Y-24961771D01*
X96397657Y-24961771D01*
X96445276Y-24937961D01*
X96469085Y-24914152D01*
X96492895Y-24866533D01*
X96492895Y-24676057D01*
X96730990Y-25437961D02*
X96730990Y-25152247D01*
X96730990Y-25295104D02*
X96230990Y-25295104D01*
X96302419Y-25247485D01*
X96350038Y-25199866D01*
X96373847Y-25152247D01*
X96278609Y-25628438D02*
X96254800Y-25652247D01*
X96230990Y-25699866D01*
X96230990Y-25818914D01*
X96254800Y-25866533D01*
X96278609Y-25890342D01*
X96326228Y-25914152D01*
X96373847Y-25914152D01*
X96445276Y-25890342D01*
X96730990Y-25604628D01*
X96730990Y-25914152D01*
X95333990Y-25199866D02*
X95095895Y-25033200D01*
X95333990Y-24914152D02*
X94833990Y-24914152D01*
X94833990Y-25104628D01*
X94857800Y-25152247D01*
X94881609Y-25176057D01*
X94929228Y-25199866D01*
X95000657Y-25199866D01*
X95048276Y-25176057D01*
X95072085Y-25152247D01*
X95095895Y-25104628D01*
X95095895Y-24914152D01*
X95048276Y-25485580D02*
X95024466Y-25437961D01*
X95000657Y-25414152D01*
X94953038Y-25390342D01*
X94929228Y-25390342D01*
X94881609Y-25414152D01*
X94857800Y-25437961D01*
X94833990Y-25485580D01*
X94833990Y-25580819D01*
X94857800Y-25628438D01*
X94881609Y-25652247D01*
X94929228Y-25676057D01*
X94953038Y-25676057D01*
X95000657Y-25652247D01*
X95024466Y-25628438D01*
X95048276Y-25580819D01*
X95048276Y-25485580D01*
X95072085Y-25437961D01*
X95095895Y-25414152D01*
X95143514Y-25390342D01*
X95238752Y-25390342D01*
X95286371Y-25414152D01*
X95310180Y-25437961D01*
X95333990Y-25485580D01*
X95333990Y-25580819D01*
X95310180Y-25628438D01*
X95286371Y-25652247D01*
X95238752Y-25676057D01*
X95143514Y-25676057D01*
X95095895Y-25652247D01*
X95072085Y-25628438D01*
X95048276Y-25580819D01*
D13*
X85060580Y-27210466D02*
X85774866Y-27210466D01*
X85917723Y-27162847D01*
X86012961Y-27067609D01*
X86060580Y-26924752D01*
X86060580Y-26829514D01*
X85155819Y-27639038D02*
X85108200Y-27686657D01*
X85060580Y-27781895D01*
X85060580Y-28019990D01*
X85108200Y-28115228D01*
X85155819Y-28162847D01*
X85251057Y-28210466D01*
X85346295Y-28210466D01*
X85489152Y-28162847D01*
X86060580Y-27591419D01*
X86060580Y-28210466D01*
D10*
X30986247Y-28785990D02*
X30986247Y-28285990D01*
X30867200Y-28285990D01*
X30795771Y-28309800D01*
X30748152Y-28357419D01*
X30724342Y-28405038D01*
X30700533Y-28500276D01*
X30700533Y-28571704D01*
X30724342Y-28666942D01*
X30748152Y-28714561D01*
X30795771Y-28762180D01*
X30867200Y-28785990D01*
X30986247Y-28785990D01*
X30224342Y-28785990D02*
X30510057Y-28785990D01*
X30367200Y-28785990D02*
X30367200Y-28285990D01*
X30414819Y-28357419D01*
X30462438Y-28405038D01*
X30510057Y-28428847D01*
X85726428Y-25029971D02*
X85750238Y-25053780D01*
X85821666Y-25077590D01*
X85869285Y-25077590D01*
X85940714Y-25053780D01*
X85988333Y-25006161D01*
X86012142Y-24958542D01*
X86035952Y-24863304D01*
X86035952Y-24791876D01*
X86012142Y-24696638D01*
X85988333Y-24649019D01*
X85940714Y-24601400D01*
X85869285Y-24577590D01*
X85821666Y-24577590D01*
X85750238Y-24601400D01*
X85726428Y-24625209D01*
X85250238Y-25077590D02*
X85535952Y-25077590D01*
X85393095Y-25077590D02*
X85393095Y-24577590D01*
X85440714Y-24649019D01*
X85488333Y-24696638D01*
X85535952Y-24720447D01*
X85083571Y-24577590D02*
X84774047Y-24577590D01*
X84940714Y-24768066D01*
X84869285Y-24768066D01*
X84821666Y-24791876D01*
X84797857Y-24815685D01*
X84774047Y-24863304D01*
X84774047Y-24982352D01*
X84797857Y-25029971D01*
X84821666Y-25053780D01*
X84869285Y-25077590D01*
X85012142Y-25077590D01*
X85059761Y-25053780D01*
X85083571Y-25029971D01*
X54138371Y-31565771D02*
X54162180Y-31541961D01*
X54185990Y-31470533D01*
X54185990Y-31422914D01*
X54162180Y-31351485D01*
X54114561Y-31303866D01*
X54066942Y-31280057D01*
X53971704Y-31256247D01*
X53900276Y-31256247D01*
X53805038Y-31280057D01*
X53757419Y-31303866D01*
X53709800Y-31351485D01*
X53685990Y-31422914D01*
X53685990Y-31470533D01*
X53709800Y-31541961D01*
X53733609Y-31565771D01*
X54185990Y-32041961D02*
X54185990Y-31756247D01*
X54185990Y-31899104D02*
X53685990Y-31899104D01*
X53757419Y-31851485D01*
X53805038Y-31803866D01*
X53828847Y-31756247D01*
X53685990Y-32351485D02*
X53685990Y-32399104D01*
X53709800Y-32446723D01*
X53733609Y-32470533D01*
X53781228Y-32494342D01*
X53876466Y-32518152D01*
X53995514Y-32518152D01*
X54090752Y-32494342D01*
X54138371Y-32470533D01*
X54162180Y-32446723D01*
X54185990Y-32399104D01*
X54185990Y-32351485D01*
X54162180Y-32303866D01*
X54138371Y-32280057D01*
X54090752Y-32256247D01*
X53995514Y-32232438D01*
X53876466Y-32232438D01*
X53781228Y-32256247D01*
X53733609Y-32280057D01*
X53709800Y-32303866D01*
X53685990Y-32351485D01*
X95209352Y-23332990D02*
X95209352Y-23737752D01*
X95185542Y-23785371D01*
X95161733Y-23809180D01*
X95114114Y-23832990D01*
X95018876Y-23832990D01*
X94971257Y-23809180D01*
X94947447Y-23785371D01*
X94923638Y-23737752D01*
X94923638Y-23332990D01*
X94709352Y-23380609D02*
X94685542Y-23356800D01*
X94637923Y-23332990D01*
X94518876Y-23332990D01*
X94471257Y-23356800D01*
X94447447Y-23380609D01*
X94423638Y-23428228D01*
X94423638Y-23475847D01*
X94447447Y-23547276D01*
X94733161Y-23832990D01*
X94423638Y-23832990D01*
X39126152Y-20462790D02*
X39126152Y-20867552D01*
X39102342Y-20915171D01*
X39078533Y-20938980D01*
X39030914Y-20962790D01*
X38935676Y-20962790D01*
X38888057Y-20938980D01*
X38864247Y-20915171D01*
X38840438Y-20867552D01*
X38840438Y-20462790D01*
X38340438Y-20962790D02*
X38626152Y-20962790D01*
X38483295Y-20962790D02*
X38483295Y-20462790D01*
X38530914Y-20534219D01*
X38578533Y-20581838D01*
X38626152Y-20605647D01*
X63263333Y-20962790D02*
X63430000Y-20724695D01*
X63549047Y-20962790D02*
X63549047Y-20462790D01*
X63358571Y-20462790D01*
X63310952Y-20486600D01*
X63287142Y-20510409D01*
X63263333Y-20558028D01*
X63263333Y-20629457D01*
X63287142Y-20677076D01*
X63310952Y-20700885D01*
X63358571Y-20724695D01*
X63549047Y-20724695D01*
X62834761Y-20462790D02*
X62930000Y-20462790D01*
X62977619Y-20486600D01*
X63001428Y-20510409D01*
X63049047Y-20581838D01*
X63072857Y-20677076D01*
X63072857Y-20867552D01*
X63049047Y-20915171D01*
X63025238Y-20938980D01*
X62977619Y-20962790D01*
X62882380Y-20962790D01*
X62834761Y-20938980D01*
X62810952Y-20915171D01*
X62787142Y-20867552D01*
X62787142Y-20748504D01*
X62810952Y-20700885D01*
X62834761Y-20677076D01*
X62882380Y-20653266D01*
X62977619Y-20653266D01*
X63025238Y-20677076D01*
X63049047Y-20700885D01*
X63072857Y-20748504D01*
X61586933Y-20937390D02*
X61753600Y-20699295D01*
X61872647Y-20937390D02*
X61872647Y-20437390D01*
X61682171Y-20437390D01*
X61634552Y-20461200D01*
X61610742Y-20485009D01*
X61586933Y-20532628D01*
X61586933Y-20604057D01*
X61610742Y-20651676D01*
X61634552Y-20675485D01*
X61682171Y-20699295D01*
X61872647Y-20699295D01*
X61420266Y-20437390D02*
X61110742Y-20437390D01*
X61277409Y-20627866D01*
X61205980Y-20627866D01*
X61158361Y-20651676D01*
X61134552Y-20675485D01*
X61110742Y-20723104D01*
X61110742Y-20842152D01*
X61134552Y-20889771D01*
X61158361Y-20913580D01*
X61205980Y-20937390D01*
X61348838Y-20937390D01*
X61396457Y-20913580D01*
X61420266Y-20889771D01*
X45270590Y-31372066D02*
X45032495Y-31205400D01*
X45270590Y-31086352D02*
X44770590Y-31086352D01*
X44770590Y-31276828D01*
X44794400Y-31324447D01*
X44818209Y-31348257D01*
X44865828Y-31372066D01*
X44937257Y-31372066D01*
X44984876Y-31348257D01*
X45008685Y-31324447D01*
X45032495Y-31276828D01*
X45032495Y-31086352D01*
X44818209Y-31562542D02*
X44794400Y-31586352D01*
X44770590Y-31633971D01*
X44770590Y-31753019D01*
X44794400Y-31800638D01*
X44818209Y-31824447D01*
X44865828Y-31848257D01*
X44913447Y-31848257D01*
X44984876Y-31824447D01*
X45270590Y-31538733D01*
X45270590Y-31848257D01*
X32183893Y-22298830D02*
X32350560Y-22060735D01*
X32469607Y-22298830D02*
X32469607Y-21798830D01*
X32279131Y-21798830D01*
X32231512Y-21822640D01*
X32207702Y-21846449D01*
X32183893Y-21894068D01*
X32183893Y-21965497D01*
X32207702Y-22013116D01*
X32231512Y-22036925D01*
X32279131Y-22060735D01*
X32469607Y-22060735D01*
X31731512Y-21798830D02*
X31969607Y-21798830D01*
X31993417Y-22036925D01*
X31969607Y-22013116D01*
X31921988Y-21989306D01*
X31802940Y-21989306D01*
X31755321Y-22013116D01*
X31731512Y-22036925D01*
X31707702Y-22084544D01*
X31707702Y-22203592D01*
X31731512Y-22251211D01*
X31755321Y-22275020D01*
X31802940Y-22298830D01*
X31921988Y-22298830D01*
X31969607Y-22275020D01*
X31993417Y-22251211D01*
X45219790Y-24031466D02*
X44981695Y-23864800D01*
X45219790Y-23745752D02*
X44719790Y-23745752D01*
X44719790Y-23936228D01*
X44743600Y-23983847D01*
X44767409Y-24007657D01*
X44815028Y-24031466D01*
X44886457Y-24031466D01*
X44934076Y-24007657D01*
X44957885Y-23983847D01*
X44981695Y-23936228D01*
X44981695Y-23745752D01*
X44886457Y-24460038D02*
X45219790Y-24460038D01*
X44695980Y-24340990D02*
X45053123Y-24221942D01*
X45053123Y-24531466D01*
X46703150Y-24011146D02*
X46465055Y-23844480D01*
X46703150Y-23725432D02*
X46203150Y-23725432D01*
X46203150Y-23915908D01*
X46226960Y-23963527D01*
X46250769Y-23987337D01*
X46298388Y-24011146D01*
X46369817Y-24011146D01*
X46417436Y-23987337D01*
X46441245Y-23963527D01*
X46465055Y-23915908D01*
X46465055Y-23725432D01*
X46703150Y-24487337D02*
X46703150Y-24201622D01*
X46703150Y-24344480D02*
X46203150Y-24344480D01*
X46274579Y-24296860D01*
X46322198Y-24249241D01*
X46346007Y-24201622D01*
X81265571Y-21939171D02*
X81289380Y-21915361D01*
X81313190Y-21843933D01*
X81313190Y-21796314D01*
X81289380Y-21724885D01*
X81241761Y-21677266D01*
X81194142Y-21653457D01*
X81098904Y-21629647D01*
X81027476Y-21629647D01*
X80932238Y-21653457D01*
X80884619Y-21677266D01*
X80837000Y-21724885D01*
X80813190Y-21796314D01*
X80813190Y-21843933D01*
X80837000Y-21915361D01*
X80860809Y-21939171D01*
X81313190Y-22415361D02*
X81313190Y-22129647D01*
X81313190Y-22272504D02*
X80813190Y-22272504D01*
X80884619Y-22224885D01*
X80932238Y-22177266D01*
X80956047Y-22129647D01*
X81313190Y-22891552D02*
X81313190Y-22605838D01*
X81313190Y-22748695D02*
X80813190Y-22748695D01*
X80884619Y-22701076D01*
X80932238Y-22653457D01*
X80956047Y-22605838D01*
X46575533Y-22007371D02*
X46599342Y-22031180D01*
X46670771Y-22054990D01*
X46718390Y-22054990D01*
X46789819Y-22031180D01*
X46837438Y-21983561D01*
X46861247Y-21935942D01*
X46885057Y-21840704D01*
X46885057Y-21769276D01*
X46861247Y-21674038D01*
X46837438Y-21626419D01*
X46789819Y-21578800D01*
X46718390Y-21554990D01*
X46670771Y-21554990D01*
X46599342Y-21578800D01*
X46575533Y-21602609D01*
X46099342Y-22054990D02*
X46385057Y-22054990D01*
X46242200Y-22054990D02*
X46242200Y-21554990D01*
X46289819Y-21626419D01*
X46337438Y-21674038D01*
X46385057Y-21697847D01*
X69171990Y-30026531D02*
X68933895Y-29859864D01*
X69171990Y-29740817D02*
X68671990Y-29740817D01*
X68671990Y-29931293D01*
X68695800Y-29978912D01*
X68719609Y-30002721D01*
X68767228Y-30026531D01*
X68838657Y-30026531D01*
X68886276Y-30002721D01*
X68910085Y-29978912D01*
X68933895Y-29931293D01*
X68933895Y-29740817D01*
X69171990Y-30502721D02*
X69171990Y-30217007D01*
X69171990Y-30359864D02*
X68671990Y-30359864D01*
X68743419Y-30312245D01*
X68791038Y-30264626D01*
X68814847Y-30217007D01*
X68671990Y-30669388D02*
X68671990Y-31002721D01*
X69171990Y-30788436D01*
X67277150Y-30128131D02*
X67039055Y-29961464D01*
X67277150Y-29842417D02*
X66777150Y-29842417D01*
X66777150Y-30032893D01*
X66800960Y-30080512D01*
X66824769Y-30104321D01*
X66872388Y-30128131D01*
X66943817Y-30128131D01*
X66991436Y-30104321D01*
X67015245Y-30080512D01*
X67039055Y-30032893D01*
X67039055Y-29842417D01*
X67277150Y-30604321D02*
X67277150Y-30318607D01*
X67277150Y-30461464D02*
X66777150Y-30461464D01*
X66848579Y-30413845D01*
X66896198Y-30366226D01*
X66920007Y-30318607D01*
X66777150Y-31056702D02*
X66777150Y-30818607D01*
X67015245Y-30794798D01*
X66991436Y-30818607D01*
X66967626Y-30866226D01*
X66967626Y-30985274D01*
X66991436Y-31032893D01*
X67015245Y-31056702D01*
X67062864Y-31080512D01*
X67181912Y-31080512D01*
X67229531Y-31056702D01*
X67253340Y-31032893D01*
X67277150Y-30985274D01*
X67277150Y-30866226D01*
X67253340Y-30818607D01*
X67229531Y-30794798D01*
X67211110Y-21730891D02*
X66973015Y-21564224D01*
X67211110Y-21445177D02*
X66711110Y-21445177D01*
X66711110Y-21635653D01*
X66734920Y-21683272D01*
X66758729Y-21707081D01*
X66806348Y-21730891D01*
X66877777Y-21730891D01*
X66925396Y-21707081D01*
X66949205Y-21683272D01*
X66973015Y-21635653D01*
X66973015Y-21445177D01*
X67211110Y-22207081D02*
X67211110Y-21921367D01*
X67211110Y-22064224D02*
X66711110Y-22064224D01*
X66782539Y-22016605D01*
X66830158Y-21968986D01*
X66853967Y-21921367D01*
X67211110Y-22445177D02*
X67211110Y-22540415D01*
X67187300Y-22588034D01*
X67163491Y-22611843D01*
X67092062Y-22659462D01*
X66996824Y-22683272D01*
X66806348Y-22683272D01*
X66758729Y-22659462D01*
X66734920Y-22635653D01*
X66711110Y-22588034D01*
X66711110Y-22492796D01*
X66734920Y-22445177D01*
X66758729Y-22421367D01*
X66806348Y-22397558D01*
X66925396Y-22397558D01*
X66973015Y-22421367D01*
X66996824Y-22445177D01*
X67020634Y-22492796D01*
X67020634Y-22588034D01*
X66996824Y-22635653D01*
X66973015Y-22659462D01*
X66925396Y-22683272D01*
X58777028Y-20937390D02*
X58943695Y-20699295D01*
X59062742Y-20937390D02*
X59062742Y-20437390D01*
X58872266Y-20437390D01*
X58824647Y-20461200D01*
X58800838Y-20485009D01*
X58777028Y-20532628D01*
X58777028Y-20604057D01*
X58800838Y-20651676D01*
X58824647Y-20675485D01*
X58872266Y-20699295D01*
X59062742Y-20699295D01*
X58300838Y-20937390D02*
X58586552Y-20937390D01*
X58443695Y-20937390D02*
X58443695Y-20437390D01*
X58491314Y-20508819D01*
X58538933Y-20556438D01*
X58586552Y-20580247D01*
X57872266Y-20437390D02*
X57967504Y-20437390D01*
X58015123Y-20461200D01*
X58038933Y-20485009D01*
X58086552Y-20556438D01*
X58110361Y-20651676D01*
X58110361Y-20842152D01*
X58086552Y-20889771D01*
X58062742Y-20913580D01*
X58015123Y-20937390D01*
X57919885Y-20937390D01*
X57872266Y-20913580D01*
X57848457Y-20889771D01*
X57824647Y-20842152D01*
X57824647Y-20723104D01*
X57848457Y-20675485D01*
X57872266Y-20651676D01*
X57919885Y-20627866D01*
X58015123Y-20627866D01*
X58062742Y-20651676D01*
X58086552Y-20675485D01*
X58110361Y-20723104D01*
X60326428Y-20911990D02*
X60493095Y-20673895D01*
X60612142Y-20911990D02*
X60612142Y-20411990D01*
X60421666Y-20411990D01*
X60374047Y-20435800D01*
X60350238Y-20459609D01*
X60326428Y-20507228D01*
X60326428Y-20578657D01*
X60350238Y-20626276D01*
X60374047Y-20650085D01*
X60421666Y-20673895D01*
X60612142Y-20673895D01*
X59850238Y-20911990D02*
X60135952Y-20911990D01*
X59993095Y-20911990D02*
X59993095Y-20411990D01*
X60040714Y-20483419D01*
X60088333Y-20531038D01*
X60135952Y-20554847D01*
X59564523Y-20626276D02*
X59612142Y-20602466D01*
X59635952Y-20578657D01*
X59659761Y-20531038D01*
X59659761Y-20507228D01*
X59635952Y-20459609D01*
X59612142Y-20435800D01*
X59564523Y-20411990D01*
X59469285Y-20411990D01*
X59421666Y-20435800D01*
X59397857Y-20459609D01*
X59374047Y-20507228D01*
X59374047Y-20531038D01*
X59397857Y-20578657D01*
X59421666Y-20602466D01*
X59469285Y-20626276D01*
X59564523Y-20626276D01*
X59612142Y-20650085D01*
X59635952Y-20673895D01*
X59659761Y-20721514D01*
X59659761Y-20816752D01*
X59635952Y-20864371D01*
X59612142Y-20888180D01*
X59564523Y-20911990D01*
X59469285Y-20911990D01*
X59421666Y-20888180D01*
X59397857Y-20864371D01*
X59374047Y-20816752D01*
X59374047Y-20721514D01*
X59397857Y-20673895D01*
X59421666Y-20650085D01*
X59469285Y-20626276D01*
X57151428Y-20937390D02*
X57318095Y-20699295D01*
X57437142Y-20937390D02*
X57437142Y-20437390D01*
X57246666Y-20437390D01*
X57199047Y-20461200D01*
X57175238Y-20485009D01*
X57151428Y-20532628D01*
X57151428Y-20604057D01*
X57175238Y-20651676D01*
X57199047Y-20675485D01*
X57246666Y-20699295D01*
X57437142Y-20699295D01*
X56675238Y-20937390D02*
X56960952Y-20937390D01*
X56818095Y-20937390D02*
X56818095Y-20437390D01*
X56865714Y-20508819D01*
X56913333Y-20556438D01*
X56960952Y-20580247D01*
X56246666Y-20604057D02*
X56246666Y-20937390D01*
X56365714Y-20413580D02*
X56484761Y-20770723D01*
X56175238Y-20770723D01*
X69146590Y-21629291D02*
X68908495Y-21462624D01*
X69146590Y-21343577D02*
X68646590Y-21343577D01*
X68646590Y-21534053D01*
X68670400Y-21581672D01*
X68694209Y-21605481D01*
X68741828Y-21629291D01*
X68813257Y-21629291D01*
X68860876Y-21605481D01*
X68884685Y-21581672D01*
X68908495Y-21534053D01*
X68908495Y-21343577D01*
X69146590Y-22105481D02*
X69146590Y-21819767D01*
X69146590Y-21962624D02*
X68646590Y-21962624D01*
X68718019Y-21915005D01*
X68765638Y-21867386D01*
X68789447Y-21819767D01*
X68646590Y-22272148D02*
X68646590Y-22581672D01*
X68837066Y-22415005D01*
X68837066Y-22486434D01*
X68860876Y-22534053D01*
X68884685Y-22557862D01*
X68932304Y-22581672D01*
X69051352Y-22581672D01*
X69098971Y-22557862D01*
X69122780Y-22534053D01*
X69146590Y-22486434D01*
X69146590Y-22343577D01*
X69122780Y-22295958D01*
X69098971Y-22272148D01*
X69389813Y-32225150D02*
X69556480Y-31987055D01*
X69675527Y-32225150D02*
X69675527Y-31725150D01*
X69485051Y-31725150D01*
X69437432Y-31748960D01*
X69413622Y-31772769D01*
X69389813Y-31820388D01*
X69389813Y-31891817D01*
X69413622Y-31939436D01*
X69437432Y-31963245D01*
X69485051Y-31987055D01*
X69675527Y-31987055D01*
X69151718Y-32225150D02*
X69056480Y-32225150D01*
X69008860Y-32201340D01*
X68985051Y-32177531D01*
X68937432Y-32106102D01*
X68913622Y-32010864D01*
X68913622Y-31820388D01*
X68937432Y-31772769D01*
X68961241Y-31748960D01*
X69008860Y-31725150D01*
X69104099Y-31725150D01*
X69151718Y-31748960D01*
X69175527Y-31772769D01*
X69199337Y-31820388D01*
X69199337Y-31939436D01*
X69175527Y-31987055D01*
X69151718Y-32010864D01*
X69104099Y-32034674D01*
X69008860Y-32034674D01*
X68961241Y-32010864D01*
X68937432Y-31987055D01*
X68913622Y-31939436D01*
X70755051Y-29340731D02*
X70778860Y-29316921D01*
X70802670Y-29245493D01*
X70802670Y-29197874D01*
X70778860Y-29126445D01*
X70731241Y-29078826D01*
X70683622Y-29055017D01*
X70588384Y-29031207D01*
X70516956Y-29031207D01*
X70421718Y-29055017D01*
X70374099Y-29078826D01*
X70326480Y-29126445D01*
X70302670Y-29197874D01*
X70302670Y-29245493D01*
X70326480Y-29316921D01*
X70350289Y-29340731D01*
X70802670Y-29816921D02*
X70802670Y-29531207D01*
X70802670Y-29674064D02*
X70302670Y-29674064D01*
X70374099Y-29626445D01*
X70421718Y-29578826D01*
X70445527Y-29531207D01*
X70302670Y-30269302D02*
X70302670Y-30031207D01*
X70540765Y-30007398D01*
X70516956Y-30031207D01*
X70493146Y-30078826D01*
X70493146Y-30197874D01*
X70516956Y-30245493D01*
X70540765Y-30269302D01*
X70588384Y-30293112D01*
X70707432Y-30293112D01*
X70755051Y-30269302D01*
X70778860Y-30245493D01*
X70802670Y-30197874D01*
X70802670Y-30078826D01*
X70778860Y-30031207D01*
X70755051Y-30007398D01*
X65654731Y-21741051D02*
X65678540Y-21717241D01*
X65702350Y-21645813D01*
X65702350Y-21598194D01*
X65678540Y-21526765D01*
X65630921Y-21479146D01*
X65583302Y-21455337D01*
X65488064Y-21431527D01*
X65416636Y-21431527D01*
X65321398Y-21455337D01*
X65273779Y-21479146D01*
X65226160Y-21526765D01*
X65202350Y-21598194D01*
X65202350Y-21645813D01*
X65226160Y-21717241D01*
X65249969Y-21741051D01*
X65702350Y-22217241D02*
X65702350Y-21931527D01*
X65702350Y-22074384D02*
X65202350Y-22074384D01*
X65273779Y-22026765D01*
X65321398Y-21979146D01*
X65345207Y-21931527D01*
X65369017Y-22645813D02*
X65702350Y-22645813D01*
X65178540Y-22526765D02*
X65535683Y-22407718D01*
X65535683Y-22717241D01*
X70592491Y-21675011D02*
X70616300Y-21651201D01*
X70640110Y-21579773D01*
X70640110Y-21532154D01*
X70616300Y-21460725D01*
X70568681Y-21413106D01*
X70521062Y-21389297D01*
X70425824Y-21365487D01*
X70354396Y-21365487D01*
X70259158Y-21389297D01*
X70211539Y-21413106D01*
X70163920Y-21460725D01*
X70140110Y-21532154D01*
X70140110Y-21579773D01*
X70163920Y-21651201D01*
X70187729Y-21675011D01*
X70640110Y-22151201D02*
X70640110Y-21865487D01*
X70640110Y-22008344D02*
X70140110Y-22008344D01*
X70211539Y-21960725D01*
X70259158Y-21913106D01*
X70282967Y-21865487D01*
X70187729Y-22341678D02*
X70163920Y-22365487D01*
X70140110Y-22413106D01*
X70140110Y-22532154D01*
X70163920Y-22579773D01*
X70187729Y-22603582D01*
X70235348Y-22627392D01*
X70282967Y-22627392D01*
X70354396Y-22603582D01*
X70640110Y-22317868D01*
X70640110Y-22627392D01*
X57710893Y-32284211D02*
X57734702Y-32308020D01*
X57806131Y-32331830D01*
X57853750Y-32331830D01*
X57925179Y-32308020D01*
X57972798Y-32260401D01*
X57996607Y-32212782D01*
X58020417Y-32117544D01*
X58020417Y-32046116D01*
X57996607Y-31950878D01*
X57972798Y-31903259D01*
X57925179Y-31855640D01*
X57853750Y-31831830D01*
X57806131Y-31831830D01*
X57734702Y-31855640D01*
X57710893Y-31879449D01*
X57282321Y-31831830D02*
X57377560Y-31831830D01*
X57425179Y-31855640D01*
X57448988Y-31879449D01*
X57496607Y-31950878D01*
X57520417Y-32046116D01*
X57520417Y-32236592D01*
X57496607Y-32284211D01*
X57472798Y-32308020D01*
X57425179Y-32331830D01*
X57329940Y-32331830D01*
X57282321Y-32308020D01*
X57258512Y-32284211D01*
X57234702Y-32236592D01*
X57234702Y-32117544D01*
X57258512Y-32069925D01*
X57282321Y-32046116D01*
X57329940Y-32022306D01*
X57425179Y-32022306D01*
X57472798Y-32046116D01*
X57496607Y-32069925D01*
X57520417Y-32117544D01*
X41444733Y-27950971D02*
X41468542Y-27974780D01*
X41539971Y-27998590D01*
X41587590Y-27998590D01*
X41659019Y-27974780D01*
X41706638Y-27927161D01*
X41730447Y-27879542D01*
X41754257Y-27784304D01*
X41754257Y-27712876D01*
X41730447Y-27617638D01*
X41706638Y-27570019D01*
X41659019Y-27522400D01*
X41587590Y-27498590D01*
X41539971Y-27498590D01*
X41468542Y-27522400D01*
X41444733Y-27546209D01*
X41254257Y-27546209D02*
X41230447Y-27522400D01*
X41182828Y-27498590D01*
X41063780Y-27498590D01*
X41016161Y-27522400D01*
X40992352Y-27546209D01*
X40968542Y-27593828D01*
X40968542Y-27641447D01*
X40992352Y-27712876D01*
X41278066Y-27998590D01*
X40968542Y-27998590D01*
X38041133Y-27976371D02*
X38064942Y-28000180D01*
X38136371Y-28023990D01*
X38183990Y-28023990D01*
X38255419Y-28000180D01*
X38303038Y-27952561D01*
X38326847Y-27904942D01*
X38350657Y-27809704D01*
X38350657Y-27738276D01*
X38326847Y-27643038D01*
X38303038Y-27595419D01*
X38255419Y-27547800D01*
X38183990Y-27523990D01*
X38136371Y-27523990D01*
X38064942Y-27547800D01*
X38041133Y-27571609D01*
X37874466Y-27523990D02*
X37564942Y-27523990D01*
X37731609Y-27714466D01*
X37660180Y-27714466D01*
X37612561Y-27738276D01*
X37588752Y-27762085D01*
X37564942Y-27809704D01*
X37564942Y-27928752D01*
X37588752Y-27976371D01*
X37612561Y-28000180D01*
X37660180Y-28023990D01*
X37803038Y-28023990D01*
X37850657Y-28000180D01*
X37874466Y-27976371D01*
X34815333Y-28001771D02*
X34839142Y-28025580D01*
X34910571Y-28049390D01*
X34958190Y-28049390D01*
X35029619Y-28025580D01*
X35077238Y-27977961D01*
X35101047Y-27930342D01*
X35124857Y-27835104D01*
X35124857Y-27763676D01*
X35101047Y-27668438D01*
X35077238Y-27620819D01*
X35029619Y-27573200D01*
X34958190Y-27549390D01*
X34910571Y-27549390D01*
X34839142Y-27573200D01*
X34815333Y-27597009D01*
X34386761Y-27716057D02*
X34386761Y-28049390D01*
X34505809Y-27525580D02*
X34624857Y-27882723D01*
X34315333Y-27882723D01*
M02*
